<?xml version="1.0" encoding="utf-8"?>
<!-- Generator: Adobe Illustrator 23.0.3, SVG Export Plug-In . SVG Version: 6.00 Build 0)  -->
<svg version="1.1" id="Layer_1" xmlns="http://www.w3.org/2000/svg" xmlns:xlink="http://www.w3.org/1999/xlink" x="0px" y="0px"
	 viewBox="0 0 302.81 175" style="enable-background:new 0 0 302.81 175;" xml:space="preserve">
<style type="text/css">
	.st0{fill:#D92231;}
	.st1{fill:#FFFFFF;}
</style>
<rect x="28.69" y="19.37" class="st0" width="242.93" height="140.31"/>
<g id="WIND__x28_outlines_x29_">
	<path class="st1" d="M117.81,71.27c0,0-8.79,22.69-9.63,24.79c-0.81-1.81-9.67-24.79-9.67-24.79h-5.96c0,0-8.9,22.66-9.7,24.57
		c-0.59-1.98-8.62-24.57-8.62-24.57H28.69v3.14h32.71c5.49,0,5.66,0.63,6.7,4.15l10.54,29.14h6.13c0,0,9.05-23.25,9.73-24.86
		c0.72,1.6,10.35,24.86,10.35,24.86h6.19l13.05-36.43H117.81z"/>
	<path class="st1" d="M129.26,71.27l-0.02,3.13h1.69c5.67,0,5.63,0.73,5.61,4v29.29h8.81V71.27H129.26z"/>
	<path class="st1" d="M188.57,71.27c0,0-0.05,21.95-0.05,23.97c-1.33-1.57-20.47-23.97-20.47-23.97h-16.72v3.17h1
		c6.5,0,6.52,1.3,6.52,4.41v28.85h7.9c0,0-0.03-24.02-0.03-26.05c1.34,1.58,22.2,26.05,22.2,26.05h7.39V71.27H188.57z"/>
	<path class="st1" d="M219.16,71.27h-17.08l-0.02,3.24h1.5c6.07,0,6.03,0.93,6.03,3.69v29.5h9.25c14.7,0,29.04-1.36,29.04-18.15
		C247.89,72.71,233.69,71.27,219.16,71.27 M221.26,103.58c-2.85,0-2.85-0.2-2.85-2.68V78.19c0-2.63,0-2.73,3.98-2.73
		c10.97,0,15.86,4.34,15.86,14.08C238.25,99.25,233.01,103.58,221.26,103.58z"/>
</g>
<g id="TM__x28_outlines_x29_">
	<path class="st1" d="M249.53,72.61h-1.4v-0.75h3.69v0.75h-1.41v3.92h-0.88V72.61z M252.71,71.86h1.35l1.26,3.58h0.03l1.26-3.58
		h1.35v4.67h-0.88v-3.9h-0.02l-1.36,3.9h-0.71l-1.36-3.9h-0.02v3.9h-0.88V71.86z"/>
</g>
</svg>
