<?xml version="1.0" encoding="utf-8"?>
<!-- Generator: Adobe Illustrator 22.1.0, SVG Export Plug-In . SVG Version: 6.00 Build 0)  -->
<svg version="1.1" id="Layer_1" xmlns="http://www.w3.org/2000/svg" xmlns:xlink="http://www.w3.org/1999/xlink" x="0px" y="0px"
	 viewBox="0 0 595 633.7" style="enable-background:new 0 0 595 633.7;" xml:space="preserve">
<style type="text/css">
	.st0{clip-path:url(#SVGID_2_);}
	.st1{opacity:5.000310e-02;clip-path:url(#SVGID_4_);}
	.st2{clip-path:url(#SVGID_6_);fill:#231F20;}
	.st3{clip-path:url(#SVGID_4_);fill:#FFFFFF;}
	.st4{clip-path:url(#SVGID_4_);fill:#351D70;}
	.st5{clip-path:url(#SVGID_4_);fill:#5956A5;}
	.st6{fill:#FFFFFF;}
	.st7{clip-path:url(#SVGID_8_);fill:none;stroke:#351D70;stroke-width:3;stroke-miterlimit:10;}
	.st8{clip-path:url(#SVGID_8_);fill:#351D70;}
	.st9{clip-path:url(#SVGID_8_);fill:#5956A5;}
	.st10{clip-path:url(#SVGID_8_);fill:#FFFFFF;}
	.st11{clip-path:url(#SVGID_10_);fill:#351D70;}
	.st12{clip-path:url(#SVGID_12_);fill:#351D70;}
	.st13{clip-path:url(#SVGID_14_);fill:#FFFFFF;}
	.st14{clip-path:url(#SVGID_14_);fill:none;stroke:#351D70;stroke-width:3;stroke-miterlimit:10;}
</style>
<g>
	<defs>
		<rect id="SVGID_1_" width="595" height="633.7"/>
	</defs>
	<clipPath id="SVGID_2_">
		<use xlink:href="#SVGID_1_"  style="overflow:visible;"/>
	</clipPath>
	<g class="st0">
		<defs>
			<rect id="SVGID_3_" width="595" height="633.7"/>
		</defs>
		<clipPath id="SVGID_4_">
			<use xlink:href="#SVGID_3_"  style="overflow:visible;"/>
		</clipPath>
		<g class="st1">
			<g>
				<defs>
					<rect id="SVGID_5_" x="1.5" y="1.5" width="592" height="630.7"/>
				</defs>
				<clipPath id="SVGID_6_">
					<use xlink:href="#SVGID_5_"  style="overflow:visible;"/>
				</clipPath>
				<rect x="1.5" y="1.5" class="st2" width="592" height="630.7"/>
			</g>
		</g>
		<path class="st3" d="M209.7,459.4c-4.7,0-8.5-3.8-8.5-8.5v-196c0-4.7,3.8-8.5,8.5-8.5h175.5c4.7,0,8.5,3.8,8.5,8.5v196
			c0,4.7-3.8,8.5-8.5,8.5H209.7z"/>
		<path class="st4" d="M385.3,247.9c3.9,0,7,3.1,7,7v196c0,3.9-3.1,7-7,7H209.7c-3.9,0-7-3.1-7-7v-196c0-3.9,3.1-7,7-7H385.3
			 M385.3,244.9H209.7c-5.5,0-10,4.5-10,10v196c0,5.5,4.5,10,10,10h175.5c5.5,0,10-4.5,10-10v-196
			C395.3,249.3,390.8,244.9,385.3,244.9"/>
		<rect x="1.5" y="1.5" class="st5" width="592" height="72"/>
	</g>
	<g class="st0">
		<path class="st6" d="M220.3,25.1h4.3v8.4h6.9v-8.4h4.3v21h-4.3v-8.5h-6.9v8.5h-4.3V25.1z"/>
		<path class="st6" d="M239.1,38.3V38c0-4.8,3-8.2,7-8.2c4.6,0,6.8,3.8,6.8,8.5c0,0.2,0,0.8,0,1.4h-9.6c0.4,2.1,1.7,3.2,3.5,3.2
			c1.3,0,2.3-0.6,3.4-1.6l2.2,2.6c-1.5,1.6-3.3,2.6-5.7,2.6C242.4,46.5,239.1,43.3,239.1,38.3z M248.8,36.9
			c-0.2-2.2-1.1-3.6-2.7-3.6c-1.6,0-2.6,1.3-2.8,3.6H248.8z"/>
		<path class="st6" d="M254.9,41.5v-0.2c0-3.5,2.3-5.1,5.6-5.1c1.3,0,2.4,0.3,3.4,0.7v-0.5c0-1.9-1.1-2.8-3-2.8
			c-1.5,0-2.7,0.5-3.7,0.9l-1.2-3.3c1.6-0.8,3.2-1.3,5.5-1.3c2.2,0,3.8,0.6,4.9,1.6c1.1,1.1,1.6,2.8,1.6,4.9v9.7h-4.2v-1.7
			c-1,1.3-2.3,2-4.2,2C257,46.4,254.9,44.7,254.9,41.5z M263.9,40.8v-1.4c-0.6-0.3-1.5-0.5-2.4-0.5c-1.6,0-2.5,0.8-2.5,2.2v0.1
			c0,1.3,0.8,2,2.1,2C262.7,43.3,263.9,42.3,263.9,40.8z"/>
		<path class="st6" d="M271.4,24.5h4.3v21.7h-4.3V24.5z"/>
		<path class="st6" d="M279.9,42.1v-8.5h-1.6V30h1.6v-4.1h4.3V30h3.2v3.6h-3.2v7.6c0,0.9,0.4,1.4,1.3,1.4c0.7,0,1.3-0.2,1.8-0.5v3.4
			c-0.8,0.5-1.9,0.8-3.1,0.8C281.7,46.4,279.9,45.4,279.9,42.1z"/>
		<path class="st6" d="M290.2,24.5h4.3v7.7c0.9-1.3,2.1-2.5,4.1-2.5c3,0,4.7,2.1,4.7,5.4v10.9h-4.3v-9.7c0-1.9-0.8-2.9-2.3-2.9
			c-1.4,0-2.3,1-2.3,2.9v9.7h-4.3V24.5z"/>
		<path class="st6" d="M313,35.8v-0.3c0-6.4,4-10.7,9.5-10.7c3.1,0,5.1,1.1,6.8,2.8l-2.6,3.4c-1.3-1.3-2.6-2.1-4.3-2.1
			c-2.8,0-4.9,2.6-4.9,6.7v0.1c0,4.2,2.2,6.7,5,6.7c1.7,0,2.9-0.8,4.3-2.2l2.6,3.1c-1.9,2-3.9,3.1-7.1,3.1
			C316.7,46.4,313,42.2,313,35.8z"/>
		<path class="st6" d="M331.1,41.5v-0.2c0-3.5,2.3-5.1,5.6-5.1c1.4,0,2.4,0.3,3.4,0.7v-0.5c0-1.9-1.1-2.8-3-2.8
			c-1.5,0-2.7,0.5-3.7,0.9l-1.2-3.3c1.6-0.8,3.2-1.3,5.5-1.3c2.2,0,3.8,0.6,4.9,1.6c1.1,1.1,1.7,2.8,1.7,4.9v9.7H340v-1.7
			c-1,1.3-2.3,2-4.2,2C333.2,46.4,331.1,44.7,331.1,41.5z M340.1,40.8v-1.4c-0.6-0.3-1.5-0.5-2.4-0.5c-1.6,0-2.5,0.8-2.5,2.2v0.1
			c0,1.3,0.8,2,2.1,2C338.9,43.3,340.1,42.3,340.1,40.8z"/>
		<path class="st6" d="M347.4,30h4.3v2.8c0.8-1.9,2.1-3.2,4.3-3.1v4.6h-0.2c-2.6,0-4.2,1.6-4.2,5v6.7h-4.3V30z"/>
		<path class="st6" d="M357.4,38.3V38c0-4.8,3-8.2,7-8.2c4.6,0,6.8,3.8,6.8,8.5c0,0.2,0,0.8,0,1.4h-9.6c0.4,2.1,1.7,3.2,3.5,3.2
			c1.3,0,2.3-0.6,3.4-1.6l2.2,2.6c-1.5,1.6-3.3,2.6-5.7,2.6C360.6,46.5,357.4,43.3,357.4,38.3z M367.1,36.9
			c-0.2-2.2-1.1-3.6-2.7-3.6c-1.6,0-2.6,1.3-2.8,3.6H367.1z"/>
	</g>
	<g class="st0">
		<defs>
			<rect id="SVGID_7_" width="595" height="633.7"/>
		</defs>
		<clipPath id="SVGID_8_">
			<use xlink:href="#SVGID_7_"  style="overflow:visible;"/>
		</clipPath>
		<rect x="1.5" y="1.5" class="st7" width="592" height="630.7"/>
		<path class="st8" d="M241.3,417.7c-2-0.5-2.5-0.8-2.5-1.5v0c0-0.6,0.5-1,1.5-1c1,0,2,0.4,3,1.1l1.3-1.9c-1.2-1-2.6-1.5-4.3-1.5
			c-2.4,0-4.1,1.4-4.1,3.5v0c0,2.3,1.5,3,3.9,3.6c2,0.5,2.4,0.8,2.4,1.5v0c0,0.7-0.6,1.1-1.7,1.1c-1.3,0-2.4-0.6-3.5-1.4l-1.5,1.8
			c1.4,1.3,3.2,1.9,5,1.9c2.5,0,4.3-1.3,4.3-3.6v0C245,419.1,243.7,418.3,241.3,417.7"/>
		<polygon class="st8" points="249.3,415.3 252.9,415.3 252.9,424.7 255.4,424.7 255.4,415.3 259,415.3 259,413 249.3,413 		"/>
		<path class="st8" d="M266.6,412.9l-5,11.8h2.6l1.1-2.6h4.9l1.1,2.6h2.7l-5-11.8H266.6z M266.2,419.8l1.6-3.8l1.6,3.8H266.2z"/>
		<path class="st8" d="M288.7,416.9L288.7,416.9c0-1.1-0.4-2.1-1-2.7c-0.8-0.8-1.9-1.2-3.4-1.2H279v11.7h2.6v-3.7h2l2.5,3.7h3
			l-2.9-4.2C287.7,419.9,288.7,418.7,288.7,416.9 M286.1,417c0,1-0.7,1.7-2,1.7h-2.6v-3.4h2.6C285.4,415.3,286.1,415.9,286.1,417
			L286.1,417z"/>
		<polygon class="st8" points="296.8,413 294.2,413 294.2,424.7 302.6,424.7 302.6,422.3 296.8,422.3 		"/>
		<rect x="307.9" y="413" class="st8" width="2.6" height="11.7"/>
		<polygon class="st8" points="324.4,420.2 318.9,413 316.5,413 316.5,424.7 319,424.7 319,417.2 324.7,424.7 326.9,424.7 
			326.9,413 324.4,413 		"/>
		<path class="st8" d="M338.4,420.2h2.6v1.7c-0.7,0.5-1.5,0.7-2.4,0.7c-2.1,0-3.5-1.6-3.5-3.7v0c0-2,1.5-3.6,3.4-3.6
			c1.4,0,2.2,0.4,3.1,1.2l1.6-2c-1.2-1-2.5-1.6-4.6-1.6c-3.5,0-6.1,2.7-6.1,6v0c0,3.5,2.5,6,6.1,6c2.1,0,3.8-0.8,5-1.9v-5.1h-5.1
			V420.2z"/>
		<polygon class="st8" points="359.1,413 356.2,413 353.7,416.8 351.2,413 348.2,413 352.1,418.7 348.1,424.7 351,424.7 
			353.6,420.7 356.3,424.7 359.3,424.7 355.2,418.7 		"/>
		<polygon class="st9" points="294.2,301.9 278.4,280.9 235.7,280.9 272.9,330.3 		"/>
		<path class="st9" d="M290.7,354.2l25.9,34.5h42.7l-37.3-49.8C313.7,347.5,301.8,353.4,290.7,354.2"/>
		<path class="st8" d="M265.1,379.4l22.8-30.4c0.1,0,0.2,0,0.3,0c11.8,0,25.6-7.3,33.1-17.6l23.4-31.2c6.7-8.4,14.5-12.2,14.5-12.2
			c-6.3-2.6-15.8-4-15.8-4c-3.7-3.2-12.1-3.2-12.1-3.2c-14.7,0-21.7,9.3-21.7,9.3l-32.2,43c19.2-0.1,23-3.1,34.7-18.2l2.5-3.3
			c2.5-3.3,6.3-5.3,10.5-5.3l-8.7,11.8c-12.7,16.5-18,20.3-40.2,20.3c-0.9,0-1.8,0-2.7,0l-37.7,50.3h9.2
			C252,388.6,260.6,384.9,265.1,379.4"/>
		<path class="st8" d="M269.5,208.9h-222c-5.5,0-10-4.5-10-10v-79.4c0-5.5,4.5-10,10-10h222c5.5,0,10,4.5,10,10v79.4
			C279.5,204.4,275,208.9,269.5,208.9"/>
		<line class="st10" x1="297.5" y1="460.9" x2="297.5" y2="498.5"/>
		<line class="st7" x1="297.5" y1="460.9" x2="297.5" y2="498.5"/>
	</g>
	<g class="st0">
		<path class="st6" d="M128.5,150.7h2.9v14h-2.9V150.7z"/>
		<path class="st6" d="M134,154h2.8v1.4c0.6-0.9,1.4-1.6,2.8-1.6c1.2,0,2.1,0.6,2.6,1.6c0.8-0.9,1.7-1.6,3-1.6
			c1.9,0,3.2,1.2,3.2,3.6v7.3h-2.8v-6.5c0-1.2-0.5-1.9-1.5-1.9c-0.9,0-1.5,0.7-1.5,1.9v6.5h-2.8v-6.5c0-1.2-0.5-1.9-1.5-1.9
			c-0.9,0-1.5,0.7-1.5,1.9v6.5H134V154z"/>
		<path class="st6" d="M150.2,161.6v-0.1c0-2.4,1.5-3.4,3.7-3.4c0.9,0,1.6,0.2,2.2,0.4v-0.3c0-1.2-0.7-1.9-2-1.9
			c-1,0-1.8,0.3-2.5,0.6l-0.8-2.2c1-0.5,2.1-0.9,3.7-0.9c1.5,0,2.6,0.4,3.3,1.1c0.7,0.7,1.1,1.9,1.1,3.2v6.5h-2.8v-1.2
			c-0.6,0.8-1.5,1.4-2.8,1.4C151.6,164.9,150.2,163.7,150.2,161.6z M156.2,161.2v-0.9c-0.4-0.2-1-0.3-1.6-0.3c-1,0-1.7,0.5-1.7,1.5
			v0c0,0.9,0.6,1.3,1.4,1.3C155.4,162.8,156.2,162.2,156.2,161.2z"/>
		<path class="st6" d="M161.2,166.9l0.9-2.2c0.9,0.5,1.9,0.8,3,0.8c1.8,0,2.6-0.8,2.6-2.5v-0.7c-0.7,0.9-1.6,1.7-3,1.7
			c-2.1,0-4-1.7-4-5v-0.1c0-3.4,1.9-5,4-5c1.5,0,2.3,0.7,3,1.6V154h2.8v8.8c0,1.7-0.4,2.9-1.2,3.7c-0.9,0.9-2.3,1.3-4.1,1.3
			C163.7,167.8,162.4,167.4,161.2,166.9z M167.7,158.8L167.7,158.8c0-1.6-0.9-2.6-2.1-2.6s-2.1,1-2.1,2.6v0c0,1.6,0.9,2.6,2.1,2.6
			S167.7,160.4,167.7,158.8z"/>
		<path class="st6" d="M172.9,150.3h3v2.6h-3V150.3z M172.9,154h2.8v10.7h-2.8V154z"/>
		<path class="st6" d="M178.2,154h2.8v1.4c0.6-0.9,1.4-1.6,2.8-1.6c2,0,3.2,1.4,3.2,3.6v7.3h-2.8v-6.5c0-1.3-0.6-1.9-1.5-1.9
			c-0.9,0-1.6,0.6-1.6,1.9v6.5h-2.8V154z"/>
		<path class="st6" d="M189.2,166.9l0.9-2.2c0.9,0.5,1.9,0.8,3,0.8c1.8,0,2.6-0.8,2.6-2.5v-0.7c-0.7,0.9-1.6,1.7-3,1.7
			c-2.1,0-4-1.7-4-5v-0.1c0-3.4,1.9-5,4-5c1.5,0,2.3,0.7,3,1.6V154h2.8v8.8c0,1.7-0.4,2.9-1.2,3.7c-0.9,0.9-2.3,1.3-4.1,1.3
			C191.8,167.8,190.4,167.4,189.2,166.9z M195.8,158.8L195.8,158.8c0-1.6-0.9-2.6-2.1-2.6s-2.1,1-2.1,2.6v0c0,1.6,0.9,2.6,2.1,2.6
			S195.8,160.4,195.8,158.8z"/>
	</g>
	<g class="st0">
		<defs>
			<rect id="SVGID_9_" width="595" height="633.7"/>
		</defs>
		<clipPath id="SVGID_10_">
			<use xlink:href="#SVGID_9_"  style="overflow:visible;"/>
		</clipPath>
		<path class="st11" d="M547.5,208.9h-222c-5.5,0-10-4.5-10-10v-79.4c0-5.5,4.5-10,10-10h222c5.5,0,10,4.5,10,10v79.4
			C557.5,204.4,553,208.9,547.5,208.9"/>
	</g>
	<g class="st0">
		<path class="st6" d="M388.7,150.7h4.5c4.1,0,6.7,2.8,6.7,6.9v0.2c0,4.1-2.6,6.9-6.7,6.9h-4.5V150.7z M391.6,153.3v8.8h1.6
			c2.2,0,3.7-1.5,3.7-4.3v-0.1c0-2.8-1.5-4.3-3.7-4.3H391.6z"/>
		<path class="st6" d="M402,150.3h3v2.6h-3V150.3z M402,154h2.8v10.7H402V154z"/>
		<path class="st6" d="M406.7,161.6v-0.1c0-2.4,1.5-3.4,3.7-3.4c0.9,0,1.6,0.2,2.2,0.4v-0.3c0-1.2-0.7-1.9-2-1.9
			c-1,0-1.8,0.3-2.5,0.6l-0.8-2.2c1-0.5,2.1-0.9,3.7-0.9c1.5,0,2.6,0.4,3.3,1.1c0.7,0.7,1.1,1.9,1.1,3.2v6.5h-2.8v-1.2
			c-0.6,0.8-1.5,1.4-2.8,1.4C408.1,164.9,406.7,163.7,406.7,161.6z M412.7,161.2v-0.9c-0.4-0.2-1-0.3-1.6-0.3c-1,0-1.7,0.5-1.7,1.5
			v0c0,0.9,0.6,1.3,1.4,1.3C411.9,162.8,412.7,162.2,412.7,161.2z"/>
		<path class="st6" d="M417.7,166.9l0.9-2.2c0.9,0.5,1.9,0.8,3,0.8c1.8,0,2.6-0.8,2.6-2.5v-0.7c-0.7,0.9-1.6,1.7-3,1.7
			c-2.1,0-4-1.7-4-5v-0.1c0-3.4,1.9-5,4-5c1.5,0,2.3,0.7,3,1.6V154h2.8v8.8c0,1.7-0.4,2.9-1.2,3.7c-0.9,0.9-2.3,1.3-4.1,1.3
			C420.3,167.8,418.9,167.4,417.7,166.9z M424.3,158.8L424.3,158.8c0-1.6-0.9-2.6-2.1-2.6s-2.1,1-2.1,2.6v0c0,1.6,0.9,2.6,2.1,2.6
			S424.3,160.4,424.3,158.8z"/>
		<path class="st6" d="M429.3,154h2.8v1.4c0.6-0.9,1.4-1.6,2.8-1.6c2,0,3.2,1.4,3.2,3.6v7.3h-2.8v-6.5c0-1.3-0.6-1.9-1.5-1.9
			c-0.9,0-1.6,0.6-1.6,1.9v6.5h-2.8V154z"/>
		<path class="st6" d="M439.9,159.5v-0.2c0-3.2,2.2-5.5,5.1-5.5s5,2.3,5,5.5v0.2c0,3.2-2.1,5.5-5,5.5
			C442,164.9,439.9,162.7,439.9,159.5z M447.2,159.4v-0.1c0-1.7-0.9-3.1-2.2-3.1c-1.4,0-2.2,1.3-2.2,3v0.1c0,1.7,0.9,3.1,2.3,3.1
			C446.3,162.5,447.2,161.2,447.2,159.4z"/>
		<path class="st6" d="M451,163.4l1.2-2c1,0.7,2,1.2,2.9,1.2c0.8,0,1.1-0.4,1.1-0.8v0c0-0.6-0.8-0.9-2-1.4c-1.5-0.7-2.8-1.4-2.8-3.2
			v0c0-2.1,1.6-3.3,3.7-3.3c1.2,0,2.5,0.4,3.5,1.2l-1.1,2c-0.8-0.5-1.7-0.9-2.4-0.9c-0.7,0-1,0.3-1,0.8v0c0,0.6,0.8,0.9,1.9,1.4
			c1.6,0.7,2.8,1.5,2.8,3.2v0c0,2.2-1.6,3.3-3.8,3.3C453.8,164.9,452.3,164.5,451,163.4z"/>
		<path class="st6" d="M460.9,162v-5.6h-1.1V154h1.1v-2.7h2.8v2.7h2.1v2.4h-2.1v5.1c0,0.6,0.3,0.9,0.9,0.9c0.4,0,0.9-0.1,1.2-0.3
			v2.3c-0.6,0.3-1.2,0.6-2.1,0.6C462.1,164.9,460.9,164.2,460.9,162z"/>
		<path class="st6" d="M467.7,150.3h3v2.6h-3V150.3z M467.8,154h2.8v10.7h-2.8V154z"/>
		<path class="st6" d="M472.6,159.5v-0.2c0-3.2,2.1-5.5,5-5.5c1.5,0,2.6,0.5,3.5,1.4l-1.5,2.1c-0.5-0.5-1.1-1-1.9-1
			c-1.3,0-2.2,1.2-2.2,3v0.1c0,1.8,0.8,3,2.2,3c0.8,0,1.4-0.4,1.9-1l1.5,1.9c-0.9,1-2,1.6-3.6,1.6
			C474.6,164.9,472.6,162.7,472.6,159.5z"/>
		<path class="st6" d="M481.9,163.4l1.2-2c1,0.7,2,1.2,2.9,1.2c0.8,0,1.1-0.4,1.1-0.8v0c0-0.6-0.8-0.9-2-1.4
			c-1.5-0.7-2.8-1.4-2.8-3.2v0c0-2.1,1.6-3.3,3.7-3.3c1.2,0,2.5,0.4,3.5,1.2l-1.1,2c-0.8-0.5-1.7-0.9-2.4-0.9c-0.7,0-1,0.3-1,0.8v0
			c0,0.6,0.8,0.9,1.9,1.4c1.6,0.7,2.8,1.5,2.8,3.2v0c0,2.2-1.6,3.3-3.8,3.3C484.7,164.9,483.2,164.5,481.9,163.4z"/>
	</g>
	<g class="st0">
		<defs>
			<rect id="SVGID_11_" width="595" height="633.7"/>
		</defs>
		<clipPath id="SVGID_12_">
			<use xlink:href="#SVGID_11_"  style="overflow:visible;"/>
		</clipPath>
		<path class="st12" d="M408.5,596.2h-222c-5.5,0-10-4.5-10-10v-79.4c0-5.5,4.5-10,10-10h222c5.5,0,10,4.5,10,10v79.4
			C418.5,591.8,414,596.2,408.5,596.2"/>
	</g>
	<g class="st0">
		<path class="st6" d="M253.5,538.1h3l3.1,5.7l3.1-5.7h3.1v14H263v-8.9l-3.3,5.8h-0.1l-3.3-5.7v8.9h-2.8V538.1z"/>
		<path class="st6" d="M267.9,546.8v-0.2c0-3.2,2.2-5.5,5.1-5.5c2.9,0,5,2.3,5,5.5v0.2c0,3.2-2.1,5.5-5,5.5S267.9,550,267.9,546.8z
			 M275.2,546.8v-0.1c0-1.7-0.9-3.1-2.2-3.1c-1.4,0-2.2,1.3-2.2,3v0.1c0,1.7,0.9,3.1,2.3,3.1C274.4,549.8,275.2,548.5,275.2,546.8z"
			/>
		<path class="st6" d="M279.9,541.3h2.8v1.4c0.6-0.9,1.4-1.6,2.8-1.6c2,0,3.2,1.4,3.2,3.6v7.3h-2.8v-6.5c0-1.3-0.6-1.9-1.5-1.9
			c-0.9,0-1.6,0.6-1.6,1.9v6.5h-2.8V541.3z"/>
		<path class="st6" d="M290.9,537.6h3v2.6h-3V537.6z M291,541.3h2.8v10.7H291V541.3z"/>
		<path class="st6" d="M296.6,549.4v-5.6h-1.1v-2.4h1.1v-2.7h2.8v2.7h2.1v2.4h-2.1v5.1c0,0.6,0.3,0.9,0.9,0.9c0.4,0,0.9-0.1,1.2-0.3
			v2.3c-0.6,0.3-1.2,0.6-2.1,0.6C297.8,552.2,296.6,551.6,296.6,549.4z"/>
		<path class="st6" d="M302.7,546.8v-0.2c0-3.2,2.2-5.5,5.1-5.5c2.9,0,5,2.3,5,5.5v0.2c0,3.2-2.1,5.5-5,5.5S302.7,550,302.7,546.8z
			 M310,546.8v-0.1c0-1.7-0.9-3.1-2.2-3.1c-1.4,0-2.2,1.3-2.2,3v0.1c0,1.7,0.9,3.1,2.3,3.1C309.2,549.8,310,548.5,310,546.8z"/>
		<path class="st6" d="M314.7,541.3h2.8v1.9c0.5-1.3,1.4-2.2,2.9-2.1v3.1h-0.1c-1.7,0-2.8,1.1-2.8,3.3v4.5h-2.8V541.3z"/>
		<path class="st6" d="M322.1,537.6h3v2.6h-3V537.6z M322.1,541.3h2.8v10.7h-2.8V541.3z"/>
		<path class="st6" d="M327.4,541.3h2.8v1.4c0.6-0.9,1.4-1.6,2.8-1.6c2,0,3.2,1.4,3.2,3.6v7.3h-2.8v-6.5c0-1.3-0.6-1.9-1.5-1.9
			c-0.9,0-1.6,0.6-1.6,1.9v6.5h-2.8V541.3z"/>
		<path class="st6" d="M338.4,554.2l0.9-2.2c0.9,0.5,1.9,0.8,3,0.8c1.8,0,2.6-0.8,2.6-2.5v-0.7c-0.7,0.9-1.6,1.7-3,1.7
			c-2.1,0-4-1.7-4-5v-0.1c0-3.4,1.9-5,4-5c1.5,0,2.3,0.7,3,1.6v-1.4h2.8v8.8c0,1.7-0.4,2.9-1.2,3.7c-0.9,0.9-2.3,1.3-4.1,1.3
			C341,555.1,339.6,554.8,338.4,554.2z M345,546.2L345,546.2c0-1.6-0.9-2.6-2.1-2.6s-2.1,1-2.1,2.6v0c0,1.6,0.9,2.6,2.1,2.6
			S345,547.8,345,546.2z"/>
	</g>
	<g class="st0">
		<defs>
			<rect id="SVGID_13_" width="595" height="633.7"/>
		</defs>
		<clipPath id="SVGID_14_">
			<use xlink:href="#SVGID_13_"  style="overflow:visible;"/>
		</clipPath>
		<line class="st13" x1="391.5" y1="249.3" x2="425.6" y2="203.9"/>
		<line class="st14" x1="391.5" y1="249.3" x2="425.6" y2="203.9"/>
		<line class="st13" x1="204.3" y1="249.3" x2="170.2" y2="203.9"/>
		<line class="st14" x1="204.3" y1="249.3" x2="170.2" y2="203.9"/>
	</g>
</g>
</svg>
