<svg xmlns="http://www.w3.org/2000/svg" viewBox="0 0 1920 1080"><defs><style>.cls-1,.cls-6{fill:#fff;}.cls-2{fill:#231f20;opacity:0.05;}.cls-3{fill:#341d70;}.cls-4{fill:#5956a5;}.cls-5{fill:none;}.cls-5,.cls-6{stroke:#341d70;stroke-miterlimit:10;stroke-width:3px;}</style></defs><title>starlingx-usecasesArtboard 1 copy</title><g id="BG"><rect class="cls-1" width="1920" height="1080"/></g><g id="Artwork"><rect class="cls-2" x="72" y="172.03" width="592" height="835.97"/><path class="cls-3" d="M71.26,96.62l3.34-4.16c1.82,1.6,4,3.07,6.75,3.07,2.17,0,3.49-1.09,3.49-2.68v0c0-1.35-.78-2.21-4.66-3.68-4.8-1.86-7.79-3.69-7.79-8.34v-.08c0-4.73,3.64-7.95,8.88-7.95A12.94,12.94,0,0,1,90,76.1L86.9,80.36a9.56,9.56,0,0,0-5.78-2.52c-1.94,0-3.15,1-3.15,2.37v0c0,1.55.93,2.29,5.16,4,4.73,1.86,7.29,3.88,7.29,8.11v.07c0,5.05-3.84,8.15-9.11,8.15A14.6,14.6,0,0,1,71.26,96.62Z"/><path class="cls-3" d="M94.58,95.06V84.13h-2.1V79.47h2.1V74.16h5.5v5.31h4.12v4.66h-4.12v9.81c0,1.2.55,1.78,1.71,1.78a5.35,5.35,0,0,0,2.37-.58v4.38a7.94,7.94,0,0,1-4.08,1.09C96.9,100.61,94.58,99.37,94.58,95.06Z"/><path class="cls-3" d="M106.52,94.33v-.24c0-4.57,3-6.63,7.26-6.63a11.33,11.33,0,0,1,4.34.85v-.62c0-2.4-1.43-3.64-3.92-3.64a11.86,11.86,0,0,0-4.77,1.16l-1.51-4.3a14.86,14.86,0,0,1,7.1-1.67c2.83,0,5,.77,6.32,2.13s2.13,3.61,2.13,6.29v12.6h-5.39V98a6.38,6.38,0,0,1-5.39,2.64A5.93,5.93,0,0,1,106.52,94.33Zm11.68-.9V91.69a7.41,7.41,0,0,0-3.06-.66c-2,0-3.3,1-3.3,2.91V94a2.45,2.45,0,0,0,2.67,2.6C116.65,96.65,118.2,95.33,118.2,93.43Z"/><path class="cls-3" d="M127.51,79.47H133v3.69c1-2.53,2.67-4.19,5.62-4v6h-.23c-3.37,0-5.39,2.09-5.39,6.43v8.73h-5.51Z"/><path class="cls-3" d="M141.75,72.26h5.5v28h-5.5Z"/><path class="cls-3" d="M151.79,72.26h5.74v5h-5.74Zm.12,7.21h5.51v20.79h-5.51Z"/><path class="cls-3" d="M161.88,79.47h5.51v2.79c1.2-1.66,2.71-3.18,5.35-3.18,3.88,0,6.13,2.72,6.13,7v14.16h-5.51V87.73c0-2.44-1.09-3.68-3-3.68s-3,1.24-3,3.68v12.53h-5.51Z"/><path class="cls-3" d="M183.06,104.45l1.71-4.27a12.07,12.07,0,0,0,5.89,1.52c3.45,0,5.12-1.59,5.12-4.93V95.45c-1.4,1.82-3,3.26-5.82,3.26-4.11,0-7.75-3.22-7.75-9.77v-.12c0-6.56,3.68-9.74,7.75-9.74a7,7,0,0,1,5.78,3.07V79.47h5.51v17c0,3.3-.81,5.66-2.37,7.25-1.74,1.71-4.38,2.49-7.91,2.49A18.25,18.25,0,0,1,183.06,104.45ZM195.82,88.9v0c0-3.07-1.75-5-4.07-5s-4,2-4,5v0c0,3.14,1.71,5.08,4,5.08S195.82,92,195.82,88.9Z"/><path class="cls-3" d="M226.5,73.11l-7.75,13.26,8.06,13.89h-6.4l-5-9.31-5,9.31H204.2l8-13.81-7.68-13.34H211l4.62,8.8,4.69-8.8Z"/><path class="cls-3" d="M238.41,89.71V73.11H244V89.75c0,3.84,1.82,5.74,4.73,5.74s4.73-1.86,4.73-5.62V73.11h5.59V89.59c0,7.49-4.11,11.1-10.4,11.1S238.41,97,238.41,89.71Z"/><path class="cls-3" d="M261.88,97.78l2.41-3.88a9.75,9.75,0,0,0,5.54,2.33c1.56,0,2.22-.74,2.22-1.59v-.08c0-1.2-1.56-1.71-3.81-2.68-2.94-1.28-5.46-2.75-5.46-6.28v-.08c0-4,3.1-6.36,7.13-6.36a12.32,12.32,0,0,1,6.87,2.25l-2.21,4a9.44,9.44,0,0,0-4.74-1.79c-1.31,0-2,.66-2,1.48v.07c0,1.09,1.55,1.71,3.76,2.72,3,1.43,5.51,3,5.51,6.24v.08c0,4.31-3.18,6.48-7.33,6.48A12.63,12.63,0,0,1,261.88,97.78Z"/><path class="cls-3" d="M279.42,90.1v-.35c0-6.17,3.84-10.67,9.07-10.67,5.94,0,8.85,4.85,8.85,11.06,0,.31,0,1,0,1.78H284.89c.46,2.76,2.17,4.19,4.5,4.19a6.1,6.1,0,0,0,4.34-2l2.83,3.33a9.58,9.58,0,0,1-7.41,3.34C283.64,100.73,279.42,96.58,279.42,90.1ZM292,88.28c-.23-2.87-1.47-4.66-3.53-4.66s-3.33,1.71-3.64,4.66Z"/><path class="cls-3" d="M308.78,86.88v-.35c0-8.22,5.12-13.81,12.3-13.81a11.4,11.4,0,0,1,8.72,3.61l-3.37,4.34A7.61,7.61,0,0,0,320.88,78c-3.64,0-6.32,3.37-6.32,8.65v.11c0,5.4,2.79,8.69,6.4,8.69,2.17,0,3.76-1,5.59-2.83l3.37,4a11.78,11.78,0,0,1-9.19,4.07C313.59,100.65,308.78,95.18,308.78,86.88Z"/><path class="cls-3" d="M331.9,94.33v-.24c0-4.57,3-6.63,7.25-6.63a11.34,11.34,0,0,1,4.35.85v-.62c0-2.4-1.44-3.64-3.92-3.64a11.86,11.86,0,0,0-4.77,1.16l-1.51-4.3a14.83,14.83,0,0,1,7.1-1.67c2.83,0,5,.77,6.32,2.13a8.67,8.67,0,0,1,2.13,6.29v12.6h-5.39V98a6.39,6.39,0,0,1-5.39,2.64A5.92,5.92,0,0,1,331.9,94.33Zm11.68-.9V91.69a7.43,7.43,0,0,0-3.07-.66c-2,0-3.3,1-3.3,2.91V94a2.45,2.45,0,0,0,2.68,2.6C342,96.65,343.58,95.33,343.58,93.43Z"/><path class="cls-3" d="M351.3,97.78l2.4-3.88a9.75,9.75,0,0,0,5.55,2.33c1.55,0,2.21-.74,2.21-1.59v-.08c0-1.2-1.55-1.71-3.8-2.68-3-1.28-5.47-2.75-5.47-6.28v-.08c0-4,3.1-6.36,7.14-6.36a12.27,12.27,0,0,1,6.86,2.25l-2.21,4a9.44,9.44,0,0,0-4.73-1.79c-1.32,0-2,.66-2,1.48v.07c0,1.09,1.55,1.71,3.76,2.72,3,1.43,5.51,3,5.51,6.24v.08c0,4.31-3.18,6.48-7.33,6.48A12.62,12.62,0,0,1,351.3,97.78Z"/><path class="cls-3" d="M368.83,90.1v-.35c0-6.17,3.84-10.67,9.08-10.67,5.93,0,8.84,4.85,8.84,11.06,0,.31,0,1,0,1.78H374.3c.46,2.76,2.17,4.19,4.5,4.19a6.1,6.1,0,0,0,4.34-2L386,97.39a9.57,9.57,0,0,1-7.4,3.34C373.06,100.73,368.83,96.58,368.83,90.1Zm12.61-1.82c-.24-2.87-1.48-4.66-3.53-4.66s-3.34,1.71-3.65,4.66Z"/><path class="cls-3" d="M388.57,97.78,391,93.9a9.75,9.75,0,0,0,5.55,2.33c1.55,0,2.21-.74,2.21-1.59v-.08c0-1.2-1.55-1.71-3.8-2.68-2.95-1.28-5.47-2.75-5.47-6.28v-.08c0-4,3.1-6.36,7.13-6.36a12.32,12.32,0,0,1,6.87,2.25l-2.21,4a9.44,9.44,0,0,0-4.73-1.79c-1.32,0-2,.66-2,1.48v.07c0,1.09,1.55,1.71,3.76,2.72,3,1.43,5.51,3,5.51,6.24v.08c0,4.31-3.18,6.48-7.33,6.48A12.65,12.65,0,0,1,388.57,97.78Z"/><rect class="cls-2" x="664" y="172.03" width="592" height="835.97"/><rect class="cls-2" x="1255.92" y="172.03" width="592" height="835.97"/><rect class="cls-4" x="72" y="172.02" width="592" height="72"/><path class="cls-1" d="M330.85,200.58h4.44l3,10.68,3-10.68h4.32l-5.4,16.2h-4Z"/><path class="cls-1" d="M348.25,195.66h7.88a7.79,7.79,0,0,1,5.7,2,6.65,6.65,0,0,1,1.77,4.86v.12a6.34,6.34,0,0,1-3.89,6.21l4.46,7.8h-5l-3.87-6.9H352.6v6.9h-4.35Zm7.55,10.26c2.23,0,3.42-1.26,3.42-3.15v0c0-2.1-1.29-3.15-3.51-3.15H352.6v6.33Z"/><path class="cls-1" d="M373,195.54h4.14l7.53,21.12h-4.5l-1.56-4.56h-7.23l-1.53,4.56h-4.38Zm4.29,12.72L375,201.42l-2.31,6.84Z"/><path class="cls-1" d="M387.28,195.66h4l8,12.24V195.66h4.26v21h-3.73L391.54,204v12.69h-4.26Z"/><rect class="cls-4" x="664" y="172.02" width="592" height="72"/><path class="cls-1" d="M933,195.66h4.56l4.68,8.52,4.62-8.52h4.59v21h-4.26V203.25l-5,8.67h-.09l-4.92-8.61v13.35H933Z"/><path class="cls-1" d="M955.65,195.66h13.53v3.93H960v4.53h8.1v3.93H960v4.68h9.33v3.93H955.65Z"/><path class="cls-1" d="M971.88,206.31V206c0-6.36,4-10.68,9.51-10.68a8.82,8.82,0,0,1,6.75,2.79l-2.61,3.36a5.86,5.86,0,0,0-4.29-2.1c-2.82,0-4.89,2.61-4.89,6.69v.09c0,4.17,2.16,6.72,4.95,6.72,1.68,0,2.91-.78,4.32-2.19l2.61,3.09a9.12,9.12,0,0,1-7.11,3.15C975.6,217,971.88,212.73,971.88,206.31Z"/><rect class="cls-4" x="1256" y="172.02" width="592" height="72"/><path class="cls-1" d="M1460.41,199.68h-5.28v-4H1470v4h-5.28v17h-4.32Z"/><path class="cls-1" d="M1471.06,200.58h4.26v2.85c.78-2,2.07-3.24,4.35-3.12v4.62h-.18c-2.61,0-4.17,1.62-4.17,5v6.75h-4.26Z"/><path class="cls-1" d="M1480.63,212.07v-.18c0-3.54,2.31-5.13,5.61-5.13a8.7,8.7,0,0,1,3.36.66v-.48c0-1.86-1.11-2.82-3-2.82a9.14,9.14,0,0,0-3.69.9l-1.17-3.33a11.5,11.5,0,0,1,5.49-1.29,5.81,5.81,0,0,1,6.54,6.51v9.75h-4.17v-1.74a4.94,4.94,0,0,1-4.17,2A4.58,4.58,0,0,1,1480.63,212.07Zm9-.69V210a5.75,5.75,0,0,0-2.37-.51c-1.56,0-2.55.78-2.55,2.25v.06a1.89,1.89,0,0,0,2.07,2A2.55,2.55,0,0,0,1489.66,211.38Z"/><path class="cls-1" d="M1497,200.58h4.26v2.16a4.92,4.92,0,0,1,4.14-2.46c3,0,4.74,2.1,4.74,5.43v10.95h-4.26V207c0-1.89-.84-2.85-2.28-2.85s-2.34,1-2.34,2.85v9.69H1497Z"/><path class="cls-1" d="M1512.22,214.74l1.86-3a7.51,7.51,0,0,0,4.29,1.8c1.2,0,1.71-.57,1.71-1.23v-.06c0-.93-1.2-1.32-2.94-2.07-2.28-1-4.23-2.13-4.23-4.86v-.06c0-3.09,2.4-4.92,5.52-4.92a9.49,9.49,0,0,1,5.31,1.74l-1.71,3.06a7.3,7.3,0,0,0-3.66-1.38c-1,0-1.56.51-1.56,1.14V205c0,.84,1.2,1.32,2.91,2.1,2.34,1.11,4.26,2.28,4.26,4.83V212c0,3.33-2.46,5-5.67,5A9.74,9.74,0,0,1,1512.22,214.74Z"/><path class="cls-1" d="M1526.59,200.58h4.26v2.22a5.08,5.08,0,0,1,4.35-2.52c3.18,0,6.12,2.61,6.12,8.1v.48c0,5.49-2.91,8.1-6.12,8.1a5.22,5.22,0,0,1-4.35-2.37v6.6h-4.26Zm10.47,8.19v-.3c0-2.73-1.35-4.47-3.12-4.47s-3.15,1.74-3.15,4.47v.3c0,2.73,1.38,4.47,3.15,4.47S1537.06,211.5,1537.06,208.77Z"/><path class="cls-1" d="M1543.54,208.83v-.33c0-4.77,3.24-8.22,7.59-8.22s7.53,3.39,7.53,8.19v.33c0,4.77-3.21,8.22-7.56,8.22S1543.54,213.63,1543.54,208.83Zm10.92-.06v-.21c0-2.61-1.32-4.59-3.36-4.59s-3.36,1.95-3.36,4.56v.21c0,2.58,1.35,4.59,3.39,4.59S1554.46,211.38,1554.46,208.77Z"/><path class="cls-1" d="M1561.48,200.58h4.26v2.85c.78-2,2.07-3.24,4.35-3.12v4.62h-.18c-2.61,0-4.17,1.62-4.17,5v6.75h-4.26Z"/><path class="cls-1" d="M1573.15,212.64v-8.46h-1.62v-3.6h1.62v-4.11h4.26v4.11h3.18v3.6h-3.18v7.59c0,.93.42,1.38,1.32,1.38a4.12,4.12,0,0,0,1.83-.45v3.39a6.19,6.19,0,0,1-3.15.84C1575,216.93,1573.15,216,1573.15,212.64Z"/><path class="cls-1" d="M1582.54,212.07v-.18c0-3.54,2.31-5.13,5.61-5.13a8.7,8.7,0,0,1,3.36.66v-.48c0-1.86-1.11-2.82-3-2.82a9.14,9.14,0,0,0-3.69.9l-1.17-3.33a11.5,11.5,0,0,1,5.49-1.29,5.81,5.81,0,0,1,6.54,6.51v9.75h-4.17v-1.74a4.94,4.94,0,0,1-4.17,2A4.58,4.58,0,0,1,1582.54,212.07Zm9-.69V210a5.75,5.75,0,0,0-2.37-.51c-1.56,0-2.55.78-2.55,2.25v.06a1.89,1.89,0,0,0,2.07,2A2.55,2.55,0,0,0,1591.57,211.38Z"/><path class="cls-1" d="M1599.43,212.64v-8.46h-1.62v-3.6h1.62v-4.11h4.26v4.11h3.18v3.6h-3.18v7.59c0,.93.42,1.38,1.32,1.38a4.12,4.12,0,0,0,1.83-.45v3.39a6.19,6.19,0,0,1-3.15.84C1601.23,216.93,1599.43,216,1599.43,212.64Z"/><path class="cls-1" d="M1609.72,195h4.44v3.87h-4.44Zm.09,5.58h4.26v16.08h-4.26Z"/><path class="cls-1" d="M1617,208.83v-.33c0-4.77,3.24-8.22,7.59-8.22s7.53,3.39,7.53,8.19v.33c0,4.77-3.21,8.22-7.56,8.22S1617,213.63,1617,208.83Zm10.92-.06v-.21c0-2.61-1.32-4.59-3.36-4.59s-3.36,1.95-3.36,4.56v.21c0,2.58,1.35,4.59,3.39,4.59S1628,211.38,1628,208.77Z"/><path class="cls-1" d="M1635,200.58h4.26v2.16a4.92,4.92,0,0,1,4.14-2.46c3,0,4.74,2.1,4.74,5.43v10.95h-4.26V207c0-1.89-.84-2.85-2.28-2.85s-2.34,1-2.34,2.85v9.69H1635Z"/><rect class="cls-5" x="72" y="172.03" width="592" height="835.97"/><rect class="cls-5" x="664" y="172.03" width="592" height="835.97"/><rect class="cls-5" x="1255.92" y="172.03" width="592" height="835.97"/><rect class="cls-1" x="233.73" y="477.47" width="268.54" height="297" rx="12.39" ry="12.39"/><path class="cls-3" d="M489.88,479a10.91,10.91,0,0,1,10.89,10.89V762.08A10.9,10.9,0,0,1,489.88,773H246.12a10.9,10.9,0,0,1-10.89-10.89V489.86A10.91,10.91,0,0,1,246.12,479H489.88m0-3H246.12a13.89,13.89,0,0,0-13.89,13.89V762.08A13.89,13.89,0,0,0,246.12,776H489.88a13.89,13.89,0,0,0,13.89-13.89V489.86A13.89,13.89,0,0,0,489.88,476Z"/><path class="cls-3" d="M289.92,716c-2.8-.72-3.49-1.07-3.49-2.13v-.05c0-.79.71-1.41,2.08-1.41a7.6,7.6,0,0,1,4.22,1.6l1.85-2.69a9.38,9.38,0,0,0-6-2.06c-3.32,0-5.68,1.94-5.68,4.89v0c0,3.22,2.11,4.12,5.38,5,2.71.69,3.26,1.16,3.26,2.06v0c0,1-.88,1.53-2.34,1.53a7.47,7.47,0,0,1-4.84-2l-2.11,2.52a10.33,10.33,0,0,0,6.88,2.6c3.5,0,6-1.81,6-5v0C295.07,718,293.21,716.85,289.92,716Z"/><polygon class="cls-3" points="301.08 712.77 306.01 712.77 306.01 725.7 309.58 725.7 309.58 712.77 314.52 712.77 314.52 709.48 301.08 709.48 301.08 712.77"/><path class="cls-3" d="M325.14,709.36l-6.95,16.34h3.63l1.49-3.64h6.86l1.48,3.64h3.73l-6.95-16.34Zm-.56,9.55,2.16-5.26,2.15,5.26Z"/><path class="cls-3" d="M355.83,714.88v0a5.12,5.12,0,0,0-1.39-3.71,6.5,6.5,0,0,0-4.73-1.64H342.3V725.7h3.56v-5.19h2.81l3.47,5.19h4.17l-4-5.8A5,5,0,0,0,355.83,714.88Zm-3.62.18c0,1.37-1,2.3-2.73,2.3h-3.62V712.7h3.55c1.74,0,2.8.79,2.8,2.31Z"/><polygon class="cls-3" points="367.03 709.48 363.46 709.48 363.46 725.7 375.11 725.7 375.11 722.45 367.03 722.45 367.03 709.48"/><rect class="cls-3" x="382.38" y="709.48" width="3.57" height="16.22"/><polygon class="cls-3" points="405.3 719.46 397.7 709.48 394.41 709.48 394.41 725.7 397.93 725.7 397.93 715.39 405.78 725.7 408.82 725.7 408.82 709.48 405.3 709.48 405.3 719.46"/><path class="cls-3" d="M424.82,719.44h3.59v2.32a5.67,5.67,0,0,1-3.36,1,4.86,4.86,0,0,1-4.91-5.14v-.05a4.87,4.87,0,0,1,4.66-5,6,6,0,0,1,4.24,1.65l2.24-2.72a8.92,8.92,0,0,0-6.37-2.22,8.33,8.33,0,0,0-8.5,8.39v0a8.11,8.11,0,0,0,8.52,8.34,10.49,10.49,0,0,0,6.93-2.57v-7h-7Z"/><polygon class="cls-3" points="453.54 709.48 449.48 709.48 446.03 714.74 442.65 709.48 438.48 709.48 443.9 717.45 438.25 725.7 442.3 725.7 445.96 720.14 449.6 725.7 453.77 725.7 448.12 717.4 453.54 709.48"/><polygon class="cls-4" points="363.42 555.19 341.51 525.97 282.23 525.97 333.78 594.71 363.42 555.19"/><path class="cls-4" d="M358.58,627.77l35.91,47.88h59.28l-51.83-69.09C390.56,618.49,374,626.69,358.58,627.77Z"/><path class="cls-3" d="M323,662.86l31.72-42.29h.46c16.39,0,35.61-10.17,46-24.51l32.46-43.27a66.05,66.05,0,0,1,20.12-16.91c-8.73-3.62-22-5.53-22-5.53C426.63,526,414.89,526,414.89,526c-20.41,0-30.1,12.93-30.1,12.93l-44.73,59.65c26.6-.16,31.95-4.27,48.23-25.33l3.4-4.6a18.06,18.06,0,0,1,14.53-7.32l-12.09,16.34c-17.71,22.9-25,28.24-55.81,28.24-1.29,0-2.53,0-3.74,0l-52.35,69.8h12.84C304.86,675.65,316.81,670.45,323,662.86Z"/><rect class="cls-1" x="825.69" y="477.47" width="268.54" height="297" rx="12.39" ry="12.39"/><path class="cls-3" d="M1081.84,479a10.91,10.91,0,0,1,10.89,10.89V762.08A10.9,10.9,0,0,1,1081.84,773H838.08a10.9,10.9,0,0,1-10.89-10.89V489.86A10.9,10.9,0,0,1,838.08,479h243.76m0-3H838.08a13.89,13.89,0,0,0-13.89,13.89V762.08A13.89,13.89,0,0,0,838.08,776h243.76a13.89,13.89,0,0,0,13.89-13.89V489.86A13.89,13.89,0,0,0,1081.84,476Z"/><path class="cls-3" d="M881.88,716c-2.8-.72-3.5-1.07-3.5-2.13v-.05c0-.79.72-1.41,2.09-1.41a7.6,7.6,0,0,1,4.22,1.6l1.85-2.69a9.4,9.4,0,0,0-6-2.06c-3.32,0-5.68,1.94-5.68,4.89v0c0,3.22,2.11,4.12,5.37,5,2.72.69,3.27,1.16,3.27,2.06v0c0,1-.88,1.53-2.34,1.53a7.47,7.47,0,0,1-4.84-2l-2.11,2.52a10.33,10.33,0,0,0,6.88,2.6c3.5,0,6-1.81,6-5v0C887,718,885.17,716.85,881.88,716Z"/><polygon class="cls-3" points="893.04 712.77 897.97 712.77 897.97 725.7 901.54 725.7 901.54 712.77 906.48 712.77 906.48 709.48 893.04 709.48 893.04 712.77"/><path class="cls-3" d="M917.1,709.36l-7,16.34h3.63l1.49-3.64h6.85l1.49,3.64h3.73l-7-16.34Zm-.56,9.55,2.16-5.26,2.15,5.26Z"/><path class="cls-3" d="M947.78,714.88v0a5.08,5.08,0,0,0-1.39-3.71,6.46,6.46,0,0,0-4.72-1.64h-7.42V725.7h3.57v-5.19h2.81l3.47,5.19h4.17l-4-5.8A5,5,0,0,0,947.78,714.88Zm-3.61.18c0,1.37-1,2.3-2.73,2.3h-3.62V712.7h3.55c1.73,0,2.8.79,2.8,2.31Z"/><polygon class="cls-3" points="958.99 709.48 955.42 709.48 955.42 725.7 967.07 725.7 967.07 722.45 958.99 722.45 958.99 709.48"/><rect class="cls-3" x="974.34" y="709.48" width="3.57" height="16.22"/><polygon class="cls-3" points="997.26 719.46 989.66 709.48 986.37 709.48 986.37 725.7 989.89 725.7 989.89 715.39 997.74 725.7 1000.78 725.7 1000.78 709.48 997.26 709.48 997.26 719.46"/><path class="cls-3" d="M1016.78,719.44h3.59v2.32a5.67,5.67,0,0,1-3.36,1,4.86,4.86,0,0,1-4.91-5.14v-.05a4.87,4.87,0,0,1,4.65-5,5.94,5.94,0,0,1,4.24,1.65l2.25-2.72a8.92,8.92,0,0,0-6.37-2.22,8.33,8.33,0,0,0-8.5,8.39v0a8.11,8.11,0,0,0,8.52,8.34,10.49,10.49,0,0,0,6.93-2.57v-7h-7Z"/><polygon class="cls-3" points="1045.49 709.48 1041.44 709.48 1037.99 714.74 1034.61 709.48 1030.44 709.48 1035.86 717.45 1030.2 725.7 1034.26 725.7 1037.92 720.14 1041.56 725.7 1045.73 725.7 1040.08 717.4 1045.49 709.48"/><polygon class="cls-4" points="955.38 555.19 933.47 525.97 874.19 525.97 925.74 594.71 955.38 555.19"/><path class="cls-4" d="M950.54,627.77l35.91,47.88h59.28L993.9,606.56C982.52,618.49,965.94,626.69,950.54,627.77Z"/><path class="cls-3" d="M914.94,662.86l31.72-42.29h.46c16.39,0,35.61-10.17,46-24.51l32.46-43.27a66.05,66.05,0,0,1,20.12-16.91c-8.73-3.62-22-5.53-22-5.53-5.13-4.39-16.87-4.39-16.87-4.39-20.41,0-30.1,12.93-30.1,12.93L932,598.55c26.61-.16,32-4.27,48.23-25.33l3.41-4.6a18.05,18.05,0,0,1,14.53-7.32l-12.1,16.34c-17.7,22.9-25,28.24-55.8,28.24-1.29,0-2.53,0-3.74,0l-52.35,69.8H887C896.82,675.65,908.76,670.45,914.94,662.86Z"/><rect class="cls-1" x="1417.64" y="477.47" width="268.54" height="297" rx="12.39" ry="12.39"/><path class="cls-3" d="M1673.79,479a10.91,10.91,0,0,1,10.89,10.89V762.08A10.9,10.9,0,0,1,1673.79,773H1430a10.9,10.9,0,0,1-10.89-10.89V489.86A10.91,10.91,0,0,1,1430,479h243.76m0-3H1430a13.89,13.89,0,0,0-13.89,13.89V762.08A13.89,13.89,0,0,0,1430,776h243.76a13.89,13.89,0,0,0,13.89-13.89V489.86A13.89,13.89,0,0,0,1673.79,476Z"/><path class="cls-3" d="M1473.84,716c-2.81-.72-3.5-1.07-3.5-2.13v-.05c0-.79.72-1.41,2.08-1.41a7.6,7.6,0,0,1,4.22,1.6l1.85-2.69a9.38,9.38,0,0,0-6-2.06c-3.31,0-5.68,1.94-5.68,4.89v0c0,3.22,2.11,4.12,5.38,5,2.71.69,3.26,1.16,3.26,2.06v0c0,1-.88,1.53-2.34,1.53a7.47,7.47,0,0,1-4.84-2l-2.11,2.52a10.34,10.34,0,0,0,6.89,2.6c3.49,0,6-1.81,6-5v0C1479,718,1477.12,716.85,1473.84,716Z"/><polygon class="cls-3" points="1484.99 712.77 1489.92 712.77 1489.92 725.7 1493.49 725.7 1493.49 712.77 1498.43 712.77 1498.43 709.48 1484.99 709.48 1484.99 712.77"/><path class="cls-3" d="M1509.05,709.36l-7,16.34h3.64l1.48-3.64h6.86l1.48,3.64h3.73l-7-16.34Zm-.56,9.55,2.16-5.26,2.15,5.26Z"/><path class="cls-3" d="M1539.74,714.88v0a5.12,5.12,0,0,0-1.39-3.71,6.5,6.5,0,0,0-4.73-1.64h-7.41V725.7h3.57v-5.19h2.8l3.47,5.19h4.17l-4-5.8A5,5,0,0,0,1539.74,714.88Zm-3.62.18c0,1.37-1,2.3-2.73,2.3h-3.61V712.7h3.54c1.74,0,2.8.79,2.8,2.31Z"/><polygon class="cls-3" points="1550.94 709.48 1547.37 709.48 1547.37 725.7 1559.03 725.7 1559.03 722.45 1550.94 722.45 1550.94 709.48"/><rect class="cls-3" x="1566.29" y="709.48" width="3.57" height="16.22"/><polygon class="cls-3" points="1589.21 719.46 1581.61 709.48 1578.32 709.48 1578.32 725.7 1581.84 725.7 1581.84 715.39 1589.69 725.7 1592.73 725.7 1592.73 709.48 1589.21 709.48 1589.21 719.46"/><path class="cls-3" d="M1608.73,719.44h3.59v2.32a5.67,5.67,0,0,1-3.36,1,4.86,4.86,0,0,1-4.91-5.14v-.05a4.87,4.87,0,0,1,4.66-5,5.94,5.94,0,0,1,4.24,1.65l2.24-2.72a8.92,8.92,0,0,0-6.37-2.22,8.33,8.33,0,0,0-8.5,8.39v0a8.12,8.12,0,0,0,8.53,8.34,10.47,10.47,0,0,0,6.92-2.57v-7h-7Z"/><polygon class="cls-3" points="1637.45 709.48 1633.39 709.48 1629.94 714.74 1626.56 709.48 1622.39 709.48 1627.81 717.45 1622.16 725.7 1626.21 725.7 1629.87 720.14 1633.51 725.7 1637.68 725.7 1632.03 717.4 1637.45 709.48"/><polygon class="cls-4" points="1547.33 555.19 1525.42 525.97 1466.14 525.97 1517.69 594.71 1547.33 555.19"/><path class="cls-4" d="M1542.49,627.77l35.91,47.88h59.28l-51.83-69.09C1574.47,618.49,1557.89,626.69,1542.49,627.77Z"/><path class="cls-3" d="M1506.89,662.86l31.72-42.29h.46c16.39,0,35.62-10.17,46-24.51l32.46-43.27a66.05,66.05,0,0,1,20.12-16.91c-8.73-3.62-22-5.53-22-5.53-5.13-4.39-16.87-4.39-16.87-4.39-20.4,0-30.09,12.93-30.09,12.93L1524,598.55c26.6-.16,32-4.27,48.23-25.33l3.4-4.6a18.06,18.06,0,0,1,14.53-7.32L1578,577.64c-17.71,22.9-25,28.24-55.81,28.24-1.29,0-2.53,0-3.74,0l-52.35,69.8H1479C1488.77,675.65,1500.72,670.45,1506.89,662.86Z"/><rect class="cls-3" x="108" y="280.01" width="242" height="99.38" rx="10" ry="10"/><line class="cls-6" x1="368" y1="775.97" x2="368" y2="872.56"/><line class="cls-6" x1="1551.91" y1="775.97" x2="1551.91" y2="872.56"/><path class="cls-1" d="M204.65,321.23h5.26a5.2,5.2,0,0,1,3.8,1.34,4.43,4.43,0,0,1,1.18,3.24v.08a4.22,4.22,0,0,1-2.6,4.14l3,5.2H212l-2.58-4.6h-1.82v4.6h-2.9Zm5,6.84A2,2,0,0,0,212,326v0c0-1.4-.86-2.1-2.34-2.1h-2.08v4.22Z"/><path class="cls-1" d="M216.37,332.17v-.12c0-2.36,1.54-3.42,3.74-3.42a5.8,5.8,0,0,1,2.24.44v-.32c0-1.24-.74-1.88-2-1.88a6.09,6.09,0,0,0-2.46.6l-.78-2.22a7.67,7.67,0,0,1,3.66-.86,3.87,3.87,0,0,1,4.36,4.34v6.5h-2.78v-1.16a3.3,3.3,0,0,1-2.78,1.36A3.05,3.05,0,0,1,216.37,332.17Zm6-.46v-.9a3.83,3.83,0,0,0-1.58-.34c-1,0-1.7.52-1.7,1.5v0a1.26,1.26,0,0,0,1.38,1.34A1.7,1.7,0,0,0,222.39,331.71Z"/><path class="cls-1" d="M226.91,330v-.32c0-3.66,1.94-5.4,4.08-5.4a3.51,3.51,0,0,1,2.9,1.58v-5.1h2.84v14.44h-2.84v-1.48a3.39,3.39,0,0,1-2.9,1.68C228.87,335.43,226.91,333.69,226.91,330Zm7-.06v-.2c0-1.82-.92-3-2.1-3s-2.08,1.16-2.08,3v.2c0,1.82.9,3,2.08,3S233.93,331.79,233.93,330Z"/><path class="cls-1" d="M239.05,320.79h3v2.58h-3Zm.06,3.72H242v10.72h-2.84Z"/><path class="cls-1" d="M243.93,330v-.22c0-3.18,2.16-5.48,5.06-5.48s5,2.26,5,5.46V330c0,3.18-2.14,5.48-5,5.48S243.93,333.21,243.93,330Zm7.28,0v-.14c0-1.74-.88-3.06-2.24-3.06s-2.24,1.3-2.24,3V330c0,1.72.9,3.06,2.26,3.06S251.21,331.71,251.21,330Z"/><rect class="cls-3" x="386" y="280.01" width="242" height="99.38" rx="10" ry="10"/><path class="cls-1" d="M489.32,321.23h5.26a5.2,5.2,0,0,1,3.8,1.34,4.43,4.43,0,0,1,1.18,3.24v.08A4.22,4.22,0,0,1,497,330l3,5.2h-3.32l-2.58-4.6h-1.82v4.6h-2.9Zm5,6.84a2,2,0,0,0,2.28-2.1v0c0-1.4-.86-2.1-2.34-2.1h-2.08v4.22Z"/><path class="cls-1" d="M501.86,321.23h5.26a5.2,5.2,0,0,1,3.8,1.34,4.43,4.43,0,0,1,1.18,3.24v.08a4.22,4.22,0,0,1-2.6,4.14l3,5.2h-3.32l-2.58-4.6h-1.82v4.6h-2.9Zm5,6.84a2,2,0,0,0,2.28-2.1v0c0-1.4-.86-2.1-2.34-2.1h-2.08v4.22Z"/><path class="cls-1" d="M514.2,329.79v-8.56h2.9v8.58c0,2,.94,3,2.44,3s2.44-1,2.44-2.9v-8.64h2.88v8.5c0,3.86-2.12,5.72-5.36,5.72S514.2,333.57,514.2,329.79Z"/><rect class="cls-3" x="247" y="872.56" width="242" height="99.38" rx="10" ry="10"/><path class="cls-1" d="M328.12,913.78h5.2A5.11,5.11,0,0,1,337,915a3.24,3.24,0,0,1,.94,2.38v.06a3.27,3.27,0,0,1-1.9,3.06,3.33,3.33,0,0,1,2.5,3.34v.1c0,2.52-2,3.84-5.06,3.84h-5.34Zm6.94,4.12c0-1-.72-1.56-2-1.56h-2.16v3.16h2c1.28,0,2.1-.52,2.1-1.58Zm-1.58,4h-2.54v3.28h2.6c1.3,0,2.12-.56,2.12-1.64v0C335.66,922.56,334.92,921.94,333.48,921.94Z"/><path class="cls-1" d="M340.62,913.78h5.2a5.11,5.11,0,0,1,3.66,1.22,3.24,3.24,0,0,1,.94,2.38v.06a3.27,3.27,0,0,1-1.9,3.06,3.33,3.33,0,0,1,2.5,3.34v.1c0,2.52-2,3.84-5.06,3.84h-5.34Zm6.94,4.12c0-1-.72-1.56-2-1.56h-2.16v3.16h2c1.28,0,2.1-.52,2.1-1.58Zm-1.58,4h-2.54v3.28H346c1.3,0,2.12-.56,2.12-1.64v0C348.16,922.56,347.42,921.94,346,921.94Z"/><path class="cls-1" d="M352.94,922.34v-8.56h2.9v8.58c0,2,.94,3,2.44,3s2.44-1,2.44-2.9v-8.64h2.88v8.5c0,3.86-2.12,5.72-5.36,5.72S352.94,926.12,352.94,922.34Z"/><path class="cls-1" d="M370.7,913.78h4.66c3.14,0,5.12,1.82,5.12,4.8v0c0,3.22-2.3,4.84-5.24,4.9H373.6v4.26h-2.9Zm4.52,7.14a2.14,2.14,0,0,0,2.34-2.24v0a2.09,2.09,0,0,0-2.38-2.26H373.6v4.52Z"/><path class="cls-1" d="M381.58,922.56v-.22c0-3.18,2.16-5.48,5.06-5.48s5,2.26,5,5.46v.22c0,3.18-2.14,5.48-5,5.48S381.58,925.76,381.58,922.56Zm7.28,0v-.14c0-1.74-.88-3.06-2.24-3.06s-2.24,1.3-2.24,3v.14c0,1.72.9,3.06,2.26,3.06S388.86,924.26,388.86,922.52Z"/><path class="cls-1" d="M393.12,922.56v-.22c0-3.18,2.16-5.48,5.06-5.48s5,2.26,5,5.46v.22c0,3.18-2.14,5.48-5,5.48S393.12,925.76,393.12,922.56Zm7.28,0v-.14c0-1.74-.88-3.06-2.24-3.06s-2.24,1.3-2.24,3v.14c0,1.72.9,3.06,2.26,3.06S400.4,924.26,400.4,922.52Z"/><path class="cls-1" d="M405.18,913.34H408v14.44h-2.84Z"/><line class="cls-6" x1="959.94" y1="775.97" x2="959.94" y2="872.56"/><rect class="cls-3" x="838.95" y="872.56" width="242" height="99.38" rx="10" ry="10"/><path class="cls-1" d="M878.84,920.88v-.18c0-4.24,2.64-7.12,6.34-7.12a5.88,5.88,0,0,1,4.5,1.86l-1.74,2.24a3.9,3.9,0,0,0-2.86-1.4c-1.88,0-3.26,1.74-3.26,4.46v.06c0,2.78,1.44,4.48,3.3,4.48a3.94,3.94,0,0,0,2.88-1.46l1.74,2.06A6.08,6.08,0,0,1,885,928C881.32,928,878.84,925.16,878.84,920.88Z"/><path class="cls-1" d="M890.74,922.56v-.22c0-3.18,2.16-5.48,5.06-5.48s5,2.26,5,5.46v.22c0,3.18-2.14,5.48-5,5.48S890.74,925.76,890.74,922.56Zm7.28,0v-.14c0-1.74-.88-3.06-2.24-3.06s-2.24,1.3-2.24,3v.14c0,1.72.9,3.06,2.26,3.06S898,924.26,898,922.52Z"/><path class="cls-1" d="M902.7,917.06h2.84v1.44a3.28,3.28,0,0,1,2.76-1.64c2,0,3.16,1.4,3.16,3.62v7.3h-2.84v-6.46c0-1.26-.56-1.9-1.52-1.9s-1.56.64-1.56,1.9v6.46H902.7Z"/><path class="cls-1" d="M913.66,917.06h2.84v1.44a3.28,3.28,0,0,1,2.76-1.64c2,0,3.16,1.4,3.16,3.62v7.3h-2.84v-6.46c0-1.26-.56-1.9-1.52-1.9s-1.56.64-1.56,1.9v6.46h-2.84Z"/><path class="cls-1" d="M924.18,922.54v-.18c0-3.18,2-5.5,4.68-5.5,3.06,0,4.56,2.5,4.56,5.7,0,.16,0,.5,0,.92H927a2.29,2.29,0,0,0,2.32,2.16,3.13,3.13,0,0,0,2.24-1.06L933,926.3A5,5,0,0,1,929.2,928C926.36,928,924.18,925.88,924.18,922.54Zm6.5-.94c-.12-1.48-.76-2.4-1.82-2.4s-1.72.88-1.88,2.4Z"/><path class="cls-1" d="M934.86,922.58v-.24c0-3.18,2.06-5.48,5-5.48a4.59,4.59,0,0,1,3.5,1.44l-1.54,2.06a2.54,2.54,0,0,0-1.92-1c-1.3,0-2.18,1.24-2.18,3v.08c0,1.78.82,3,2.24,3a2.57,2.57,0,0,0,1.94-1l1.5,1.88a4.56,4.56,0,0,1-3.64,1.64C936.88,928,934.86,925.74,934.86,922.58Z"/><path class="cls-1" d="M945.38,925.1v-5.64H944.3v-2.4h1.08v-2.74h2.84v2.74h2.12v2.4h-2.12v5.06c0,.62.28.92.88.92a2.75,2.75,0,0,0,1.22-.3v2.26a4.13,4.13,0,0,1-2.1.56C946.58,928,945.38,927.32,945.38,925.1Z"/><path class="cls-1" d="M951.48,922.54v-.18c0-3.18,2-5.5,4.68-5.5,3.06,0,4.56,2.5,4.56,5.7,0,.16,0,.5,0,.92h-6.4a2.29,2.29,0,0,0,2.32,2.16,3.13,3.13,0,0,0,2.24-1.06l1.46,1.72A5,5,0,0,1,956.5,928C953.66,928,951.48,925.88,951.48,922.54Zm6.5-.94c-.12-1.48-.76-2.4-1.82-2.4s-1.72.88-1.88,2.4Z"/><path class="cls-1" d="M962.2,922.58v-.32c0-3.66,1.94-5.4,4.08-5.4a3.51,3.51,0,0,1,2.9,1.58v-5.1H972v14.44h-2.84V926.3a3.39,3.39,0,0,1-2.9,1.68C964.16,928,962.2,926.24,962.2,922.58Zm7-.06v-.2c0-1.82-.92-3-2.1-3s-2.08,1.16-2.08,3v.2c0,1.82.9,3,2.08,3S969.22,924.34,969.22,922.52Z"/><path class="cls-1" d="M978,913.78h3.14l3,9.64,3-9.64h3.06l-4.72,14.08H982.7Z"/><path class="cls-1" d="M990,922.54v-.18c0-3.18,2-5.5,4.68-5.5,3.06,0,4.56,2.5,4.56,5.7,0,.16,0,.5,0,.92h-6.4a2.29,2.29,0,0,0,2.32,2.16,3.13,3.13,0,0,0,2.24-1.06l1.46,1.72A5,5,0,0,1,995,928C992.2,928,990,925.88,990,922.54Zm6.5-.94c-.12-1.48-.76-2.4-1.82-2.4s-1.72.88-1.88,2.4Z"/><path class="cls-1" d="M1001.12,913.34H1004v5.16a3.28,3.28,0,0,1,2.76-1.64c2,0,3.16,1.4,3.16,3.62v7.3H1007v-6.46c0-1.26-.56-1.9-1.52-1.9s-1.56.64-1.56,1.9v6.46h-2.84Z"/><path class="cls-1" d="M1012.12,913.34h3v2.58h-3Zm.06,3.72H1015v10.72h-2.84Z"/><path class="cls-1" d="M1017,922.58v-.24c0-3.18,2.06-5.48,5-5.48a4.59,4.59,0,0,1,3.5,1.44l-1.54,2.06a2.54,2.54,0,0,0-1.92-1c-1.3,0-2.18,1.24-2.18,3v.08c0,1.78.82,3,2.24,3a2.57,2.57,0,0,0,1.94-1l1.5,1.88a4.56,4.56,0,0,1-3.64,1.64C1019,928,1017,925.74,1017,922.58Z"/><path class="cls-1" d="M1027.2,913.34H1030v14.44h-2.84Z"/><path class="cls-1" d="M1032,922.54v-.18c0-3.18,2-5.5,4.68-5.5,3.06,0,4.56,2.5,4.56,5.7,0,.16,0,.5,0,.92h-6.4a2.29,2.29,0,0,0,2.32,2.16,3.13,3.13,0,0,0,2.24-1.06l1.46,1.72A5,5,0,0,1,1037,928C1034.18,928,1032,925.88,1032,922.54Zm6.5-.94c-.12-1.48-.76-2.4-1.82-2.4s-1.72.88-1.88,2.4Z"/><rect class="cls-3" x="700" y="280.01" width="242" height="99.38" rx="10" ry="10"/><path class="cls-1" d="M758.65,321.23h3.14l3,9.64,3-9.64h3.06l-4.72,14.08h-2.68Z"/><path class="cls-1" d="M772,320.79h3v2.58h-3Zm.06,3.72h2.84v10.72h-2.84Z"/><path class="cls-1" d="M777.31,324.51h2.84v1.9a2.81,2.81,0,0,1,2.9-2.08v3.08h-.12c-1.74,0-2.78,1.08-2.78,3.32v4.5h-2.84Z"/><path class="cls-1" d="M785.09,332.55v-5.64H784v-2.4h1.08v-2.74h2.84v2.74h2.12v2.4h-2.12V332c0,.62.28.92.88.92a2.75,2.75,0,0,0,1.22-.3v2.26a4.13,4.13,0,0,1-2.1.56C786.29,335.41,785.09,334.77,785.09,332.55Z"/><path class="cls-1" d="M791.85,331.81v-7.3h2.82V331c0,1.26.56,1.9,1.52,1.9s1.56-.64,1.56-1.9v-6.46h2.84v10.72h-2.84v-1.44a3.24,3.24,0,0,1-2.74,1.64C793,335.43,791.85,334,791.85,331.81Z"/><path class="cls-1" d="M802.31,332.17v-.12c0-2.36,1.54-3.42,3.74-3.42a5.8,5.8,0,0,1,2.24.44v-.32c0-1.24-.74-1.88-2-1.88a6.09,6.09,0,0,0-2.46.6l-.78-2.22a7.67,7.67,0,0,1,3.66-.86,3.87,3.87,0,0,1,4.36,4.34v6.5h-2.78v-1.16a3.3,3.3,0,0,1-2.78,1.36A3.05,3.05,0,0,1,802.31,332.17Zm6-.46v-.9a3.83,3.83,0,0,0-1.58-.34c-1,0-1.7.52-1.7,1.5v0a1.26,1.26,0,0,0,1.38,1.34A1.7,1.7,0,0,0,808.33,331.71Z"/><path class="cls-1" d="M813.33,320.79h2.84v14.44h-2.84Z"/><path class="cls-1" d="M823.31,321.23h5.26a5.2,5.2,0,0,1,3.8,1.34,4.43,4.43,0,0,1,1.18,3.24v.08A4.22,4.22,0,0,1,831,330l3,5.2h-3.32l-2.58-4.6h-1.82v4.6h-2.9Zm5,6.84a2,2,0,0,0,2.28-2.1v0c0-1.4-.86-2.1-2.34-2.1h-2.08v4.22Z"/><path class="cls-1" d="M835,330v-.18c0-3.18,2-5.5,4.68-5.5,3.06,0,4.56,2.5,4.56,5.7,0,.16,0,.5,0,.92h-6.4a2.29,2.29,0,0,0,2.32,2.16,3.13,3.13,0,0,0,2.24-1.06l1.46,1.72a5,5,0,0,1-3.82,1.72C837.13,335.47,835,333.33,835,330Zm6.5-.94c-.12-1.48-.76-2.4-1.82-2.4s-1.72.88-1.88,2.4Z"/><path class="cls-1" d="M845.49,332.17v-.12c0-2.36,1.54-3.42,3.74-3.42a5.8,5.8,0,0,1,2.24.44v-.32c0-1.24-.74-1.88-2-1.88a6.09,6.09,0,0,0-2.46.6l-.78-2.22a7.67,7.67,0,0,1,3.66-.86,3.87,3.87,0,0,1,4.36,4.34v6.5h-2.78v-1.16a3.3,3.3,0,0,1-2.78,1.36A3.05,3.05,0,0,1,845.49,332.17Zm6-.46v-.9a3.83,3.83,0,0,0-1.58-.34c-1,0-1.7.52-1.7,1.5v0a1.26,1.26,0,0,0,1.38,1.34A1.7,1.7,0,0,0,851.51,331.71Z"/><path class="cls-1" d="M856.51,320.79h2.84v14.44h-2.84Z"/><path class="cls-1" d="M861.79,320.79h3v2.58h-3Zm.06,3.72h2.84v10.72h-2.84Z"/><path class="cls-1" d="M867.53,332.55v-5.64h-1.08v-2.4h1.08v-2.74h2.84v2.74h2.12v2.4h-2.12V332c0,.62.28.92.88.92a2.75,2.75,0,0,0,1.22-.3v2.26a4.13,4.13,0,0,1-2.1.56C868.73,335.41,867.53,334.77,867.53,332.55Z"/><path class="cls-1" d="M880.43,324.51h2.88l-3.52,10.86c-.72,2.14-1.54,3-3.22,3a4.52,4.52,0,0,1-2.3-.64l.78-2.12a2.46,2.46,0,0,0,1.16.36.88.88,0,0,0,.92-.68l-3.64-10.74h3l2,7.1Z"/><rect class="cls-3" x="978" y="280.01" width="242" height="99.38" rx="10" ry="10"/><path class="cls-1" d="M1019.38,321.15h2.76l5,14.08h-3l-1-3h-4.82l-1,3h-2.92Zm2.86,8.48-1.52-4.56-1.54,4.56Z"/><path class="cls-1" d="M1028.44,331.81v-7.3h2.82V331c0,1.26.56,1.9,1.52,1.9s1.56-.64,1.56-1.9v-6.46h2.84v10.72h-2.84v-1.44a3.24,3.24,0,0,1-2.74,1.64C1029.58,335.43,1028.44,334,1028.44,331.81Z"/><path class="cls-1" d="M1039.52,337.39l.88-2.2a6.29,6.29,0,0,0,3,.78c1.78,0,2.64-.82,2.64-2.54v-.68a3.58,3.58,0,0,1-3,1.68c-2.12,0-4-1.66-4-5v-.06c0-3.38,1.9-5,4-5a3.62,3.62,0,0,1,3,1.58v-1.38h2.84v8.76a5.13,5.13,0,0,1-1.22,3.74,5.62,5.62,0,0,1-4.08,1.28A9.46,9.46,0,0,1,1039.52,337.39Zm6.58-8v0c0-1.58-.9-2.6-2.1-2.6s-2.08,1-2.08,2.6v0c0,1.62.88,2.62,2.08,2.62S1046.1,331,1046.1,329.37Z"/><path class="cls-1" d="M1051.18,324.51H1054V326a3.28,3.28,0,0,1,2.78-1.64,2.83,2.83,0,0,1,2.64,1.56,3.83,3.83,0,0,1,3-1.56c1.9,0,3.18,1.24,3.18,3.6v7.32h-2.82v-6.46c0-1.24-.54-1.9-1.48-1.9s-1.52.66-1.52,1.9v6.46H1057v-6.46c0-1.24-.52-1.9-1.46-1.9s-1.52.66-1.52,1.9v6.46h-2.84Z"/><path class="cls-1" d="M1067.46,330v-.18c0-3.18,2-5.5,4.68-5.5,3.06,0,4.56,2.5,4.56,5.7,0,.16,0,.5,0,.92h-6.4a2.29,2.29,0,0,0,2.32,2.16,3.13,3.13,0,0,0,2.24-1.06l1.46,1.72a5,5,0,0,1-3.82,1.72C1069.64,335.47,1067.46,333.33,1067.46,330Zm6.5-.94c-.12-1.48-.76-2.4-1.82-2.4s-1.72.88-1.88,2.4Z"/><path class="cls-1" d="M1078.56,324.51h2.84V326a3.28,3.28,0,0,1,2.76-1.64c2,0,3.16,1.4,3.16,3.62v7.3h-2.84v-6.46c0-1.26-.56-1.9-1.52-1.9s-1.56.64-1.56,1.9v6.46h-2.84Z"/><path class="cls-1" d="M1089.94,332.55v-5.64h-1.08v-2.4h1.08v-2.74h2.84v2.74h2.12v2.4h-2.12V332c0,.62.28.92.88.92a2.75,2.75,0,0,0,1.22-.3v2.26a4.13,4.13,0,0,1-2.1.56C1091.14,335.41,1089.94,334.77,1089.94,332.55Z"/><path class="cls-1" d="M1096,330v-.18c0-3.18,2-5.5,4.68-5.5,3.06,0,4.56,2.5,4.56,5.7,0,.16,0,.5,0,.92h-6.4a2.29,2.29,0,0,0,2.32,2.16,3.13,3.13,0,0,0,2.24-1.06l1.46,1.72a5,5,0,0,1-3.82,1.72C1098.22,335.47,1096,333.33,1096,330Zm6.5-.94c-.12-1.48-.76-2.4-1.82-2.4s-1.72.88-1.88,2.4Z"/><path class="cls-1" d="M1106.76,330v-.32c0-3.66,1.94-5.4,4.08-5.4a3.51,3.51,0,0,1,2.9,1.58v-5.1h2.84v14.44h-2.84v-1.48a3.39,3.39,0,0,1-2.9,1.68C1108.72,335.43,1106.76,333.69,1106.76,330Zm7-.06v-.2c0-1.82-.92-3-2.1-3s-2.08,1.16-2.08,3v.2c0,1.82.9,3,2.08,3S1113.78,331.79,1113.78,330Z"/><path class="cls-1" d="M1123.6,321.23h5.26a5.2,5.2,0,0,1,3.8,1.34,4.43,4.43,0,0,1,1.18,3.24v.08a4.22,4.22,0,0,1-2.6,4.14l3,5.2h-3.32l-2.58-4.6h-1.82v4.6h-2.9Zm5,6.84a2,2,0,0,0,2.28-2.1v0c0-1.4-.86-2.1-2.34-2.1h-2.08v4.22Z"/><path class="cls-1" d="M1135.24,330v-.18c0-3.18,2-5.5,4.68-5.5,3.06,0,4.56,2.5,4.56,5.7,0,.16,0,.5,0,.92h-6.4a2.29,2.29,0,0,0,2.32,2.16,3.13,3.13,0,0,0,2.24-1.06l1.46,1.72a5,5,0,0,1-3.82,1.72C1137.42,335.47,1135.24,333.33,1135.24,330Zm6.5-.94c-.12-1.48-.76-2.4-1.82-2.4s-1.72.88-1.88,2.4Z"/><path class="cls-1" d="M1145.78,332.17v-.12c0-2.36,1.54-3.42,3.74-3.42a5.8,5.8,0,0,1,2.24.44v-.32c0-1.24-.74-1.88-2-1.88a6.09,6.09,0,0,0-2.46.6l-.78-2.22a7.67,7.67,0,0,1,3.66-.86,3.87,3.87,0,0,1,4.36,4.34v6.5h-2.78v-1.16a3.3,3.3,0,0,1-2.78,1.36A3.05,3.05,0,0,1,1145.78,332.17Zm6-.46v-.9a3.83,3.83,0,0,0-1.58-.34c-1,0-1.7.52-1.7,1.5v0a1.26,1.26,0,0,0,1.38,1.34A1.7,1.7,0,0,0,1151.8,331.71Z"/><path class="cls-1" d="M1156.8,320.79h2.84v14.44h-2.84Z"/><path class="cls-1" d="M1162.08,320.79h3v2.58h-3Zm.06,3.72H1165v10.72h-2.84Z"/><path class="cls-1" d="M1167.82,332.55v-5.64h-1.08v-2.4h1.08v-2.74h2.84v2.74h2.12v2.4h-2.12V332c0,.62.28.92.88.92a2.75,2.75,0,0,0,1.22-.3v2.26a4.13,4.13,0,0,1-2.1.56C1169,335.41,1167.82,334.77,1167.82,332.55Z"/><path class="cls-1" d="M1180.72,324.51h2.88l-3.52,10.86c-.72,2.14-1.54,3-3.22,3a4.52,4.52,0,0,1-2.3-.64l.78-2.12a2.46,2.46,0,0,0,1.16.36.88.88,0,0,0,.92-.68l-3.64-10.74h3l2,7.1Z"/><line class="cls-6" x1="419.74" y1="476.13" x2="496.05" y2="374.38"/><line class="cls-6" x1="316.93" y1="475.97" x2="240.74" y2="374.38"/><rect class="cls-3" x="1291.91" y="280.01" width="242" height="99.38" rx="10" ry="10"/><path class="cls-1" d="M1340.73,310.23H1346a5.2,5.2,0,0,1,3.8,1.34,4.43,4.43,0,0,1,1.18,3.24v.08a4.22,4.22,0,0,1-2.6,4.14l3,5.2H1348l-2.58-4.6h-1.82v4.6h-2.9Zm5,6.84a2,2,0,0,0,2.28-2.1v0c0-1.4-.86-2.1-2.34-2.1h-2.08v4.22Z"/><path class="cls-1" d="M1352.45,321.17v-.12c0-2.36,1.54-3.42,3.74-3.42a5.8,5.8,0,0,1,2.24.44v-.32c0-1.24-.74-1.88-2-1.88a6.09,6.09,0,0,0-2.46.6l-.78-2.22a7.67,7.67,0,0,1,3.66-.86,3.87,3.87,0,0,1,4.36,4.34v6.5h-2.78v-1.16a3.3,3.3,0,0,1-2.78,1.36A3.05,3.05,0,0,1,1352.45,321.17Zm6-.46v-.9a3.83,3.83,0,0,0-1.58-.34c-1,0-1.7.52-1.7,1.5v0a1.26,1.26,0,0,0,1.38,1.34A1.7,1.7,0,0,0,1358.47,320.71Z"/><path class="cls-1" d="M1363.41,309.79h3v2.58h-3Zm.06,3.72h2.84v10.72h-2.84Z"/><path class="cls-1" d="M1368.81,309.79h2.84v14.44h-2.84Z"/><path class="cls-1" d="M1380,308.45h2.4l-7.52,18.17h-2.4Z"/><path class="cls-1" d="M1383.59,310.23h2.9v11.34h5.66v2.66h-8.56Z"/><path class="cls-1" d="M1393.21,319v-.22c0-3.18,2.16-5.48,5.06-5.48s5,2.26,5,5.46V319c0,3.18-2.14,5.48-5,5.48S1393.21,322.21,1393.21,319Zm7.28,0v-.14c0-1.74-.88-3.06-2.24-3.06s-2.24,1.3-2.24,3V319c0,1.72.9,3.06,2.26,3.06S1400.49,320.71,1400.49,319Z"/><path class="cls-1" d="M1404.75,319v-.24c0-3.18,2.06-5.48,5-5.48a4.59,4.59,0,0,1,3.5,1.44l-1.54,2.06a2.54,2.54,0,0,0-1.92-1c-1.3,0-2.18,1.24-2.18,3v.08c0,1.78.82,3,2.24,3a2.57,2.57,0,0,0,1.94-1l1.5,1.88a4.56,4.56,0,0,1-3.64,1.64C1406.77,324.47,1404.75,322.19,1404.75,319Z"/><path class="cls-1" d="M1414.15,319v-.22c0-3.18,2.16-5.48,5.06-5.48s5,2.26,5,5.46V319c0,3.18-2.14,5.48-5,5.48S1414.15,322.21,1414.15,319Zm7.28,0v-.14c0-1.74-.88-3.06-2.24-3.06s-2.24,1.3-2.24,3V319c0,1.72.9,3.06,2.26,3.06S1421.43,320.71,1421.43,319Z"/><path class="cls-1" d="M1426.11,313.51H1429V315a3.28,3.28,0,0,1,2.78-1.64,2.83,2.83,0,0,1,2.64,1.56,3.83,3.83,0,0,1,3-1.56c1.9,0,3.18,1.24,3.18,3.6v7.32h-2.82v-6.46c0-1.24-.54-1.9-1.48-1.9s-1.52.66-1.52,1.9v6.46h-2.84v-6.46c0-1.24-.52-1.9-1.46-1.9s-1.52.66-1.52,1.9v6.46h-2.84Z"/><path class="cls-1" d="M1442.41,319v-.22c0-3.18,2.16-5.48,5.06-5.48s5,2.26,5,5.46V319c0,3.18-2.14,5.48-5,5.48S1442.41,322.21,1442.41,319Zm7.28,0v-.14c0-1.74-.88-3.06-2.24-3.06s-2.24,1.3-2.24,3V319c0,1.72.9,3.06,2.26,3.06S1449.69,320.71,1449.69,319Z"/><path class="cls-1" d="M1454.81,321.55v-5.64h-1.08v-2.4h1.08v-2.74h2.84v2.74h2.12v2.4h-2.12V321c0,.62.28.92.88.92a2.75,2.75,0,0,0,1.22-.3v2.26a4.13,4.13,0,0,1-2.1.56C1456,324.41,1454.81,323.77,1454.81,321.55Z"/><path class="cls-1" d="M1461.67,309.79h3v2.58h-3Zm.06,3.72h2.84v10.72h-2.84Z"/><path class="cls-1" d="M1466.17,313.51h3l2,7.12,2-7.12H1476l-3.6,10.8h-2.64Z"/><path class="cls-1" d="M1476.53,319v-.18c0-3.18,2-5.5,4.68-5.5,3.06,0,4.56,2.5,4.56,5.7,0,.16,0,.5,0,.92h-6.4a2.29,2.29,0,0,0,2.32,2.16,3.13,3.13,0,0,0,2.24-1.06l1.46,1.72a5,5,0,0,1-3.82,1.72C1478.71,324.47,1476.53,322.33,1476.53,319Zm6.5-.94c-.12-1.48-.76-2.4-1.82-2.4s-1.72.88-1.88,2.4Z"/><path class="cls-1" d="M1362.21,334.23h3l3.12,5.68,3.08-5.68h3.06v14h-2.84v-8.94l-3.3,5.78h-.06l-3.28-5.74v8.9h-2.82Z"/><path class="cls-1" d="M1376.49,345.17v-.12c0-2.36,1.54-3.42,3.74-3.42a5.8,5.8,0,0,1,2.24.44v-.32c0-1.24-.74-1.88-2-1.88a6.09,6.09,0,0,0-2.46.6l-.78-2.22a7.67,7.67,0,0,1,3.66-.86,3.87,3.87,0,0,1,4.36,4.34v6.5h-2.78v-1.16a3.3,3.3,0,0,1-2.78,1.36A3.05,3.05,0,0,1,1376.49,345.17Zm6-.46v-.9a3.83,3.83,0,0,0-1.58-.34c-1,0-1.7.52-1.7,1.5v0a1.26,1.26,0,0,0,1.38,1.34A1.7,1.7,0,0,0,1382.51,344.71Z"/><path class="cls-1" d="M1386.59,347l1.24-2a5,5,0,0,0,2.86,1.2c.8,0,1.14-.38,1.14-.82v0c0-.62-.8-.88-2-1.38-1.52-.66-2.82-1.42-2.82-3.24v0c0-2.06,1.6-3.28,3.68-3.28a6.33,6.33,0,0,1,3.54,1.16l-1.14,2a4.87,4.87,0,0,0-2.44-.92c-.68,0-1,.34-1,.76v0c0,.56.8.88,1.94,1.4,1.56.74,2.84,1.52,2.84,3.22v0c0,2.22-1.64,3.34-3.78,3.34A6.49,6.49,0,0,1,1386.59,347Z"/><path class="cls-1" d="M1395.21,347l1.24-2a5,5,0,0,0,2.86,1.2c.8,0,1.14-.38,1.14-.82v0c0-.62-.8-.88-2-1.38-1.52-.66-2.82-1.42-2.82-3.24v0c0-2.06,1.6-3.28,3.68-3.28a6.33,6.33,0,0,1,3.54,1.16l-1.14,2a4.87,4.87,0,0,0-2.44-.92c-.68,0-1,.34-1,.76v0c0,.56.8.88,1.94,1.4,1.56.74,2.84,1.52,2.84,3.22v0c0,2.22-1.64,3.34-3.78,3.34A6.49,6.49,0,0,1,1395.21,347Z"/><path class="cls-1" d="M1409.71,345.55v-5.64h-1.08v-2.4h1.08v-2.74h2.84v2.74h2.12v2.4h-2.12V345c0,.62.28.92.88.92a2.75,2.75,0,0,0,1.22-.3v2.26a4.13,4.13,0,0,1-2.1.56C1410.91,348.41,1409.71,347.77,1409.71,345.55Z"/><path class="cls-1" d="M1416.53,337.51h2.84v1.9a2.81,2.81,0,0,1,2.9-2.08v3.08h-.12c-1.74,0-2.78,1.08-2.78,3.32v4.5h-2.84Z"/><path class="cls-1" d="M1422.91,345.17v-.12c0-2.36,1.54-3.42,3.74-3.42a5.8,5.8,0,0,1,2.24.44v-.32c0-1.24-.74-1.88-2-1.88a6.09,6.09,0,0,0-2.46.6l-.78-2.22a7.67,7.67,0,0,1,3.66-.86,3.87,3.87,0,0,1,4.36,4.34v6.5h-2.78v-1.16a3.3,3.3,0,0,1-2.78,1.36A3.05,3.05,0,0,1,1422.91,345.17Zm6-.46v-.9a3.83,3.83,0,0,0-1.58-.34c-1,0-1.7.52-1.7,1.5v0a1.26,1.26,0,0,0,1.38,1.34A1.7,1.7,0,0,0,1428.93,344.71Z"/><path class="cls-1" d="M1433.83,337.51h2.84V339a3.28,3.28,0,0,1,2.76-1.64c2,0,3.16,1.4,3.16,3.62v7.3h-2.84v-6.46c0-1.26-.56-1.9-1.52-1.9s-1.56.64-1.56,1.9v6.46h-2.84Z"/><path class="cls-1" d="M1444,347l1.24-2a5,5,0,0,0,2.86,1.2c.8,0,1.14-.38,1.14-.82v0c0-.62-.8-.88-2-1.38-1.52-.66-2.82-1.42-2.82-3.24v0c0-2.06,1.6-3.28,3.68-3.28a6.33,6.33,0,0,1,3.54,1.16l-1.14,2a4.87,4.87,0,0,0-2.44-.92c-.68,0-1,.34-1,.76v0c0,.56.8.88,1.94,1.4,1.56.74,2.84,1.52,2.84,3.22v0c0,2.22-1.64,3.34-3.78,3.34A6.49,6.49,0,0,1,1444,347Z"/><path class="cls-1" d="M1453.59,333.79h3v2.58h-3Zm.06,3.72h2.84v10.72h-2.84Z"/><path class="cls-1" d="M1459.33,345.55v-5.64h-1.08v-2.4h1.08v-2.74h2.84v2.74h2.12v2.4h-2.12V345c0,.62.28.92.88.92a2.75,2.75,0,0,0,1.22-.3v2.26a4.13,4.13,0,0,1-2.1.56C1460.53,348.41,1459.33,347.77,1459.33,345.55Z"/><rect class="cls-3" x="1569.91" y="280.01" width="242" height="99.38" rx="10" ry="10"/><path class="cls-1" d="M1639.62,310.15h2.76l5,14.08h-3l-1-3h-4.82l-1,3h-2.92Zm2.86,8.48-1.52-4.56-1.54,4.56Z"/><path class="cls-1" d="M1648.68,320.81v-7.3h2.82V320c0,1.26.56,1.9,1.52,1.9s1.56-.64,1.56-1.9v-6.46h2.84v10.72h-2.84v-1.44a3.24,3.24,0,0,1-2.74,1.64C1649.82,324.43,1648.68,323,1648.68,320.81Z"/><path class="cls-1" d="M1660.14,321.55v-5.64h-1.08v-2.4h1.08v-2.74H1663v2.74h2.12v2.4H1663V321c0,.62.28.92.88.92a2.75,2.75,0,0,0,1.22-.3v2.26a4.13,4.13,0,0,1-2.1.56C1661.34,324.41,1660.14,323.77,1660.14,321.55Z"/><path class="cls-1" d="M1666.26,319v-.22c0-3.18,2.16-5.48,5.06-5.48s5,2.26,5,5.46V319c0,3.18-2.14,5.48-5,5.48S1666.26,322.21,1666.26,319Zm7.28,0v-.14c0-1.74-.88-3.06-2.24-3.06s-2.24,1.3-2.24,3V319c0,1.72.9,3.06,2.26,3.06S1673.54,320.71,1673.54,319Z"/><path class="cls-1" d="M1678.22,313.51h2.84V315a3.28,3.28,0,0,1,2.76-1.64c2,0,3.16,1.4,3.16,3.62v7.3h-2.84v-6.46c0-1.26-.56-1.9-1.52-1.9s-1.56.64-1.56,1.9v6.46h-2.84Z"/><path class="cls-1" d="M1688.76,319v-.22c0-3.18,2.16-5.48,5.06-5.48s5,2.26,5,5.46V319c0,3.18-2.14,5.48-5,5.48S1688.76,322.21,1688.76,319Zm7.28,0v-.14c0-1.74-.88-3.06-2.24-3.06s-2.24,1.3-2.24,3V319c0,1.72.9,3.06,2.26,3.06S1696,320.71,1696,319Z"/><path class="cls-1" d="M1700.72,313.51h2.84V315a3.28,3.28,0,0,1,2.78-1.64,2.83,2.83,0,0,1,2.64,1.56,3.83,3.83,0,0,1,3-1.56c1.9,0,3.18,1.24,3.18,3.6v7.32h-2.82v-6.46c0-1.24-.54-1.9-1.48-1.9s-1.52.66-1.52,1.9v6.46h-2.84v-6.46c0-1.24-.52-1.9-1.46-1.9s-1.52.66-1.52,1.9v6.46h-2.84Z"/><path class="cls-1" d="M1717,319v-.22c0-3.18,2.16-5.48,5.06-5.48s5,2.26,5,5.46V319c0,3.18-2.14,5.48-5,5.48S1717,322.21,1717,319Zm7.28,0v-.14c0-1.74-.88-3.06-2.24-3.06s-2.24,1.3-2.24,3V319c0,1.72.9,3.06,2.26,3.06S1724.3,320.71,1724.3,319Z"/><path class="cls-1" d="M1728.92,320.81v-7.3h2.82V320c0,1.26.56,1.9,1.52,1.9s1.56-.64,1.56-1.9v-6.46h2.84v10.72h-2.84v-1.44a3.24,3.24,0,0,1-2.74,1.64C1730.06,324.43,1728.92,323,1728.92,320.81Z"/><path class="cls-1" d="M1739.12,323l1.24-2a5,5,0,0,0,2.86,1.2c.8,0,1.14-.38,1.14-.82v0c0-.62-.8-.88-2-1.38-1.52-.66-2.82-1.42-2.82-3.24v0c0-2.06,1.6-3.28,3.68-3.28a6.33,6.33,0,0,1,3.54,1.16l-1.14,2a4.87,4.87,0,0,0-2.44-.92c-.68,0-1,.34-1,.76v0c0,.56.8.88,1.94,1.4,1.56.74,2.84,1.52,2.84,3.22v0c0,2.22-1.64,3.34-3.78,3.34A6.49,6.49,0,0,1,1739.12,323Z"/><path class="cls-1" d="M1651.91,346.35l1.72-2.14a5.37,5.37,0,0,0,3.48,1.58c1.12,0,1.8-.56,1.8-1.38v0c0-.7-.4-1.14-2.4-1.9-2.48-1-4-1.9-4-4.3v0c0-2.44,1.88-4.1,4.58-4.1a6.66,6.66,0,0,1,4.52,1.72L1660,338a4.9,4.9,0,0,0-3-1.3c-1,0-1.62.5-1.62,1.22v0c0,.8.48,1.18,2.66,2.08,2.44,1,3.76,2,3.76,4.18v0c0,2.6-2,4.2-4.7,4.2A7.52,7.52,0,0,1,1651.91,346.35Z"/><path class="cls-1" d="M1663.67,333.79h2.84V339a3.28,3.28,0,0,1,2.76-1.64c2,0,3.16,1.4,3.16,3.62v7.3h-2.84v-6.46c0-1.26-.56-1.9-1.52-1.9s-1.56.64-1.56,1.9v6.46h-2.84Z"/><path class="cls-1" d="M1674.67,333.79h3v2.58h-3Zm.06,3.72h2.84v10.72h-2.84Z"/><path class="cls-1" d="M1680,337.51h2.84V339a3.39,3.39,0,0,1,2.9-1.68c2.12,0,4.08,1.74,4.08,5.4V343c0,3.66-1.94,5.4-4.08,5.4a3.48,3.48,0,0,1-2.9-1.58v4.4H1680Zm7,5.46v-.2c0-1.82-.9-3-2.08-3s-2.1,1.16-2.1,3v.2c0,1.82.92,3,2.1,3S1687,344.79,1687,343Z"/><path class="cls-1" d="M1691.69,337.51h2.84V339a3.39,3.39,0,0,1,2.9-1.68c2.12,0,4.08,1.74,4.08,5.4V343c0,3.66-1.94,5.4-4.08,5.4a3.48,3.48,0,0,1-2.9-1.58v4.4h-2.84Zm7,5.46v-.2c0-1.82-.9-3-2.08-3s-2.1,1.16-2.1,3v.2c0,1.82.92,3,2.1,3S1698.67,344.79,1698.67,343Z"/><path class="cls-1" d="M1703.45,333.79h3v2.58h-3Zm.06,3.72h2.84v10.72h-2.84Z"/><path class="cls-1" d="M1708.75,337.51h2.84V339a3.28,3.28,0,0,1,2.76-1.64c2,0,3.16,1.4,3.16,3.62v7.3h-2.84v-6.46c0-1.26-.56-1.9-1.52-1.9s-1.56.64-1.56,1.9v6.46h-2.84Z"/><path class="cls-1" d="M1719.77,350.39l.88-2.2a6.29,6.29,0,0,0,3,.78c1.78,0,2.64-.82,2.64-2.54v-.68a3.58,3.58,0,0,1-3,1.68c-2.12,0-4-1.66-4-5v-.06c0-3.38,1.9-5,4-5a3.62,3.62,0,0,1,3,1.58v-1.38h2.84v8.76a5.13,5.13,0,0,1-1.22,3.74,5.62,5.62,0,0,1-4.08,1.28A9.46,9.46,0,0,1,1719.77,350.39Zm6.58-8v0c0-1.58-.9-2.6-2.1-2.6s-2.08,1-2.08,2.6v0c0,1.62.88,2.62,2.08,2.62S1726.35,344,1726.35,342.37Z"/><rect class="cls-3" x="1430.91" y="872.56" width="242" height="99.38" rx="10" ry="10"/><line class="cls-6" x1="1602.52" y1="477.65" x2="1679.97" y2="374.38"/><line class="cls-6" x1="1502.1" y1="477.65" x2="1424.65" y2="374.38"/><line class="cls-6" x1="1010.65" y1="477.6" x2="1088.05" y2="374.38"/><line class="cls-6" x1="910.15" y1="477.6" x2="832.74" y2="374.38"/><path class="cls-1" d="M1506.07,914.9l1.72-2.14a5.37,5.37,0,0,0,3.48,1.58c1.12,0,1.8-.56,1.8-1.38v0c0-.7-.4-1.14-2.4-1.9-2.48-1-4-1.9-4-4.3v0c0-2.44,1.88-4.1,4.58-4.1a6.66,6.66,0,0,1,4.52,1.72l-1.62,2.2a4.9,4.9,0,0,0-3-1.3c-1,0-1.62.5-1.62,1.22v0c0,.8.48,1.18,2.66,2.08,2.44,1,3.76,2,3.76,4.18v0c0,2.6-2,4.2-4.7,4.2A7.52,7.52,0,0,1,1506.07,914.9Z"/><path class="cls-1" d="M1517.83,906.06h2.84v1.44a3.28,3.28,0,0,1,2.78-1.64,2.83,2.83,0,0,1,2.64,1.56,3.83,3.83,0,0,1,3-1.56c1.9,0,3.18,1.24,3.18,3.6v7.32h-2.82v-6.46c0-1.24-.54-1.9-1.48-1.9s-1.52.66-1.52,1.9v6.46h-2.84v-6.46c0-1.24-.52-1.9-1.46-1.9s-1.52.66-1.52,1.9v6.46h-2.84Z"/><path class="cls-1" d="M1534,913.72v-.12c0-2.36,1.54-3.42,3.74-3.42a5.8,5.8,0,0,1,2.24.44v-.32c0-1.24-.74-1.88-2-1.88a6.09,6.09,0,0,0-2.46.6l-.78-2.22a7.67,7.67,0,0,1,3.66-.86,3.87,3.87,0,0,1,4.36,4.34v6.5H1540v-1.16a3.3,3.3,0,0,1-2.78,1.36A3.05,3.05,0,0,1,1534,913.72Zm6-.46v-.9a3.83,3.83,0,0,0-1.58-.34c-1,0-1.7.52-1.7,1.5v0a1.26,1.26,0,0,0,1.38,1.34A1.7,1.7,0,0,0,1540,913.26Z"/><path class="cls-1" d="M1544.91,906.06h2.84V908a2.81,2.81,0,0,1,2.9-2.08V909h-.12c-1.74,0-2.78,1.08-2.78,3.32v4.5h-2.84Z"/><path class="cls-1" d="M1552.69,914.1v-5.64h-1.08v-2.4h1.08v-2.74h2.84v2.74h2.12v2.4h-2.12v5.06c0,.62.28.92.88.92a2.75,2.75,0,0,0,1.22-.3v2.26a4.13,4.13,0,0,1-2.1.56C1553.89,917,1552.69,916.32,1552.69,914.1Z"/><path class="cls-1" d="M1563.75,909.88v-.18c0-4.24,2.64-7.12,6.34-7.12a5.88,5.88,0,0,1,4.5,1.86l-1.74,2.24a3.9,3.9,0,0,0-2.86-1.4c-1.88,0-3.26,1.74-3.26,4.46v.06c0,2.78,1.44,4.48,3.3,4.48a3.94,3.94,0,0,0,2.88-1.46l1.74,2.06a6.08,6.08,0,0,1-4.74,2.1C1566.23,917,1563.75,914.16,1563.75,909.88Z"/><path class="cls-1" d="M1576.41,902.34h3v2.58h-3Zm.06,3.72h2.84v10.72h-2.84Z"/><path class="cls-1" d="M1582.15,914.1v-5.64h-1.08v-2.4h1.08v-2.74H1585v2.74h2.12v2.4H1585v5.06c0,.62.28.92.88.92a2.75,2.75,0,0,0,1.22-.3v2.26a4.13,4.13,0,0,1-2.1.56C1583.35,917,1582.15,916.32,1582.15,914.1Z"/><path class="cls-1" d="M1595.05,906.06h2.88l-3.52,10.86c-.72,2.14-1.54,3-3.22,3a4.52,4.52,0,0,1-2.3-.64l.78-2.12a2.46,2.46,0,0,0,1.16.36.88.88,0,0,0,.92-.68l-3.64-10.74h3l2,7.1Z"/><path class="cls-1" d="M1466.31,926.7h2.76l5,14.08h-3l-1-3h-4.82l-1,3h-2.92Zm2.86,8.48-1.52-4.56-1.54,4.56Z"/><path class="cls-1" d="M1475.37,937.36v-7.3h2.82v6.46c0,1.26.56,1.9,1.52,1.9s1.56-.64,1.56-1.9v-6.46h2.84v10.72h-2.84v-1.44a3.24,3.24,0,0,1-2.74,1.64C1476.51,941,1475.37,939.58,1475.37,937.36Z"/><path class="cls-1" d="M1486.83,938.1v-5.64h-1.08v-2.4h1.08v-2.74h2.84v2.74h2.12v2.4h-2.12v5.06c0,.62.28.92.88.92a2.75,2.75,0,0,0,1.22-.3v2.26a4.13,4.13,0,0,1-2.1.56C1488,941,1486.83,940.32,1486.83,938.1Z"/><path class="cls-1" d="M1493,935.56v-.22c0-3.18,2.16-5.48,5.06-5.48s5,2.26,5,5.46v.22c0,3.18-2.14,5.48-5,5.48S1493,938.76,1493,935.56Zm7.28,0v-.14c0-1.74-.88-3.06-2.24-3.06s-2.24,1.3-2.24,3v.14c0,1.72.9,3.06,2.26,3.06S1500.23,937.26,1500.23,935.52Z"/><path class="cls-1" d="M1504.91,930.06h2.84v1.44a3.28,3.28,0,0,1,2.76-1.64c2,0,3.16,1.4,3.16,3.62v7.3h-2.84v-6.46c0-1.26-.56-1.9-1.52-1.9s-1.56.64-1.56,1.9v6.46h-2.84Z"/><path class="cls-1" d="M1515.45,935.56v-.22c0-3.18,2.16-5.48,5.06-5.48s5,2.26,5,5.46v.22c0,3.18-2.14,5.48-5,5.48S1515.45,938.76,1515.45,935.56Zm7.28,0v-.14c0-1.74-.88-3.06-2.24-3.06s-2.24,1.3-2.24,3v.14c0,1.72.9,3.06,2.26,3.06S1522.73,937.26,1522.73,935.52Z"/><path class="cls-1" d="M1527.41,930.06h2.84v1.44a3.28,3.28,0,0,1,2.78-1.64,2.83,2.83,0,0,1,2.64,1.56,3.83,3.83,0,0,1,3-1.56c1.9,0,3.18,1.24,3.18,3.6v7.32h-2.82v-6.46c0-1.24-.54-1.9-1.48-1.9s-1.52.66-1.52,1.9v6.46h-2.84v-6.46c0-1.24-.52-1.9-1.46-1.9s-1.52.66-1.52,1.9v6.46h-2.84Z"/><path class="cls-1" d="M1543.71,935.56v-.22c0-3.18,2.16-5.48,5.06-5.48s5,2.26,5,5.46v.22c0,3.18-2.14,5.48-5,5.48S1543.71,938.76,1543.71,935.56Zm7.28,0v-.14c0-1.74-.88-3.06-2.24-3.06s-2.24,1.3-2.24,3v.14c0,1.72.9,3.06,2.26,3.06S1551,937.26,1551,935.52Z"/><path class="cls-1" d="M1555.61,937.36v-7.3h2.82v6.46c0,1.26.56,1.9,1.52,1.9s1.56-.64,1.56-1.9v-6.46h2.84v10.72h-2.84v-1.44a3.24,3.24,0,0,1-2.74,1.64C1556.75,941,1555.61,939.58,1555.61,937.36Z"/><path class="cls-1" d="M1565.81,939.5l1.24-2a5,5,0,0,0,2.86,1.2c.8,0,1.14-.38,1.14-.82v0c0-.62-.8-.88-2-1.38-1.52-.66-2.82-1.42-2.82-3.24v0c0-2.06,1.6-3.28,3.68-3.28a6.33,6.33,0,0,1,3.54,1.16l-1.14,2a4.87,4.87,0,0,0-2.44-.92c-.68,0-1,.34-1,.76v0c0,.56.8.88,1.94,1.4,1.56.74,2.84,1.52,2.84,3.22v0c0,2.22-1.64,3.34-3.78,3.34A6.49,6.49,0,0,1,1565.81,939.5Z"/><path class="cls-1" d="M1579.07,926.78h3.14l3,9.64,3-9.64h3.06l-4.72,14.08h-2.68Z"/><path class="cls-1" d="M1591.11,935.54v-.18c0-3.18,2-5.5,4.68-5.5,3.06,0,4.56,2.5,4.56,5.7,0,.16,0,.5,0,.92h-6.4a2.29,2.29,0,0,0,2.32,2.16,3.13,3.13,0,0,0,2.24-1.06l1.46,1.72a5,5,0,0,1-3.82,1.72C1593.29,941,1591.11,938.88,1591.11,935.54Zm6.5-.94c-.12-1.48-.76-2.4-1.82-2.4s-1.72.88-1.88,2.4Z"/><path class="cls-1" d="M1602.21,926.34h2.84v5.16a3.28,3.28,0,0,1,2.76-1.64c2,0,3.16,1.4,3.16,3.62v7.3h-2.84v-6.46c0-1.26-.56-1.9-1.52-1.9s-1.56.64-1.56,1.9v6.46h-2.84Z"/><path class="cls-1" d="M1613.21,926.34h3v2.58h-3Zm.06,3.72h2.84v10.72h-2.84Z"/><path class="cls-1" d="M1618.09,935.58v-.24c0-3.18,2.06-5.48,5-5.48a4.59,4.59,0,0,1,3.5,1.44l-1.54,2.06a2.54,2.54,0,0,0-1.92-1c-1.3,0-2.18,1.24-2.18,3v.08c0,1.78.82,3,2.24,3a2.57,2.57,0,0,0,1.94-1l1.5,1.88A4.56,4.56,0,0,1,1623,941C1620.11,941,1618.09,938.74,1618.09,935.58Z"/><path class="cls-1" d="M1628.29,926.34h2.84v14.44h-2.84Z"/><path class="cls-1" d="M1633.09,935.54v-.18c0-3.18,2-5.5,4.68-5.5,3.06,0,4.56,2.5,4.56,5.7,0,.16,0,.5,0,.92h-6.4a2.29,2.29,0,0,0,2.32,2.16,3.13,3.13,0,0,0,2.24-1.06l1.46,1.72a5,5,0,0,1-3.82,1.72C1635.27,941,1633.09,938.88,1633.09,935.54Zm6.5-.94c-.12-1.48-.76-2.4-1.82-2.4s-1.72.88-1.88,2.4Z"/></g></svg>