<svg xmlns="http://www.w3.org/2000/svg" viewBox="0 0 1920 1080"><defs><style>.cls-1,.cls-6{fill:#fff;}.cls-2{fill:#231f20;opacity:0.05;}.cls-3{fill:#341d70;}.cls-4{fill:#5956a5;}.cls-5{fill:none;}.cls-5,.cls-6{stroke:#341d70;stroke-miterlimit:10;stroke-width:3px;}</style></defs><title>starlingx-usecasesArtboard 1</title><g id="BG"><rect class="cls-1" width="1920" height="1080"/></g><g id="Artwork"><rect class="cls-2" x="72" y="172.03" width="592" height="835.97"/><path class="cls-3" d="M71.26,96.62l3.34-4.15c1.82,1.59,4,3.06,6.75,3.06,2.17,0,3.49-1.09,3.49-2.68v0c0-1.35-.78-2.21-4.66-3.68-4.8-1.86-7.79-3.69-7.79-8.34v-.08c0-4.73,3.64-7.95,8.88-7.95A12.94,12.94,0,0,1,90,76.1L86.9,80.36a9.56,9.56,0,0,0-5.78-2.52c-1.94,0-3.15,1-3.15,2.37v0c0,1.55.93,2.29,5.16,4,4.73,1.86,7.29,3.88,7.29,8.11v.08c0,5-3.84,8.14-9.11,8.14A14.6,14.6,0,0,1,71.26,96.62Z"/><path class="cls-3" d="M94.58,95.06V84.13h-2.1V79.47h2.1V74.16h5.5v5.31h4.12v4.66h-4.12v9.81c0,1.2.55,1.78,1.71,1.78a5.35,5.35,0,0,0,2.37-.58v4.38a7.94,7.94,0,0,1-4.08,1.09C96.9,100.61,94.58,99.37,94.58,95.06Z"/><path class="cls-3" d="M106.52,94.33v-.24c0-4.57,3-6.63,7.26-6.63a11.33,11.33,0,0,1,4.34.85v-.62c0-2.4-1.43-3.64-3.92-3.64a11.86,11.86,0,0,0-4.77,1.16l-1.51-4.3a14.86,14.86,0,0,1,7.1-1.67c2.83,0,5,.77,6.32,2.13s2.13,3.61,2.13,6.29v12.6h-5.39V98a6.38,6.38,0,0,1-5.39,2.64A5.93,5.93,0,0,1,106.52,94.33Zm11.68-.89V91.69a7.41,7.41,0,0,0-3.06-.66c-2,0-3.3,1-3.3,2.91V94a2.45,2.45,0,0,0,2.67,2.6C116.65,96.65,118.2,95.34,118.2,93.44Z"/><path class="cls-3" d="M127.51,79.47H133v3.69c1-2.52,2.67-4.19,5.62-4v6h-.23c-3.37,0-5.39,2.09-5.39,6.43v8.73h-5.51Z"/><path class="cls-3" d="M141.75,72.26h5.5v28h-5.5Z"/><path class="cls-3" d="M151.79,72.26h5.74v5h-5.74Zm.12,7.21h5.51v20.79h-5.51Z"/><path class="cls-3" d="M161.88,79.47h5.51v2.79c1.2-1.66,2.71-3.18,5.35-3.18,3.88,0,6.13,2.72,6.13,7v14.16h-5.51V87.73c0-2.44-1.09-3.68-3-3.68s-3,1.24-3,3.68v12.53h-5.51Z"/><path class="cls-3" d="M183.06,104.45l1.71-4.27a12.07,12.07,0,0,0,5.89,1.52c3.45,0,5.12-1.59,5.12-4.93V95.45c-1.4,1.82-3,3.26-5.82,3.26-4.11,0-7.75-3.22-7.75-9.77v-.12c0-6.56,3.68-9.74,7.75-9.74a7,7,0,0,1,5.78,3.07V79.47h5.51v17c0,3.3-.81,5.66-2.37,7.25-1.74,1.71-4.38,2.49-7.91,2.49A18.25,18.25,0,0,1,183.06,104.45ZM195.82,88.9v0c0-3.07-1.75-5-4.07-5s-4,2-4,5v0c0,3.14,1.71,5.08,4,5.08S195.82,92,195.82,88.9Z"/><path class="cls-3" d="M226.5,73.11l-7.75,13.27,8.06,13.88h-6.4l-5-9.31-5,9.31H204.2l8-13.81-7.68-13.34H211l4.62,8.81,4.69-8.81Z"/><path class="cls-3" d="M238.41,89.71V73.11H244V89.75c0,3.84,1.82,5.74,4.73,5.74s4.73-1.86,4.73-5.62V73.11h5.59V89.6c0,7.48-4.11,11.09-10.4,11.09S238.41,97,238.41,89.71Z"/><path class="cls-3" d="M261.88,97.78l2.41-3.88a9.68,9.68,0,0,0,5.54,2.33c1.56,0,2.22-.74,2.22-1.59v-.08c0-1.2-1.56-1.71-3.81-2.68-2.94-1.28-5.46-2.75-5.46-6.28v-.08c0-4,3.1-6.36,7.13-6.36a12.32,12.32,0,0,1,6.87,2.25l-2.21,4a9.44,9.44,0,0,0-4.74-1.79c-1.31,0-2,.66-2,1.48v.07c0,1.09,1.55,1.71,3.76,2.72,3,1.43,5.51,3,5.51,6.24v.08c0,4.31-3.18,6.48-7.33,6.48A12.63,12.63,0,0,1,261.88,97.78Z"/><path class="cls-3" d="M279.42,90.1v-.35c0-6.17,3.84-10.67,9.07-10.67,5.94,0,8.85,4.85,8.85,11.06,0,.31,0,1,0,1.78H284.89c.46,2.76,2.17,4.19,4.5,4.19a6.06,6.06,0,0,0,4.34-2l2.83,3.33a9.58,9.58,0,0,1-7.41,3.34C283.64,100.73,279.42,96.58,279.42,90.1ZM292,88.28c-.23-2.87-1.47-4.66-3.53-4.66s-3.33,1.71-3.64,4.66Z"/><path class="cls-3" d="M308.78,86.88v-.35c0-8.22,5.12-13.81,12.3-13.81a11.4,11.4,0,0,1,8.72,3.61l-3.37,4.34A7.61,7.61,0,0,0,320.88,78c-3.64,0-6.32,3.37-6.32,8.65v.11c0,5.4,2.79,8.69,6.4,8.69,2.17,0,3.76-1,5.59-2.83l3.37,4a11.78,11.78,0,0,1-9.19,4.07C313.59,100.65,308.78,95.18,308.78,86.88Z"/><path class="cls-3" d="M331.9,94.33v-.24c0-4.57,3-6.63,7.25-6.63a11.34,11.34,0,0,1,4.35.85v-.62c0-2.4-1.44-3.64-3.92-3.64a11.86,11.86,0,0,0-4.77,1.16l-1.51-4.3a14.83,14.83,0,0,1,7.1-1.67c2.83,0,5,.77,6.32,2.13a8.67,8.67,0,0,1,2.13,6.29v12.6h-5.39V98a6.39,6.39,0,0,1-5.39,2.64A5.92,5.92,0,0,1,331.9,94.33Zm11.68-.89V91.69a7.43,7.43,0,0,0-3.07-.66c-2,0-3.3,1-3.3,2.91V94a2.45,2.45,0,0,0,2.68,2.6C342,96.65,343.58,95.34,343.58,93.44Z"/><path class="cls-3" d="M351.3,97.78l2.4-3.88a9.68,9.68,0,0,0,5.55,2.33c1.55,0,2.21-.74,2.21-1.59v-.08c0-1.2-1.55-1.71-3.8-2.68-3-1.28-5.47-2.75-5.47-6.28v-.08c0-4,3.1-6.36,7.14-6.36a12.27,12.27,0,0,1,6.86,2.25l-2.21,4a9.44,9.44,0,0,0-4.73-1.79c-1.32,0-2,.66-2,1.48v.07c0,1.09,1.55,1.71,3.76,2.72,3,1.43,5.51,3,5.51,6.24v.08c0,4.31-3.18,6.48-7.33,6.48A12.62,12.62,0,0,1,351.3,97.78Z"/><path class="cls-3" d="M368.83,90.1v-.35c0-6.17,3.84-10.67,9.08-10.67,5.93,0,8.84,4.85,8.84,11.06,0,.31,0,1,0,1.78H374.3c.46,2.76,2.17,4.19,4.5,4.19a6.06,6.06,0,0,0,4.34-2L386,97.39a9.57,9.57,0,0,1-7.4,3.34C373.06,100.73,368.83,96.58,368.83,90.1Zm12.61-1.82c-.24-2.87-1.48-4.66-3.53-4.66s-3.34,1.71-3.65,4.66Z"/><path class="cls-3" d="M388.57,97.78,391,93.9a9.68,9.68,0,0,0,5.55,2.33c1.55,0,2.21-.74,2.21-1.59v-.08c0-1.2-1.55-1.71-3.8-2.68-2.95-1.28-5.47-2.75-5.47-6.28v-.08c0-4,3.1-6.36,7.13-6.36a12.32,12.32,0,0,1,6.87,2.25l-2.21,4a9.44,9.44,0,0,0-4.73-1.79c-1.32,0-2,.66-2,1.48v.07c0,1.09,1.55,1.71,3.76,2.72,3,1.43,5.51,3,5.51,6.24v.08c0,4.31-3.18,6.48-7.33,6.48A12.65,12.65,0,0,1,388.57,97.78Z"/><rect class="cls-2" x="664" y="172.03" width="592" height="835.97"/><rect class="cls-2" x="1255.92" y="172.03" width="592" height="835.97"/><rect class="cls-4" x="72" y="172.02" width="592" height="72"/><path class="cls-1" d="M293.11,195.66h4.35v8.43h6.9v-8.43h4.35v21h-4.35v-8.55h-6.9v8.55h-4.35Z"/><path class="cls-1" d="M311.86,208.8v-.27c0-4.77,3-8.25,7-8.25,4.59,0,6.84,3.75,6.84,8.55,0,.24,0,.75,0,1.38h-9.6c.36,2.13,1.68,3.24,3.48,3.24a4.69,4.69,0,0,0,3.36-1.59l2.19,2.58a7.43,7.43,0,0,1-5.73,2.58C315.13,217,311.86,213.81,311.86,208.8Zm9.75-1.41c-.18-2.22-1.14-3.6-2.73-3.6s-2.58,1.32-2.82,3.6Z"/><path class="cls-1" d="M327.67,212.07v-.18c0-3.54,2.31-5.13,5.61-5.13a8.7,8.7,0,0,1,3.36.66v-.48c0-1.86-1.11-2.82-3-2.82a9.14,9.14,0,0,0-3.69.9l-1.17-3.33a11.5,11.5,0,0,1,5.49-1.29,5.81,5.81,0,0,1,6.54,6.51v9.75h-4.17v-1.74a4.94,4.94,0,0,1-4.17,2A4.58,4.58,0,0,1,327.67,212.07Zm9-.69V210a5.75,5.75,0,0,0-2.37-.51c-1.56,0-2.55.78-2.55,2.25v.06a1.89,1.89,0,0,0,2.07,2A2.55,2.55,0,0,0,336.7,211.38Z"/><path class="cls-1" d="M344.2,195h4.26v21.66H344.2Z"/><path class="cls-1" d="M352.72,212.64v-8.46H351.1v-3.6h1.62v-4.11H357v4.11h3.18v3.6H357v7.59c0,.93.42,1.38,1.32,1.38a4.12,4.12,0,0,0,1.83-.45v3.39a6.19,6.19,0,0,1-3.15.84C354.52,216.93,352.72,216,352.72,212.64Z"/><path class="cls-1" d="M363,195h4.26v7.74a4.92,4.92,0,0,1,4.14-2.46c3,0,4.74,2.1,4.74,5.43v10.95h-4.26V207c0-1.89-.84-2.85-2.28-2.85s-2.34,1-2.34,2.85v9.69H363Z"/><path class="cls-1" d="M385.75,206.31V206c0-6.36,4-10.68,9.51-10.68a8.82,8.82,0,0,1,6.75,2.79l-2.61,3.36a5.86,5.86,0,0,0-4.29-2.1c-2.82,0-4.89,2.61-4.89,6.69v.09c0,4.17,2.16,6.72,4.95,6.72,1.68,0,2.91-.78,4.32-2.19l2.61,3.09A9.12,9.12,0,0,1,395,217C389.47,217,385.75,212.73,385.75,206.31Z"/><path class="cls-1" d="M403.78,212.07v-.18c0-3.54,2.31-5.13,5.61-5.13a8.7,8.7,0,0,1,3.36.66v-.48c0-1.86-1.11-2.82-3-2.82a9.14,9.14,0,0,0-3.69.9l-1.17-3.33a11.5,11.5,0,0,1,5.49-1.29,5.81,5.81,0,0,1,6.54,6.51v9.75h-4.17v-1.74a4.94,4.94,0,0,1-4.17,2A4.58,4.58,0,0,1,403.78,212.07Zm9-.69V210a5.75,5.75,0,0,0-2.37-.51c-1.56,0-2.55.78-2.55,2.25v.06a1.89,1.89,0,0,0,2.07,2A2.55,2.55,0,0,0,412.81,211.38Z"/><path class="cls-1" d="M420.16,200.58h4.26v2.85c.78-2,2.07-3.24,4.34-3.12v4.62h-.18c-2.61,0-4.16,1.62-4.16,5v6.75h-4.26Z"/><path class="cls-1" d="M430.05,208.8v-.27c0-4.77,3-8.25,7-8.25,4.59,0,6.84,3.75,6.84,8.55,0,.24,0,.75,0,1.38h-9.6c.36,2.13,1.68,3.24,3.48,3.24a4.69,4.69,0,0,0,3.36-1.59l2.19,2.58a7.43,7.43,0,0,1-5.73,2.58C433.33,217,430.05,213.81,430.05,208.8Zm9.75-1.41c-.18-2.22-1.14-3.6-2.73-3.6s-2.57,1.32-2.82,3.6Z"/><rect class="cls-4" x="664" y="172.02" width="592" height="72"/><path class="cls-1" d="M817.4,195.66h4.35v21H817.4Z"/><path class="cls-1" d="M825.71,200.58H830v2.16a4.92,4.92,0,0,1,4.14-2.46c3,0,4.74,2.1,4.74,5.43v10.95h-4.26V207c0-1.89-.84-2.85-2.28-2.85s-2.34,1-2.34,2.85v9.69h-4.26Z"/><path class="cls-1" d="M841.58,208.86v-.48c0-5.49,2.91-8.1,6.12-8.1a5.26,5.26,0,0,1,4.35,2.37V195h4.26v21.66h-4.26v-2.22A5.08,5.08,0,0,1,847.7,217C844.52,217,841.58,214.35,841.58,208.86Zm10.53-.09v-.3c0-2.73-1.38-4.47-3.15-4.47s-3.12,1.74-3.12,4.47v.3c0,2.73,1.35,4.47,3.12,4.47S852.11,211.5,852.11,208.77Z"/><path class="cls-1" d="M859.64,211.53V200.58h4.23v9.69c0,1.89.84,2.85,2.28,2.85s2.34-1,2.34-2.85v-9.69h4.26v16.08h-4.26V214.5a4.87,4.87,0,0,1-4.11,2.46C861.35,217,859.64,214.86,859.64,211.53Z"/><path class="cls-1" d="M874.94,214.74l1.86-3a7.51,7.51,0,0,0,4.29,1.8c1.2,0,1.71-.57,1.71-1.23v-.06c0-.93-1.2-1.32-2.94-2.07-2.28-1-4.23-2.13-4.23-4.86v-.06c0-3.09,2.4-4.92,5.52-4.92a9.49,9.49,0,0,1,5.31,1.74l-1.71,3.06a7.3,7.3,0,0,0-3.66-1.38c-1,0-1.56.51-1.56,1.14V205c0,.84,1.2,1.32,2.91,2.1,2.34,1.11,4.26,2.28,4.26,4.83V212c0,3.33-2.46,5-5.67,5A9.74,9.74,0,0,1,874.94,214.74Z"/><path class="cls-1" d="M889.7,212.64v-8.46h-1.62v-3.6h1.62v-4.11H894v4.11h3.18v3.6H894v7.59c0,.93.42,1.38,1.32,1.38a4.12,4.12,0,0,0,1.83-.45v3.39a6.19,6.19,0,0,1-3.15.84C891.5,216.93,889.7,216,889.7,212.64Z"/><path class="cls-1" d="M899.93,200.58h4.26v2.85c.78-2,2.07-3.24,4.35-3.12v4.62h-.18c-2.61,0-4.17,1.62-4.17,5v6.75h-4.26Z"/><path class="cls-1" d="M911,195h4.44v3.87H911Zm.09,5.58h4.26v16.08h-4.26Z"/><path class="cls-1" d="M918.11,212.07v-.18c0-3.54,2.31-5.13,5.61-5.13a8.7,8.7,0,0,1,3.36.66v-.48c0-1.86-1.11-2.82-3-2.82a9.14,9.14,0,0,0-3.69.9l-1.17-3.33a11.5,11.5,0,0,1,5.49-1.29,5.81,5.81,0,0,1,6.54,6.51v9.75h-4.17v-1.74a4.94,4.94,0,0,1-4.17,2A4.58,4.58,0,0,1,918.11,212.07Zm9-.69V210a5.75,5.75,0,0,0-2.37-.51c-1.56,0-2.55.78-2.55,2.25v.06a1.89,1.89,0,0,0,2.07,2A2.55,2.55,0,0,0,927.14,211.38Z"/><path class="cls-1" d="M934.64,195h4.26v21.66h-4.26Z"/><path class="cls-1" d="M955.55,195.54h4.14l7.52,21.12h-4.5l-1.55-4.56h-7.23l-1.53,4.56H948Zm4.28,12.72-2.27-6.84-2.31,6.84Z"/><path class="cls-1" d="M969.14,211.53V200.58h4.23v9.69c0,1.89.84,2.85,2.28,2.85s2.34-1,2.34-2.85v-9.69h4.26v16.08H978V214.5a4.88,4.88,0,0,1-4.11,2.46C970.85,217,969.14,214.86,969.14,211.53Z"/><path class="cls-1" d="M986.33,212.64v-8.46h-1.62v-3.6h1.62v-4.11h4.26v4.11h3.18v3.6h-3.18v7.59c0,.93.42,1.38,1.32,1.38a4.12,4.12,0,0,0,1.83-.45v3.39a6.19,6.19,0,0,1-3.15.84C988.13,216.93,986.33,216,986.33,212.64Z"/><path class="cls-1" d="M995.51,208.83v-.33c0-4.77,3.24-8.22,7.59-8.22s7.52,3.39,7.52,8.19v.33c0,4.77-3.2,8.22-7.55,8.22S995.51,213.63,995.51,208.83Zm10.91-.06v-.21c0-2.61-1.31-4.59-3.35-4.59s-3.36,1.95-3.36,4.56v.21c0,2.58,1.35,4.59,3.39,4.59S1006.42,211.38,1006.42,208.77Z"/><path class="cls-1" d="M1013.45,200.58h4.26v2.16a4.92,4.92,0,0,1,4.17-2.46,4.23,4.23,0,0,1,3.95,2.34,5.74,5.74,0,0,1,4.56-2.34c2.85,0,4.77,1.86,4.77,5.4v11h-4.23V207c0-1.86-.81-2.85-2.22-2.85s-2.28,1-2.28,2.85v9.69h-4.26V207c0-1.86-.78-2.85-2.18-2.85s-2.28,1-2.28,2.85v9.69h-4.26Z"/><path class="cls-1" d="M1037.69,212.07v-.18c0-3.54,2.31-5.13,5.6-5.13a8.71,8.71,0,0,1,3.37.66v-.48c0-1.86-1.12-2.82-3-2.82a9,9,0,0,0-3.68.9l-1.17-3.33a11.49,11.49,0,0,1,5.48-1.29,5.81,5.81,0,0,1,6.54,6.51v9.75h-4.17v-1.74a4.92,4.92,0,0,1-4.16,2A4.58,4.58,0,0,1,1037.69,212.07Zm9-.69V210a5.75,5.75,0,0,0-2.37-.51c-1.55,0-2.55.78-2.55,2.25v.06a1.89,1.89,0,0,0,2.08,2A2.54,2.54,0,0,0,1046.71,211.38Z"/><path class="cls-1" d="M1054.58,212.64v-8.46H1053v-3.6h1.62v-4.11h4.25v4.11H1062v3.6h-3.18v7.59c0,.93.42,1.38,1.32,1.38a4.12,4.12,0,0,0,1.83-.45v3.39a6.19,6.19,0,0,1-3.15.84C1056.38,216.93,1054.58,216,1054.58,212.64Z"/><path class="cls-1" d="M1064.86,195h4.44v3.87h-4.44Zm.1,5.58h4.25v16.08H1065Z"/><path class="cls-1" d="M1072.19,208.83v-.33c0-4.77,3.23-8.22,7.59-8.22s7.52,3.39,7.52,8.19v.33c0,4.77-3.21,8.22-7.55,8.22S1072.19,213.63,1072.19,208.83Zm10.91-.06v-.21c0-2.61-1.31-4.59-3.35-4.59s-3.36,1.95-3.36,4.56v.21c0,2.58,1.35,4.59,3.39,4.59S1083.1,211.38,1083.1,208.77Z"/><path class="cls-1" d="M1090.12,200.58h4.26v2.16a4.92,4.92,0,0,1,4.14-2.46c3,0,4.74,2.1,4.74,5.43v10.95H1099V207c0-1.89-.83-2.85-2.28-2.85s-2.34,1-2.34,2.85v9.69h-4.26Z"/><rect class="cls-4" x="1256" y="172.02" width="592" height="72"/><path class="cls-1" d="M1518.82,211.53V200.58h4.23v9.69c0,1.89.84,2.85,2.28,2.85s2.34-1,2.34-2.85v-9.69h4.26v16.08h-4.26V214.5a4.87,4.87,0,0,1-4.11,2.46C1520.53,217,1518.82,214.86,1518.82,211.53Z"/><path class="cls-1" d="M1535,206.31V206c0-6.36,4-10.68,9.51-10.68a8.82,8.82,0,0,1,6.75,2.79l-2.61,3.36a5.86,5.86,0,0,0-4.29-2.1c-2.82,0-4.89,2.61-4.89,6.69v.09c0,4.17,2.16,6.72,5,6.72,1.68,0,2.91-.78,4.32-2.19l2.61,3.09a9.12,9.12,0,0,1-7.11,3.15C1538.71,217,1535,212.73,1535,206.31Z"/><path class="cls-1" d="M1554.31,195.66h7c4.71,0,7.68,2.73,7.68,7.2v.06c0,4.83-3.45,7.26-7.86,7.35h-2.46v6.39h-4.35Zm6.78,10.71a3.21,3.21,0,0,0,3.51-3.36v0c0-2.19-1.26-3.39-3.57-3.39h-2.37v6.78Z"/><path class="cls-1" d="M1571.83,195.66h13.53v3.93h-9.21v4.53h8.1v3.93h-8.1v4.68h9.33v3.93h-13.65Z"/><rect class="cls-5" x="72" y="172.03" width="592" height="835.97"/><rect class="cls-5" x="664" y="172.03" width="592" height="835.97"/><rect class="cls-5" x="1255.92" y="172.03" width="592" height="835.97"/><rect class="cls-1" x="233.73" y="477.47" width="268.54" height="297" rx="12.39" ry="12.39"/><path class="cls-3" d="M489.88,479a10.91,10.91,0,0,1,10.89,10.89V762.08A10.9,10.9,0,0,1,489.88,773H246.12a10.9,10.9,0,0,1-10.89-10.89V489.86A10.91,10.91,0,0,1,246.12,479H489.88m0-3H246.12a13.89,13.89,0,0,0-13.89,13.89V762.08A13.89,13.89,0,0,0,246.12,776H489.88a13.89,13.89,0,0,0,13.89-13.89V489.86A13.89,13.89,0,0,0,489.88,476Z"/><path class="cls-3" d="M289.92,716c-2.8-.72-3.49-1.07-3.49-2.13v-.05c0-.79.71-1.41,2.08-1.41a7.6,7.6,0,0,1,4.22,1.6l1.85-2.69a9.38,9.38,0,0,0-6-2.06c-3.32,0-5.68,1.94-5.68,4.89v0c0,3.22,2.11,4.12,5.38,5,2.71.69,3.26,1.16,3.26,2.06v0c0,1-.88,1.53-2.34,1.53a7.47,7.47,0,0,1-4.84-2l-2.11,2.52a10.33,10.33,0,0,0,6.88,2.6c3.5,0,6-1.81,6-5v0C295.07,718,293.21,716.85,289.92,716Z"/><polygon class="cls-3" points="301.08 712.77 306.01 712.77 306.01 725.7 309.58 725.7 309.58 712.77 314.52 712.77 314.52 709.48 301.08 709.48 301.08 712.77"/><path class="cls-3" d="M325.14,709.36l-6.95,16.34h3.63l1.49-3.64h6.86l1.48,3.64h3.73l-6.95-16.34Zm-.56,9.55,2.16-5.26,2.15,5.26Z"/><path class="cls-3" d="M355.83,714.88v0a5.12,5.12,0,0,0-1.39-3.71,6.5,6.5,0,0,0-4.73-1.64H342.3V725.7h3.56v-5.19h2.81l3.47,5.19h4.17l-4-5.8A5,5,0,0,0,355.83,714.88Zm-3.62.18c0,1.37-1,2.3-2.73,2.3h-3.62V712.7h3.55c1.74,0,2.8.79,2.8,2.31Z"/><polygon class="cls-3" points="367.03 709.48 363.46 709.48 363.46 725.7 375.11 725.7 375.11 722.45 367.03 722.45 367.03 709.48"/><rect class="cls-3" x="382.38" y="709.48" width="3.57" height="16.22"/><polygon class="cls-3" points="405.3 719.46 397.7 709.48 394.41 709.48 394.41 725.7 397.93 725.7 397.93 715.39 405.78 725.7 408.82 725.7 408.82 709.48 405.3 709.48 405.3 719.46"/><path class="cls-3" d="M424.82,719.44h3.59v2.32a5.67,5.67,0,0,1-3.36,1,4.86,4.86,0,0,1-4.91-5.14v-.05a4.87,4.87,0,0,1,4.66-5,6,6,0,0,1,4.24,1.65l2.24-2.72a8.92,8.92,0,0,0-6.37-2.22,8.33,8.33,0,0,0-8.5,8.39v0a8.11,8.11,0,0,0,8.52,8.34,10.49,10.49,0,0,0,6.93-2.57v-7h-7Z"/><polygon class="cls-3" points="453.54 709.48 449.48 709.48 446.03 714.74 442.65 709.48 438.48 709.48 443.9 717.45 438.25 725.7 442.3 725.7 445.96 720.14 449.6 725.7 453.77 725.7 448.12 717.4 453.54 709.48"/><polygon class="cls-4" points="363.42 555.19 341.51 525.97 282.23 525.97 333.78 594.71 363.42 555.19"/><path class="cls-4" d="M358.58,627.77l35.91,47.88h59.28l-51.83-69.09C390.56,618.49,374,626.69,358.58,627.77Z"/><path class="cls-3" d="M323,662.86l31.72-42.29h.46c16.39,0,35.61-10.17,46-24.51l32.46-43.27a66.05,66.05,0,0,1,20.12-16.91c-8.73-3.62-22-5.53-22-5.53C426.63,526,414.89,526,414.89,526c-20.41,0-30.1,12.93-30.1,12.93l-44.73,59.65c26.6-.16,31.95-4.27,48.23-25.33l3.4-4.6a18.06,18.06,0,0,1,14.53-7.32l-12.09,16.34c-17.71,22.9-25,28.24-55.81,28.24-1.29,0-2.53,0-3.74,0l-52.35,69.8h12.84C304.86,675.65,316.81,670.45,323,662.86Z"/><rect class="cls-1" x="825.69" y="477.47" width="268.54" height="297" rx="12.39" ry="12.39"/><path class="cls-3" d="M1081.84,479a10.91,10.91,0,0,1,10.89,10.89V762.08A10.9,10.9,0,0,1,1081.84,773H838.08a10.9,10.9,0,0,1-10.89-10.89V489.86A10.9,10.9,0,0,1,838.08,479h243.76m0-3H838.08a13.89,13.89,0,0,0-13.89,13.89V762.08A13.89,13.89,0,0,0,838.08,776h243.76a13.89,13.89,0,0,0,13.89-13.89V489.86A13.89,13.89,0,0,0,1081.84,476Z"/><path class="cls-3" d="M881.88,716c-2.8-.72-3.5-1.07-3.5-2.13v-.05c0-.79.72-1.41,2.09-1.41a7.6,7.6,0,0,1,4.22,1.6l1.85-2.69a9.4,9.4,0,0,0-6-2.06c-3.32,0-5.68,1.94-5.68,4.89v0c0,3.22,2.11,4.12,5.37,5,2.72.69,3.27,1.16,3.27,2.06v0c0,1-.88,1.53-2.34,1.53a7.47,7.47,0,0,1-4.84-2l-2.11,2.52a10.33,10.33,0,0,0,6.88,2.6c3.5,0,6-1.81,6-5v0C887,718,885.17,716.85,881.88,716Z"/><polygon class="cls-3" points="893.04 712.77 897.97 712.77 897.97 725.7 901.54 725.7 901.54 712.77 906.48 712.77 906.48 709.48 893.04 709.48 893.04 712.77"/><path class="cls-3" d="M917.1,709.36l-7,16.34h3.63l1.49-3.64h6.85l1.49,3.64h3.73l-7-16.34Zm-.56,9.55,2.16-5.26,2.15,5.26Z"/><path class="cls-3" d="M947.78,714.88v0a5.08,5.08,0,0,0-1.39-3.71,6.46,6.46,0,0,0-4.72-1.64h-7.42V725.7h3.57v-5.19h2.81l3.47,5.19h4.17l-4-5.8A5,5,0,0,0,947.78,714.88Zm-3.61.18c0,1.37-1,2.3-2.73,2.3h-3.62V712.7h3.55c1.73,0,2.8.79,2.8,2.31Z"/><polygon class="cls-3" points="958.99 709.48 955.42 709.48 955.42 725.7 967.07 725.7 967.07 722.45 958.99 722.45 958.99 709.48"/><rect class="cls-3" x="974.34" y="709.48" width="3.57" height="16.22"/><polygon class="cls-3" points="997.26 719.46 989.66 709.48 986.37 709.48 986.37 725.7 989.89 725.7 989.89 715.39 997.74 725.7 1000.78 725.7 1000.78 709.48 997.26 709.48 997.26 719.46"/><path class="cls-3" d="M1016.78,719.44h3.59v2.32a5.67,5.67,0,0,1-3.36,1,4.86,4.86,0,0,1-4.91-5.14v-.05a4.87,4.87,0,0,1,4.65-5,5.94,5.94,0,0,1,4.24,1.65l2.25-2.72a8.92,8.92,0,0,0-6.37-2.22,8.33,8.33,0,0,0-8.5,8.39v0a8.11,8.11,0,0,0,8.52,8.34,10.49,10.49,0,0,0,6.93-2.57v-7h-7Z"/><polygon class="cls-3" points="1045.49 709.48 1041.44 709.48 1037.99 714.74 1034.61 709.48 1030.44 709.48 1035.86 717.45 1030.2 725.7 1034.26 725.7 1037.92 720.14 1041.56 725.7 1045.73 725.7 1040.08 717.4 1045.49 709.48"/><polygon class="cls-4" points="955.38 555.19 933.47 525.97 874.19 525.97 925.74 594.71 955.38 555.19"/><path class="cls-4" d="M950.54,627.77l35.91,47.88h59.28L993.9,606.56C982.52,618.49,965.94,626.69,950.54,627.77Z"/><path class="cls-3" d="M914.94,662.86l31.72-42.29h.46c16.39,0,35.61-10.17,46-24.51l32.46-43.27a66.05,66.05,0,0,1,20.12-16.91c-8.73-3.62-22-5.53-22-5.53-5.13-4.39-16.87-4.39-16.87-4.39-20.41,0-30.1,12.93-30.1,12.93L932,598.55c26.61-.16,32-4.27,48.23-25.33l3.41-4.6a18.05,18.05,0,0,1,14.53-7.32l-12.1,16.34c-17.7,22.9-25,28.24-55.8,28.24-1.29,0-2.53,0-3.74,0l-52.35,69.8H887C896.82,675.65,908.76,670.45,914.94,662.86Z"/><rect class="cls-1" x="1417.64" y="477.47" width="268.54" height="297" rx="12.39" ry="12.39"/><path class="cls-3" d="M1673.79,479a10.91,10.91,0,0,1,10.89,10.89V762.08A10.9,10.9,0,0,1,1673.79,773H1430a10.9,10.9,0,0,1-10.89-10.89V489.86A10.91,10.91,0,0,1,1430,479h243.76m0-3H1430a13.89,13.89,0,0,0-13.89,13.89V762.08A13.89,13.89,0,0,0,1430,776h243.76a13.89,13.89,0,0,0,13.89-13.89V489.86A13.89,13.89,0,0,0,1673.79,476Z"/><path class="cls-3" d="M1473.84,716c-2.81-.72-3.5-1.07-3.5-2.13v-.05c0-.79.72-1.41,2.08-1.41a7.6,7.6,0,0,1,4.22,1.6l1.85-2.69a9.38,9.38,0,0,0-6-2.06c-3.31,0-5.68,1.94-5.68,4.89v0c0,3.22,2.11,4.12,5.38,5,2.71.69,3.26,1.16,3.26,2.06v0c0,1-.88,1.53-2.34,1.53a7.47,7.47,0,0,1-4.84-2l-2.11,2.52a10.34,10.34,0,0,0,6.89,2.6c3.49,0,6-1.81,6-5v0C1479,718,1477.12,716.85,1473.84,716Z"/><polygon class="cls-3" points="1484.99 712.77 1489.92 712.77 1489.92 725.7 1493.49 725.7 1493.49 712.77 1498.43 712.77 1498.43 709.48 1484.99 709.48 1484.99 712.77"/><path class="cls-3" d="M1509.05,709.36l-7,16.34h3.64l1.48-3.64h6.86l1.48,3.64h3.73l-7-16.34Zm-.56,9.55,2.16-5.26,2.15,5.26Z"/><path class="cls-3" d="M1539.74,714.88v0a5.12,5.12,0,0,0-1.39-3.71,6.5,6.5,0,0,0-4.73-1.64h-7.41V725.7h3.57v-5.19h2.8l3.47,5.19h4.17l-4-5.8A5,5,0,0,0,1539.74,714.88Zm-3.62.18c0,1.37-1,2.3-2.73,2.3h-3.61V712.7h3.54c1.74,0,2.8.79,2.8,2.31Z"/><polygon class="cls-3" points="1550.94 709.48 1547.37 709.48 1547.37 725.7 1559.03 725.7 1559.03 722.45 1550.94 722.45 1550.94 709.48"/><rect class="cls-3" x="1566.29" y="709.48" width="3.57" height="16.22"/><polygon class="cls-3" points="1589.21 719.46 1581.61 709.48 1578.32 709.48 1578.32 725.7 1581.84 725.7 1581.84 715.39 1589.69 725.7 1592.73 725.7 1592.73 709.48 1589.21 709.48 1589.21 719.46"/><path class="cls-3" d="M1608.73,719.44h3.59v2.32a5.67,5.67,0,0,1-3.36,1,4.86,4.86,0,0,1-4.91-5.14v-.05a4.87,4.87,0,0,1,4.66-5,5.94,5.94,0,0,1,4.24,1.65l2.24-2.72a8.92,8.92,0,0,0-6.37-2.22,8.33,8.33,0,0,0-8.5,8.39v0a8.12,8.12,0,0,0,8.53,8.34,10.47,10.47,0,0,0,6.92-2.57v-7h-7Z"/><polygon class="cls-3" points="1637.45 709.48 1633.39 709.48 1629.94 714.74 1626.56 709.48 1622.39 709.48 1627.81 717.45 1622.16 725.7 1626.21 725.7 1629.87 720.14 1633.51 725.7 1637.68 725.7 1632.03 717.4 1637.45 709.48"/><polygon class="cls-4" points="1547.33 555.19 1525.42 525.97 1466.14 525.97 1517.69 594.71 1547.33 555.19"/><path class="cls-4" d="M1542.49,627.77l35.91,47.88h59.28l-51.83-69.09C1574.47,618.49,1557.89,626.69,1542.49,627.77Z"/><path class="cls-3" d="M1506.89,662.86l31.72-42.29h.46c16.39,0,35.62-10.17,46-24.51l32.46-43.27a66.05,66.05,0,0,1,20.12-16.91c-8.73-3.62-22-5.53-22-5.53-5.13-4.39-16.87-4.39-16.87-4.39-20.4,0-30.09,12.93-30.09,12.93L1524,598.55c26.6-.16,32-4.27,48.23-25.33l3.4-4.6a18.06,18.06,0,0,1,14.53-7.32L1578,577.64c-17.71,22.9-25,28.24-55.81,28.24-1.29,0-2.53,0-3.74,0l-52.35,69.8H1479C1488.77,675.65,1500.72,670.45,1506.89,662.86Z"/><rect class="cls-3" x="108" y="280.01" width="242" height="99.38" rx="10" ry="10"/><line class="cls-6" x1="368" y1="775.97" x2="368" y2="872.56"/><line class="cls-6" x1="1551.91" y1="775.97" x2="1551.91" y2="872.56"/><path class="cls-1" d="M194.14,321.23H197v14h-2.9Z"/><path class="cls-1" d="M199.68,324.51h2.84V326a3.28,3.28,0,0,1,2.78-1.64,2.83,2.83,0,0,1,2.64,1.56,3.83,3.83,0,0,1,3-1.56c1.9,0,3.18,1.24,3.18,3.6v7.32h-2.82v-6.46c0-1.24-.54-1.9-1.48-1.9s-1.52.66-1.52,1.9v6.46H205.5v-6.46c0-1.24-.52-1.9-1.46-1.9s-1.52.66-1.52,1.9v6.46h-2.84Z"/><path class="cls-1" d="M215.84,332.17v-.12c0-2.36,1.54-3.42,3.74-3.42a5.8,5.8,0,0,1,2.24.44v-.32c0-1.24-.74-1.88-2-1.88a6.09,6.09,0,0,0-2.46.6l-.78-2.22a7.67,7.67,0,0,1,3.66-.86,3.87,3.87,0,0,1,4.36,4.34v6.5H221.8v-1.16a3.3,3.3,0,0,1-2.78,1.36A3.05,3.05,0,0,1,215.84,332.17Zm6-.46v-.9a3.83,3.83,0,0,0-1.58-.34c-1,0-1.7.52-1.7,1.5v0a1.26,1.26,0,0,0,1.38,1.34A1.7,1.7,0,0,0,221.86,331.71Z"/><path class="cls-1" d="M226.82,337.39l.88-2.2a6.29,6.29,0,0,0,3,.78c1.78,0,2.64-.82,2.64-2.54v-.68a3.58,3.58,0,0,1-3,1.68c-2.12,0-4-1.66-4-5v-.06c0-3.38,1.9-5,4-5a3.62,3.62,0,0,1,3,1.58v-1.38h2.84v8.76A5.13,5.13,0,0,1,235,337a5.62,5.62,0,0,1-4.08,1.28A9.46,9.46,0,0,1,226.82,337.39Zm6.58-8v0c0-1.58-.9-2.6-2.1-2.6s-2.08,1-2.08,2.6v0c0,1.62.88,2.62,2.08,2.62S233.4,331,233.4,329.37Z"/><path class="cls-1" d="M238.52,320.79h3v2.58h-3Zm.06,3.72h2.84v10.72h-2.84Z"/><path class="cls-1" d="M243.82,324.51h2.84V326a3.28,3.28,0,0,1,2.76-1.64c2,0,3.16,1.4,3.16,3.62v7.3h-2.84v-6.46c0-1.26-.56-1.9-1.52-1.9s-1.56.64-1.56,1.9v6.46h-2.84Z"/><path class="cls-1" d="M254.84,337.39l.88-2.2a6.29,6.29,0,0,0,3,.78c1.78,0,2.64-.82,2.64-2.54v-.68a3.58,3.58,0,0,1-3,1.68c-2.12,0-4-1.66-4-5v-.06c0-3.38,1.9-5,4-5a3.62,3.62,0,0,1,3,1.58v-1.38h2.84v8.76A5.13,5.13,0,0,1,263,337a5.62,5.62,0,0,1-4.08,1.28A9.46,9.46,0,0,1,254.84,337.39Zm6.58-8v0c0-1.58-.9-2.6-2.1-2.6s-2.08,1-2.08,2.6v0c0,1.62.88,2.62,2.08,2.62S261.42,331,261.42,329.37Z"/><rect class="cls-3" x="386" y="280.01" width="242" height="99.38" rx="10" ry="10"/><path class="cls-1" d="M456.89,321.23h4.52c4.06,0,6.68,2.8,6.68,6.9v.18c0,4.1-2.62,6.92-6.68,6.92h-4.52Zm2.9,2.62v8.76h1.6c2.2,0,3.7-1.54,3.7-4.32v-.1c0-2.78-1.5-4.34-3.7-4.34Z"/><path class="cls-1" d="M470.15,320.79h3v2.58h-3Zm.06,3.72h2.84v10.72h-2.84Z"/><path class="cls-1" d="M474.89,332.17v-.12c0-2.36,1.54-3.42,3.74-3.42a5.8,5.8,0,0,1,2.24.44v-.32c0-1.24-.74-1.88-2-1.88a6.09,6.09,0,0,0-2.46.6l-.78-2.22a7.67,7.67,0,0,1,3.66-.86,3.87,3.87,0,0,1,4.36,4.34v6.5h-2.78v-1.16a3.3,3.3,0,0,1-2.78,1.36A3.05,3.05,0,0,1,474.89,332.17Zm6-.46v-.9a3.83,3.83,0,0,0-1.58-.34c-1,0-1.7.52-1.7,1.5v0a1.26,1.26,0,0,0,1.38,1.34A1.7,1.7,0,0,0,480.91,331.71Z"/><path class="cls-1" d="M485.87,337.39l.88-2.2a6.29,6.29,0,0,0,3,.78c1.78,0,2.64-.82,2.64-2.54v-.68a3.58,3.58,0,0,1-3,1.68c-2.12,0-4-1.66-4-5v-.06c0-3.38,1.9-5,4-5a3.62,3.62,0,0,1,3,1.58v-1.38h2.84v8.76A5.13,5.13,0,0,1,494,337a5.62,5.62,0,0,1-4.08,1.28A9.46,9.46,0,0,1,485.87,337.39Zm6.58-8v0c0-1.58-.9-2.6-2.1-2.6s-2.08,1-2.08,2.6v0c0,1.62.88,2.62,2.08,2.62S492.45,331,492.45,329.37Z"/><path class="cls-1" d="M497.53,324.51h2.84V326a3.28,3.28,0,0,1,2.76-1.64c2,0,3.16,1.4,3.16,3.62v7.3h-2.84v-6.46c0-1.26-.56-1.9-1.52-1.9s-1.56.64-1.56,1.9v6.46h-2.84Z"/><path class="cls-1" d="M508.07,330v-.22c0-3.18,2.16-5.48,5.06-5.48s5,2.26,5,5.46V330c0,3.18-2.14,5.48-5,5.48S508.07,333.21,508.07,330Zm7.28,0v-.14c0-1.74-.88-3.06-2.24-3.06s-2.24,1.3-2.24,3V330c0,1.72.9,3.06,2.26,3.06S515.35,331.71,515.35,330Z"/><path class="cls-1" d="M519.21,334l1.24-2a5,5,0,0,0,2.86,1.2c.8,0,1.14-.38,1.14-.82v0c0-.62-.8-.88-2-1.38-1.52-.66-2.82-1.42-2.82-3.24v0c0-2.06,1.6-3.28,3.68-3.28a6.33,6.33,0,0,1,3.54,1.16l-1.14,2a4.87,4.87,0,0,0-2.44-.92c-.68,0-1,.34-1,.76v0c0,.56.8.88,1.94,1.4,1.56.74,2.84,1.52,2.84,3.22v0c0,2.22-1.64,3.34-3.78,3.34A6.49,6.49,0,0,1,519.21,334Z"/><path class="cls-1" d="M529.05,332.55v-5.64H528v-2.4h1.08v-2.74h2.84v2.74H534v2.4h-2.12V332c0,.62.28.92.88.92a2.75,2.75,0,0,0,1.22-.3v2.26a4.13,4.13,0,0,1-2.1.56C530.25,335.41,529.05,334.77,529.05,332.55Z"/><path class="cls-1" d="M535.91,320.79h3v2.58h-3Zm.06,3.72h2.84v10.72H536Z"/><path class="cls-1" d="M540.79,330v-.24c0-3.18,2.06-5.48,5-5.48a4.59,4.59,0,0,1,3.5,1.44l-1.54,2.06a2.54,2.54,0,0,0-1.92-1c-1.3,0-2.18,1.24-2.18,3v.08c0,1.78.82,3,2.24,3a2.57,2.57,0,0,0,1.94-1l1.5,1.88a4.56,4.56,0,0,1-3.64,1.64C542.81,335.47,540.79,333.19,540.79,330Z"/><path class="cls-1" d="M550.07,334l1.24-2a5,5,0,0,0,2.86,1.2c.8,0,1.14-.38,1.14-.82v0c0-.62-.8-.88-2-1.38-1.52-.66-2.82-1.42-2.82-3.24v0c0-2.06,1.6-3.28,3.68-3.28a6.33,6.33,0,0,1,3.54,1.16l-1.14,2a4.87,4.87,0,0,0-2.44-.92c-.68,0-1,.34-1,.76v0c0,.56.8.88,1.94,1.4,1.56.74,2.84,1.52,2.84,3.22v0c0,2.22-1.64,3.34-3.78,3.34A6.49,6.49,0,0,1,550.07,334Z"/><rect class="cls-3" x="247" y="872.56" width="242" height="99.38" rx="10" ry="10"/><path class="cls-1" d="M321,913.78h3l3.12,5.68,3.08-5.68h3.06v14h-2.84v-8.94l-3.3,5.78h-.06l-3.28-5.74v8.9H321Z"/><path class="cls-1" d="M335.41,922.56v-.22c0-3.18,2.16-5.48,5.06-5.48s5,2.26,5,5.46v.22c0,3.18-2.14,5.48-5,5.48S335.41,925.76,335.41,922.56Zm7.28,0v-.14c0-1.74-.88-3.06-2.24-3.06s-2.24,1.3-2.24,3v.14c0,1.72.9,3.06,2.26,3.06S342.69,924.26,342.69,922.52Z"/><path class="cls-1" d="M347.37,917.06h2.84v1.44a3.28,3.28,0,0,1,2.76-1.64c2,0,3.16,1.4,3.16,3.62v7.3h-2.84v-6.46c0-1.26-.56-1.9-1.52-1.9s-1.56.64-1.56,1.9v6.46h-2.84Z"/><path class="cls-1" d="M358.37,913.34h3v2.58h-3Zm.06,3.72h2.84v10.72h-2.84Z"/><path class="cls-1" d="M364.11,925.1v-5.64H363v-2.4h1.08v-2.74H367v2.74h2.12v2.4H367v5.06c0,.62.28.92.88.92a2.75,2.75,0,0,0,1.22-.3v2.26a4.13,4.13,0,0,1-2.1.56C365.31,928,364.11,927.32,364.11,925.1Z"/><path class="cls-1" d="M370.23,922.56v-.22c0-3.18,2.16-5.48,5.06-5.48s5,2.26,5,5.46v.22c0,3.18-2.14,5.48-5,5.48S370.23,925.76,370.23,922.56Zm7.28,0v-.14c0-1.74-.88-3.06-2.24-3.06s-2.24,1.3-2.24,3v.14c0,1.72.9,3.06,2.26,3.06S377.51,924.26,377.51,922.52Z"/><path class="cls-1" d="M382.19,917.06H385V919a2.81,2.81,0,0,1,2.9-2.08V920h-.12c-1.74,0-2.78,1.08-2.78,3.32v4.5h-2.84Z"/><path class="cls-1" d="M389.57,913.34h3v2.58h-3Zm.06,3.72h2.84v10.72h-2.84Z"/><path class="cls-1" d="M394.87,917.06h2.84v1.44a3.28,3.28,0,0,1,2.76-1.64c2,0,3.16,1.4,3.16,3.62v7.3h-2.84v-6.46c0-1.26-.56-1.9-1.52-1.9s-1.56.64-1.56,1.9v6.46h-2.84Z"/><path class="cls-1" d="M405.89,929.94l.88-2.2a6.29,6.29,0,0,0,3,.78c1.78,0,2.64-.82,2.64-2.54v-.68a3.58,3.58,0,0,1-3,1.68c-2.12,0-4-1.66-4-5v-.06c0-3.38,1.9-5,4-5a3.62,3.62,0,0,1,3,1.58v-1.38h2.84v8.76a5.13,5.13,0,0,1-1.22,3.74,5.62,5.62,0,0,1-4.08,1.28A9.46,9.46,0,0,1,405.89,929.94Zm6.58-8v0c0-1.58-.9-2.6-2.1-2.6s-2.08,1-2.08,2.6v0c0,1.62.88,2.62,2.08,2.62S412.47,923.52,412.47,921.92Z"/><rect class="cls-3" x="700" y="280.01" width="242" height="99.38" rx="10" ry="10"/><path class="cls-1" d="M783.31,321.23h5.26a5.2,5.2,0,0,1,3.8,1.34,4.43,4.43,0,0,1,1.18,3.24v.08A4.22,4.22,0,0,1,791,330l3,5.2h-3.32l-2.58-4.6h-1.82v4.6h-2.9Zm5,6.84a2,2,0,0,0,2.28-2.1v0c0-1.4-.86-2.1-2.34-2.1h-2.08v4.22Z"/><path class="cls-1" d="M795,330v-.22c0-3.18,2.16-5.48,5.06-5.48s5,2.26,5,5.46V330c0,3.18-2.14,5.48-5,5.48S795,333.21,795,330Zm7.28,0v-.14c0-1.74-.88-3.06-2.24-3.06s-2.24,1.3-2.24,3V330c0,1.72.9,3.06,2.26,3.06S802.25,331.71,802.25,330Z"/><path class="cls-1" d="M809.77,333.85v1.38h-2.84V320.79h2.84V326a3.39,3.39,0,0,1,2.9-1.68c2.12,0,4.08,1.74,4.08,5.4V330c0,3.66-1.94,5.4-4.08,5.4A3.48,3.48,0,0,1,809.77,333.85Zm4.14-3.88v-.2c0-1.82-.9-3-2.08-3s-2.1,1.16-2.1,3v.2c0,1.82.92,3,2.1,3S813.91,331.79,813.91,330Z"/><path class="cls-1" d="M818.23,330v-.22c0-3.18,2.16-5.48,5.06-5.48s5,2.26,5,5.46V330c0,3.18-2.14,5.48-5,5.48S818.23,333.21,818.23,330Zm7.28,0v-.14c0-1.74-.88-3.06-2.24-3.06s-2.24,1.3-2.24,3V330c0,1.72.9,3.06,2.26,3.06S825.51,331.71,825.51,330Z"/><path class="cls-1" d="M830.63,332.55v-5.64h-1.08v-2.4h1.08v-2.74h2.84v2.74h2.12v2.4h-2.12V332c0,.62.28.92.88.92a2.75,2.75,0,0,0,1.22-.3v2.26a4.13,4.13,0,0,1-2.1.56C831.83,335.41,830.63,334.77,830.63,332.55Z"/><path class="cls-1" d="M837.49,320.79h3v2.58h-3Zm.06,3.72h2.84v10.72h-2.84Z"/><path class="cls-1" d="M842.37,330v-.24c0-3.18,2.06-5.48,5-5.48a4.59,4.59,0,0,1,3.5,1.44l-1.54,2.06a2.54,2.54,0,0,0-1.92-1c-1.3,0-2.18,1.24-2.18,3v.08c0,1.78.82,3,2.24,3a2.57,2.57,0,0,0,1.94-1l1.5,1.88a4.56,4.56,0,0,1-3.64,1.64C844.39,335.47,842.37,333.19,842.37,330Z"/><path class="cls-1" d="M851.65,334l1.24-2a5,5,0,0,0,2.86,1.2c.8,0,1.14-.38,1.14-.82v0c0-.62-.8-.88-2-1.38-1.52-.66-2.82-1.42-2.82-3.24v0c0-2.06,1.6-3.28,3.68-3.28a6.33,6.33,0,0,1,3.54,1.16l-1.14,2a4.87,4.87,0,0,0-2.44-.92c-.68,0-1,.34-1,.76v0c0,.56.8.88,1.94,1.4,1.56.74,2.84,1.52,2.84,3.22v0c0,2.22-1.64,3.34-3.78,3.34A6.49,6.49,0,0,1,851.65,334Z"/><rect class="cls-3" x="978" y="280.01" width="242" height="99.38" rx="10" ry="10"/><path class="cls-1" d="M1047.88,321.23h4.52c4.06,0,6.68,2.8,6.68,6.9v.18c0,4.1-2.62,6.92-6.68,6.92h-4.52Zm2.9,2.62v8.76h1.6c2.2,0,3.7-1.54,3.7-4.32v-.1c0-2.78-1.5-4.34-3.7-4.34Z"/><path class="cls-1" d="M1061.14,320.79h3v2.58h-3Zm.06,3.72H1064v10.72h-2.84Z"/><path class="cls-1" d="M1066.5,337.39l.88-2.2a6.29,6.29,0,0,0,3,.78c1.78,0,2.64-.82,2.64-2.54v-.68a3.58,3.58,0,0,1-3,1.68c-2.12,0-4-1.66-4-5v-.06c0-3.38,1.9-5,4-5a3.62,3.62,0,0,1,3,1.58v-1.38h2.84v8.76a5.13,5.13,0,0,1-1.22,3.74,5.62,5.62,0,0,1-4.08,1.28A9.46,9.46,0,0,1,1066.5,337.39Zm6.58-8v0c0-1.58-.9-2.6-2.1-2.6s-2.08,1-2.08,2.6v0c0,1.62.88,2.62,2.08,2.62S1073.08,331,1073.08,329.37Z"/><path class="cls-1" d="M1078.2,320.79h3v2.58h-3Zm.06,3.72h2.84v10.72h-2.84Z"/><path class="cls-1" d="M1083.94,332.55v-5.64h-1.08v-2.4h1.08v-2.74h2.84v2.74h2.12v2.4h-2.12V332c0,.62.28.92.88.92a2.75,2.75,0,0,0,1.22-.3v2.26a4.13,4.13,0,0,1-2.1.56C1085.14,335.41,1083.94,334.77,1083.94,332.55Z"/><path class="cls-1" d="M1090.2,332.17v-.12c0-2.36,1.54-3.42,3.74-3.42a5.8,5.8,0,0,1,2.24.44v-.32c0-1.24-.74-1.88-2-1.88a6.09,6.09,0,0,0-2.46.6l-.78-2.22a7.67,7.67,0,0,1,3.66-.86,3.87,3.87,0,0,1,4.36,4.34v6.5h-2.78v-1.16a3.3,3.3,0,0,1-2.78,1.36A3.05,3.05,0,0,1,1090.2,332.17Zm6-.46v-.9a3.83,3.83,0,0,0-1.58-.34c-1,0-1.7.52-1.7,1.5v0a1.26,1.26,0,0,0,1.38,1.34A1.7,1.7,0,0,0,1096.22,331.71Z"/><path class="cls-1" d="M1101.22,320.79h2.84v14.44h-2.84Z"/><path class="cls-1" d="M1113.88,323.91h-3.52v-2.68h9.92v2.68h-3.52v11.32h-2.88Z"/><path class="cls-1" d="M1120.44,324.51h2.86l1.46,6.34,1.66-6.38h2.42l1.68,6.4,1.48-6.36h2.82l-2.88,10.8h-2.62l-1.7-6.36-1.74,6.36h-2.6Z"/><path class="cls-1" d="M1136.4,320.79h3v2.58h-3Zm.06,3.72h2.84v10.72h-2.84Z"/><path class="cls-1" d="M1141.7,324.51h2.84V326a3.28,3.28,0,0,1,2.76-1.64c2,0,3.16,1.4,3.16,3.62v7.3h-2.84v-6.46c0-1.26-.56-1.9-1.52-1.9s-1.56.64-1.56,1.9v6.46h-2.84Z"/><rect class="cls-3" x="700" y="872.56" width="242" height="99.38" rx="10" ry="10"/><path class="cls-1" d="M799.15,917.06h3l2,7.12,2-7.12H809l-3.6,10.8h-2.64Z"/><path class="cls-1" d="M810.75,913.78h4.66c3.14,0,5.12,1.82,5.12,4.8v0c0,3.22-2.3,4.84-5.24,4.9h-1.64v4.26h-2.9Zm4.52,7.14a2.14,2.14,0,0,0,2.34-2.24v0a2.09,2.09,0,0,0-2.38-2.26h-1.58v4.52Z"/><path class="cls-1" d="M822.43,913.78h2.9v11.34H831v2.66h-8.56Z"/><path class="cls-1" d="M831.71,920.88v-.18c0-4.24,2.64-7.12,6.34-7.12a5.88,5.88,0,0,1,4.5,1.86l-1.74,2.24a3.9,3.9,0,0,0-2.86-1.4c-1.88,0-3.26,1.74-3.26,4.46v.06c0,2.78,1.44,4.48,3.3,4.48a3.94,3.94,0,0,0,2.88-1.46l1.74,2.06a6.08,6.08,0,0,1-4.74,2.1C834.19,928,831.71,925.16,831.71,920.88Z"/><rect class="cls-3" x="978" y="872.56" width="242" height="99.38" rx="10" ry="10"/><path class="cls-1" d="M1083.3,913.78h2.9v5.62h4.6v-5.62h2.9v14h-2.9v-5.7h-4.6v5.7h-2.9Z"/><path class="cls-1" d="M1096.5,913.78h3l3.12,5.68,3.08-5.68h3.06v14H1106v-8.94l-3.3,5.78h-.06l-3.28-5.74v8.9h-2.82Z"/><path class="cls-1" d="M1111.7,913.78h2.9v14h-2.9Z"/><line class="cls-6" x1="419.74" y1="476.13" x2="496.05" y2="374.38"/><line class="cls-6" x1="316.93" y1="475.97" x2="240.74" y2="374.38"/><rect class="cls-3" x="1291.91" y="280.01" width="242" height="99.38" rx="10" ry="10"/><path class="cls-1" d="M1329.41,310.23h2.9v14h-2.9Z"/><path class="cls-1" d="M1335,313.51h2.84V315a3.28,3.28,0,0,1,2.76-1.64c2,0,3.16,1.4,3.16,3.62v7.3h-2.84v-6.46c0-1.26-.56-1.9-1.52-1.9s-1.56.64-1.56,1.9v6.46H1335Z"/><path class="cls-1" d="M1346.33,321.55v-5.64h-1.08v-2.4h1.08v-2.74h2.84v2.74h2.12v2.4h-2.12V321c0,.62.28.92.88.92a2.75,2.75,0,0,0,1.22-.3v2.26a4.13,4.13,0,0,1-2.1.56C1347.53,324.41,1346.33,323.77,1346.33,321.55Z"/><path class="cls-1" d="M1353.15,313.51H1356v1.9a2.81,2.81,0,0,1,2.9-2.08v3.08h-.12c-1.74,0-2.78,1.08-2.78,3.32v4.5h-2.84Z"/><path class="cls-1" d="M1360.43,320.81v-7.3h2.82V320c0,1.26.56,1.9,1.52,1.9s1.56-.64,1.56-1.9v-6.46h2.84v10.72h-2.84v-1.44a3.24,3.24,0,0,1-2.74,1.64C1361.57,324.43,1360.43,323,1360.43,320.81Z"/><path class="cls-1" d="M1370.63,323l1.24-2a5,5,0,0,0,2.86,1.2c.8,0,1.14-.38,1.14-.82v0c0-.62-.8-.88-2-1.38-1.52-.66-2.82-1.42-2.82-3.24v0c0-2.06,1.6-3.28,3.68-3.28a6.33,6.33,0,0,1,3.54,1.16l-1.14,2a4.87,4.87,0,0,0-2.44-.92c-.68,0-1,.34-1,.76v0c0,.56.8.88,1.94,1.4,1.56.74,2.84,1.52,2.84,3.22v0c0,2.22-1.64,3.34-3.78,3.34A6.49,6.49,0,0,1,1370.63,323Z"/><path class="cls-1" d="M1380.25,309.79h3v2.58h-3Zm.06,3.72h2.84v10.72h-2.84Z"/><path class="cls-1" d="M1385.13,319v-.22c0-3.18,2.16-5.48,5.06-5.48s5,2.26,5,5.46V319c0,3.18-2.14,5.48-5,5.48S1385.13,322.21,1385.13,319Zm7.28,0v-.14c0-1.74-.88-3.06-2.24-3.06s-2.24,1.3-2.24,3V319c0,1.72.9,3.06,2.26,3.06S1392.41,320.71,1392.41,319Z"/><path class="cls-1" d="M1397.09,313.51h2.84V315a3.28,3.28,0,0,1,2.76-1.64c2,0,3.16,1.4,3.16,3.62v7.3H1403v-6.46c0-1.26-.56-1.9-1.52-1.9s-1.56.64-1.56,1.9v6.46h-2.84Z"/><path class="cls-1" d="M1412.79,310.23h4.52c4.06,0,6.68,2.8,6.68,6.9v.18c0,4.1-2.62,6.92-6.68,6.92h-4.52Zm2.9,2.62v8.76h1.6c2.2,0,3.7-1.54,3.7-4.32v-.1c0-2.78-1.5-4.34-3.7-4.34Z"/><path class="cls-1" d="M1425.57,319v-.18c0-3.18,2-5.5,4.68-5.5,3.06,0,4.56,2.5,4.56,5.7,0,.16,0,.5,0,.92h-6.4a2.29,2.29,0,0,0,2.32,2.16A3.13,3.13,0,0,0,1433,321l1.46,1.72a5,5,0,0,1-3.82,1.72C1427.75,324.47,1425.57,322.33,1425.57,319Zm6.5-.94c-.12-1.48-.76-2.4-1.82-2.4s-1.72.88-1.88,2.4Z"/><path class="cls-1" d="M1437.09,321.55v-5.64H1436v-2.4h1.08v-2.74h2.84v2.74h2.12v2.4h-2.12V321c0,.62.28.92.88.92a2.75,2.75,0,0,0,1.22-.3v2.26a4.13,4.13,0,0,1-2.1.56C1438.29,324.41,1437.09,323.77,1437.09,321.55Z"/><path class="cls-1" d="M1443.19,319v-.18c0-3.18,2-5.5,4.68-5.5,3.06,0,4.56,2.5,4.56,5.7,0,.16,0,.5,0,.92H1446a2.29,2.29,0,0,0,2.32,2.16,3.13,3.13,0,0,0,2.24-1.06l1.46,1.72a5,5,0,0,1-3.82,1.72C1445.37,324.47,1443.19,322.33,1443.19,319Zm6.5-.94c-.12-1.48-.76-2.4-1.82-2.4s-1.72.88-1.88,2.4Z"/><path class="cls-1" d="M1453.87,319v-.24c0-3.18,2.06-5.48,5-5.48a4.59,4.59,0,0,1,3.5,1.44l-1.54,2.06a2.54,2.54,0,0,0-1.92-1c-1.3,0-2.18,1.24-2.18,3v.08c0,1.78.82,3,2.24,3a2.57,2.57,0,0,0,1.94-1l1.5,1.88a4.56,4.56,0,0,1-3.64,1.64C1455.89,324.47,1453.87,322.19,1453.87,319Z"/><path class="cls-1" d="M1464.39,321.55v-5.64h-1.08v-2.4h1.08v-2.74h2.84v2.74h2.12v2.4h-2.12V321c0,.62.28.92.88.92a2.75,2.75,0,0,0,1.22-.3v2.26a4.13,4.13,0,0,1-2.1.56C1465.59,324.41,1464.39,323.77,1464.39,321.55Z"/><path class="cls-1" d="M1471.25,309.79h3v2.58h-3Zm.06,3.72h2.84v10.72h-2.84Z"/><path class="cls-1" d="M1476.13,319v-.22c0-3.18,2.16-5.48,5.06-5.48s5,2.26,5,5.46V319c0,3.18-2.14,5.48-5,5.48S1476.13,322.21,1476.13,319Zm7.28,0v-.14c0-1.74-.88-3.06-2.24-3.06s-2.24,1.3-2.24,3V319c0,1.72.9,3.06,2.26,3.06S1483.41,320.71,1483.41,319Z"/><path class="cls-1" d="M1488.09,313.51h2.84V315a3.28,3.28,0,0,1,2.76-1.64c2,0,3.16,1.4,3.16,3.62v7.3H1494v-6.46c0-1.26-.56-1.9-1.52-1.9s-1.56.64-1.56,1.9v6.46h-2.84Z"/><path class="cls-1" d="M1324.83,334.23h2.9v14h-2.9Z"/><path class="cls-1" d="M1330.37,337.51h2.84V339a3.28,3.28,0,0,1,2.76-1.64c2,0,3.16,1.4,3.16,3.62v7.3h-2.84v-6.46c0-1.26-.56-1.9-1.52-1.9s-1.56.64-1.56,1.9v6.46h-2.84Z"/><path class="cls-1" d="M1341.75,345.55v-5.64h-1.08v-2.4h1.08v-2.74h2.84v2.74h2.12v2.4h-2.12V345c0,.62.28.92.88.92a2.75,2.75,0,0,0,1.22-.3v2.26a4.13,4.13,0,0,1-2.1.56C1343,348.41,1341.75,347.77,1341.75,345.55Z"/><path class="cls-1" d="M1348.57,337.51h2.84v1.9a2.81,2.81,0,0,1,2.9-2.08v3.08h-.12c-1.74,0-2.78,1.08-2.78,3.32v4.5h-2.84Z"/><path class="cls-1" d="M1355.85,344.81v-7.3h2.82V344c0,1.26.56,1.9,1.52,1.9s1.56-.64,1.56-1.9v-6.46h2.84v10.72h-2.84v-1.44a3.24,3.24,0,0,1-2.74,1.64C1357,348.43,1355.85,347,1355.85,344.81Z"/><path class="cls-1" d="M1366.05,347l1.24-2a5,5,0,0,0,2.86,1.2c.8,0,1.14-.38,1.14-.82v0c0-.62-.8-.88-2-1.38-1.52-.66-2.82-1.42-2.82-3.24v0c0-2.06,1.6-3.28,3.68-3.28a6.33,6.33,0,0,1,3.54,1.16l-1.14,2a4.87,4.87,0,0,0-2.44-.92c-.68,0-1,.34-1,.76v0c0,.56.8.88,1.94,1.4,1.56.74,2.84,1.52,2.84,3.22v0c0,2.22-1.64,3.34-3.78,3.34A6.49,6.49,0,0,1,1366.05,347Z"/><path class="cls-1" d="M1375.67,333.79h3v2.58h-3Zm.06,3.72h2.84v10.72h-2.84Z"/><path class="cls-1" d="M1380.55,343v-.22c0-3.18,2.16-5.48,5.06-5.48s5,2.26,5,5.46V343c0,3.18-2.14,5.48-5,5.48S1380.55,346.21,1380.55,343Zm7.28,0v-.14c0-1.74-.88-3.06-2.24-3.06s-2.24,1.3-2.24,3V343c0,1.72.9,3.06,2.26,3.06S1387.83,344.71,1387.83,343Z"/><path class="cls-1" d="M1392.51,337.51h2.84V339a3.28,3.28,0,0,1,2.76-1.64c2,0,3.16,1.4,3.16,3.62v7.3h-2.84v-6.46c0-1.26-.56-1.9-1.52-1.9s-1.56.64-1.56,1.9v6.46h-2.84Z"/><path class="cls-1" d="M1408.21,334.23h4.66c3.14,0,5.12,1.82,5.12,4.8v0c0,3.22-2.3,4.84-5.24,4.9h-1.64v4.26h-2.9Zm4.52,7.14a2.14,2.14,0,0,0,2.34-2.24v0a2.09,2.09,0,0,0-2.38-2.26h-1.58v4.52Z"/><path class="cls-1" d="M1419.63,337.51h2.84v1.9a2.81,2.81,0,0,1,2.9-2.08v3.08h-.12c-1.74,0-2.78,1.08-2.78,3.32v4.5h-2.84Z"/><path class="cls-1" d="M1426.23,343v-.18c0-3.18,2-5.5,4.68-5.5,3.06,0,4.56,2.5,4.56,5.7,0,.16,0,.5,0,.92h-6.4a2.29,2.29,0,0,0,2.32,2.16,3.13,3.13,0,0,0,2.24-1.06l1.46,1.72a5,5,0,0,1-3.82,1.72C1428.41,348.47,1426.23,346.33,1426.23,343Zm6.5-.94c-.12-1.48-.76-2.4-1.82-2.4s-1.72.88-1.88,2.4Z"/><path class="cls-1" d="M1436.13,337.51h3l2,7.12,2-7.12H1446l-3.6,10.8h-2.64Z"/><path class="cls-1" d="M1446.49,343v-.18c0-3.18,2-5.5,4.68-5.5,3.06,0,4.56,2.5,4.56,5.7,0,.16,0,.5,0,.92h-6.4a2.29,2.29,0,0,0,2.32,2.16,3.13,3.13,0,0,0,2.24-1.06l1.46,1.72a5,5,0,0,1-3.82,1.72C1448.67,348.47,1446.49,346.33,1446.49,343Zm6.5-.94c-.12-1.48-.76-2.4-1.82-2.4s-1.72.88-1.88,2.4Z"/><path class="cls-1" d="M1457.59,337.51h2.84V339a3.28,3.28,0,0,1,2.76-1.64c2,0,3.16,1.4,3.16,3.62v7.3h-2.84v-6.46c0-1.26-.56-1.9-1.52-1.9s-1.56.64-1.56,1.9v6.46h-2.84Z"/><path class="cls-1" d="M1469,345.55v-5.64h-1.08v-2.4H1469v-2.74h2.84v2.74h2.12v2.4h-2.12V345c0,.62.28.92.88.92a2.75,2.75,0,0,0,1.22-.3v2.26a4.13,4.13,0,0,1-2.1.56C1470.17,348.41,1469,347.77,1469,345.55Z"/><path class="cls-1" d="M1475.83,333.79h3v2.58h-3Zm.06,3.72h2.84v10.72h-2.84Z"/><path class="cls-1" d="M1480.71,343v-.22c0-3.18,2.16-5.48,5.06-5.48s5,2.26,5,5.46V343c0,3.18-2.14,5.48-5,5.48S1480.71,346.21,1480.71,343Zm7.28,0v-.14c0-1.74-.88-3.06-2.24-3.06s-2.24,1.3-2.24,3V343c0,1.72.9,3.06,2.26,3.06S1488,344.71,1488,343Z"/><path class="cls-1" d="M1492.67,337.51h2.84V339a3.28,3.28,0,0,1,2.76-1.64c2,0,3.16,1.4,3.16,3.62v7.3h-2.84v-6.46c0-1.26-.56-1.9-1.52-1.9s-1.56.64-1.56,1.9v6.46h-2.84Z"/><rect class="cls-3" x="1569.91" y="280.01" width="242" height="99.38" rx="10" ry="10"/><path class="cls-1" d="M1617.69,328.33v-.18c0-4.24,2.64-7.12,6.34-7.12a5.88,5.88,0,0,1,4.5,1.86l-1.74,2.24a3.9,3.9,0,0,0-2.86-1.4c-1.88,0-3.26,1.74-3.26,4.46v.06c0,2.78,1.44,4.48,3.3,4.48a3.94,3.94,0,0,0,2.88-1.46l1.74,2.06a6.08,6.08,0,0,1-4.74,2.1C1620.17,335.43,1617.69,332.61,1617.69,328.33Z"/><path class="cls-1" d="M1629.59,330v-.22c0-3.18,2.16-5.48,5.06-5.48s5,2.26,5,5.46V330c0,3.18-2.14,5.48-5,5.48S1629.59,333.21,1629.59,330Zm7.28,0v-.14c0-1.74-.88-3.06-2.24-3.06s-2.24,1.3-2.24,3V330c0,1.72.9,3.06,2.26,3.06S1636.87,331.71,1636.87,330Z"/><path class="cls-1" d="M1641.55,324.51h2.84V326a3.28,3.28,0,0,1,2.76-1.64c2,0,3.16,1.4,3.16,3.62v7.3h-2.84v-6.46c0-1.26-.56-1.9-1.52-1.9s-1.56.64-1.56,1.9v6.46h-2.84Z"/><path class="cls-1" d="M1652.93,332.55v-5.64h-1.08v-2.4h1.08v-2.74h2.84v2.74h2.12v2.4h-2.12V332c0,.62.28.92.88.92a2.75,2.75,0,0,0,1.22-.3v2.26a4.13,4.13,0,0,1-2.1.56C1654.13,335.41,1652.93,334.77,1652.93,332.55Z"/><path class="cls-1" d="M1659,330v-.18c0-3.18,2-5.5,4.68-5.5,3.06,0,4.56,2.5,4.56,5.7,0,.16,0,.5,0,.92h-6.4a2.29,2.29,0,0,0,2.32,2.16,3.13,3.13,0,0,0,2.24-1.06l1.46,1.72a5,5,0,0,1-3.82,1.72C1661.21,335.47,1659,333.33,1659,330Zm6.5-.94c-.12-1.48-.76-2.4-1.82-2.4s-1.72.88-1.88,2.4Z"/><path class="cls-1" d="M1670.13,324.51H1673V326a3.28,3.28,0,0,1,2.76-1.64c2,0,3.16,1.4,3.16,3.62v7.3h-2.84v-6.46c0-1.26-.56-1.9-1.52-1.9s-1.56.64-1.56,1.9v6.46h-2.84Z"/><path class="cls-1" d="M1681.51,332.55v-5.64h-1.08v-2.4h1.08v-2.74h2.84v2.74h2.12v2.4h-2.12V332c0,.62.28.92.88.92a2.75,2.75,0,0,0,1.22-.3v2.26a4.13,4.13,0,0,1-2.1.56C1682.71,335.41,1681.51,334.77,1681.51,332.55Z"/><path class="cls-1" d="M1693.07,321.23h4.52c4.06,0,6.68,2.8,6.68,6.9v.18c0,4.1-2.62,6.92-6.68,6.92h-4.52Zm2.9,2.62v8.76h1.6c2.2,0,3.7-1.54,3.7-4.32v-.1c0-2.78-1.5-4.34-3.7-4.34Z"/><path class="cls-1" d="M1705.85,330v-.18c0-3.18,2-5.5,4.68-5.5,3.06,0,4.56,2.5,4.56,5.7,0,.16,0,.5,0,.92h-6.4a2.29,2.29,0,0,0,2.32,2.16,3.13,3.13,0,0,0,2.24-1.06l1.46,1.72a5,5,0,0,1-3.82,1.72C1708,335.47,1705.85,333.33,1705.85,330Zm6.5-.94c-.12-1.48-.76-2.4-1.82-2.4s-1.72.88-1.88,2.4Z"/><path class="cls-1" d="M1717.05,320.79h2.84v14.44h-2.84Z"/><path class="cls-1" d="M1722.33,320.79h3v2.58h-3Zm.06,3.72h2.84v10.72h-2.84Z"/><path class="cls-1" d="M1726.83,324.51h3l2,7.12,2-7.12h2.88l-3.6,10.8h-2.64Z"/><path class="cls-1" d="M1737.19,330v-.18c0-3.18,2-5.5,4.68-5.5,3.06,0,4.56,2.5,4.56,5.7,0,.16,0,.5,0,.92H1740a2.29,2.29,0,0,0,2.32,2.16,3.13,3.13,0,0,0,2.24-1.06l1.46,1.72a5,5,0,0,1-3.82,1.72C1739.37,335.47,1737.19,333.33,1737.19,330Zm6.5-.94c-.12-1.48-.76-2.4-1.82-2.4s-1.72.88-1.88,2.4Z"/><path class="cls-1" d="M1748.29,324.51h2.84v1.9a2.81,2.81,0,0,1,2.9-2.08v3.08h-.12c-1.74,0-2.78,1.08-2.78,3.32v4.5h-2.84Z"/><path class="cls-1" d="M1761.77,324.51h2.88l-3.52,10.86c-.72,2.14-1.54,3-3.22,3a4.52,4.52,0,0,1-2.3-.64l.78-2.12a2.46,2.46,0,0,0,1.16.36.88.88,0,0,0,.92-.68l-3.64-10.74h3l2,7.1Z"/><rect class="cls-3" x="1430.91" y="872.56" width="242" height="99.38" rx="10" ry="10"/><path class="cls-1" d="M1513.94,925.9l1.72-2.14a5.37,5.37,0,0,0,3.48,1.58c1.12,0,1.8-.56,1.8-1.38v0c0-.7-.4-1.14-2.4-1.9-2.48-1-4-1.9-4-4.3v0c0-2.44,1.88-4.1,4.58-4.1a6.66,6.66,0,0,1,4.52,1.72l-1.62,2.2a4.9,4.9,0,0,0-3-1.3c-1,0-1.62.5-1.62,1.22v0c0,.8.48,1.18,2.66,2.08,2.44,1,3.76,2,3.76,4.18v0c0,2.6-2,4.2-4.7,4.2A7.52,7.52,0,0,1,1513.94,925.9Z"/><path class="cls-1" d="M1526,913.78h4.52c4.06,0,6.68,2.8,6.68,6.9v.18c0,4.1-2.62,6.92-6.68,6.92H1526Zm2.9,2.62v8.76h1.6c2.2,0,3.7-1.54,3.7-4.32v-.1c0-2.78-1.5-4.34-3.7-4.34Z"/><path class="cls-1" d="M1539,920.2h5.86V923H1539Z"/><path class="cls-1" d="M1545.6,913.78h3.06L1551,923l2.56-9.26h2.52l2.58,9.26,2.34-9.22h3l-4,14.08h-2.66l-2.56-8.9-2.56,8.9h-2.64Z"/><path class="cls-1" d="M1568.48,913.7h2.76l5,14.08h-3l-1-3h-4.82l-1,3h-2.92Zm2.86,8.48-1.52-4.56-1.54,4.56Z"/><path class="cls-1" d="M1578,913.78h2.66l5.36,8.16v-8.16h2.84v14h-2.48l-5.54-8.46v8.46H1578Z"/><line class="cls-6" x1="1602.52" y1="477.65" x2="1679.97" y2="374.38"/><line class="cls-6" x1="1502.1" y1="477.65" x2="1424.65" y2="374.38"/><line class="cls-6" x1="1010.65" y1="477.6" x2="1088.05" y2="374.38"/><line class="cls-6" x1="910.15" y1="477.6" x2="832.74" y2="374.38"/><line class="cls-6" x1="909.35" y1="774.35" x2="831.95" y2="877.56"/><line class="cls-6" x1="1009.85" y1="774.35" x2="1087.26" y2="877.56"/></g></svg>