<?xml version="1.0" encoding="utf-8"?>
<!-- Generator: Adobe Illustrator 22.1.0, SVG Export Plug-In . SVG Version: 6.00 Build 0)  -->
<svg version="1.1" id="Layer_1" xmlns="http://www.w3.org/2000/svg" xmlns:xlink="http://www.w3.org/1999/xlink" x="0px" y="0px"
	 viewBox="0 0 595 633.7" style="enable-background:new 0 0 595 633.7;" xml:space="preserve">
<style type="text/css">
	.st0{clip-path:url(#SVGID_2_);}
	.st1{opacity:5.000310e-02;clip-path:url(#SVGID_4_);}
	.st2{clip-path:url(#SVGID_6_);fill:#231F20;}
	.st3{clip-path:url(#SVGID_2_);fill:#5956A5;}
	.st4{fill:#FFFFFF;}
	.st5{clip-path:url(#SVGID_8_);fill:none;stroke:#351D70;stroke-width:3;stroke-miterlimit:10;}
	.st6{clip-path:url(#SVGID_8_);fill:#FFFFFF;}
	.st7{clip-path:url(#SVGID_8_);fill:#351D70;}
	.st8{clip-path:url(#SVGID_8_);fill:#5956A5;}
	.st9{clip-path:url(#SVGID_8_);}
	.st10{clip-path:url(#SVGID_10_);fill:#351D70;}
	.st11{clip-path:url(#SVGID_10_);}
	.st12{clip-path:url(#SVGID_12_);fill:#351D70;}
	.st13{clip-path:url(#SVGID_12_);}
	.st14{clip-path:url(#SVGID_14_);fill:#351D70;}
	.st15{clip-path:url(#SVGID_14_);}
	.st16{clip-path:url(#SVGID_16_);fill:#FFFFFF;}
	.st17{clip-path:url(#SVGID_16_);fill:none;stroke:#351D70;stroke-width:3;stroke-miterlimit:10;}
</style>
<g>
	<defs>
		<rect id="SVGID_1_" width="595" height="633.7"/>
	</defs>
	<clipPath id="SVGID_2_">
		<use xlink:href="#SVGID_1_"  style="overflow:visible;"/>
	</clipPath>
	<g class="st0">
		<defs>
			<rect id="SVGID_3_" width="595" height="633.7"/>
		</defs>
		<clipPath id="SVGID_4_">
			<use xlink:href="#SVGID_3_"  style="overflow:visible;"/>
		</clipPath>
		<g class="st1">
			<g>
				<defs>
					<rect id="SVGID_5_" x="1.5" y="1.5" width="592" height="630.7"/>
				</defs>
				<clipPath id="SVGID_6_">
					<use xlink:href="#SVGID_5_"  style="overflow:visible;"/>
				</clipPath>
				<rect x="1.5" y="1.5" class="st2" width="592" height="630.7"/>
			</g>
		</g>
	</g>
	<rect x="1.5" y="1.5" class="st3" width="592" height="72"/>
	<g class="st0">
		<path class="st4" d="M155,25.1h4.3v21H155V25.1z"/>
		<path class="st4" d="M163.3,30h4.3v2.2c0.9-1.3,2.1-2.5,4.1-2.5c3,0,4.7,2.1,4.7,5.4v10.9h-4.3v-9.7c0-1.9-0.8-2.9-2.3-2.9
			c-1.4,0-2.3,1-2.3,2.9v9.7h-4.3V30z"/>
		<path class="st4" d="M179.2,38.3v-0.5c0-5.5,2.9-8.1,6.1-8.1c2.2,0,3.4,1.2,4.3,2.4v-7.6h4.3v21.7h-4.3v-2.2
			c-0.9,1.3-2.2,2.5-4.3,2.5C182.1,46.4,179.2,43.8,179.2,38.3z M189.7,38.2v-0.3c0-2.7-1.4-4.5-3.1-4.5s-3.1,1.7-3.1,4.5v0.3
			c0,2.7,1.3,4.5,3.1,4.5S189.7,41,189.7,38.2z"/>
		<path class="st4" d="M197.2,41V30h4.2v9.7c0,1.9,0.8,2.8,2.3,2.8s2.3-1,2.3-2.8V30h4.3v16.1h-4.3V44c-0.9,1.3-2.1,2.5-4.1,2.5
			C198.9,46.4,197.2,44.3,197.2,41z"/>
		<path class="st4" d="M212.5,44.2l1.9-3c1.4,1.1,3,1.8,4.3,1.8c1.2,0,1.7-0.6,1.7-1.2v-0.1c0-0.9-1.2-1.3-2.9-2.1
			c-2.3-1-4.2-2.1-4.2-4.9v-0.1c0-3.1,2.4-4.9,5.5-4.9c1.7,0,3.7,0.6,5.3,1.7l-1.7,3.1c-1.2-0.8-2.5-1.4-3.7-1.4
			c-1,0-1.6,0.5-1.6,1.1v0.1c0,0.8,1.2,1.3,2.9,2.1c2.3,1.1,4.3,2.3,4.3,4.8v0.1c0,3.3-2.5,5-5.7,5
			C216.7,46.4,214.5,45.8,212.5,44.2z"/>
		<path class="st4" d="M227.2,42.1v-8.5h-1.6V30h1.6v-4.1h4.3V30h3.2v3.6h-3.2v7.6c0,0.9,0.4,1.4,1.3,1.4c0.7,0,1.3-0.2,1.8-0.5v3.4
			c-0.8,0.5-1.9,0.8-3.1,0.8C229,46.4,227.2,45.4,227.2,42.1z"/>
		<path class="st4" d="M237.5,30h4.3v2.8c0.8-1.9,2.1-3.2,4.4-3.1v4.6h-0.2c-2.6,0-4.2,1.6-4.2,5v6.7h-4.3V30z"/>
		<path class="st4" d="M248.5,24.5h4.4v3.9h-4.4V24.5z M248.6,30h4.3v16.1h-4.3V30z"/>
		<path class="st4" d="M255.7,41.5v-0.2c0-3.5,2.3-5.1,5.6-5.1c1.3,0,2.4,0.3,3.4,0.7v-0.5c0-1.9-1.1-2.8-3-2.8
			c-1.5,0-2.7,0.5-3.7,0.9l-1.2-3.3c1.6-0.8,3.2-1.3,5.5-1.3c2.2,0,3.8,0.6,4.9,1.6c1.1,1.1,1.6,2.8,1.6,4.9v9.7h-4.2v-1.7
			c-1,1.3-2.3,2-4.2,2C257.8,46.4,255.7,44.7,255.7,41.5z M264.7,40.8v-1.4c-0.6-0.3-1.5-0.5-2.4-0.5c-1.6,0-2.5,0.8-2.5,2.2v0.1
			c0,1.3,0.8,2,2.1,2C263.5,43.3,264.7,42.3,264.7,40.8z"/>
		<path class="st4" d="M272.2,24.5h4.3v21.7h-4.3V24.5z"/>
		<path class="st4" d="M293.1,25h4.1l7.5,21.1h-4.5l-1.6-4.6h-7.2l-1.5,4.6h-4.4L293.1,25z M297.4,37.7l-2.3-6.8l-2.3,6.8H297.4z"/>
		<path class="st4" d="M306.6,41V30h4.2v9.7c0,1.9,0.8,2.8,2.3,2.8s2.3-1,2.3-2.8V30h4.3v16.1h-4.3V44c-0.9,1.3-2.1,2.5-4.1,2.5
			C308.3,46.4,306.6,44.3,306.6,41z"/>
		<path class="st4" d="M323.8,42.1v-8.5h-1.6V30h1.6v-4.1h4.3V30h3.2v3.6H328v7.6c0,0.9,0.4,1.4,1.3,1.4c0.7,0,1.3-0.2,1.8-0.5v3.4
			c-0.8,0.5-1.9,0.8-3.2,0.8C325.6,46.4,323.8,45.4,323.8,42.1z"/>
		<path class="st4" d="M332.9,38.3V38c0-4.8,3.2-8.2,7.6-8.2c4.3,0,7.5,3.4,7.5,8.2v0.3c0,4.8-3.2,8.2-7.6,8.2
			S332.9,43.1,332.9,38.3z M343.8,38.2V38c0-2.6-1.3-4.6-3.4-4.6c-2.1,0-3.4,1.9-3.4,4.6v0.2c0,2.6,1.3,4.6,3.4,4.6
			C342.6,42.8,343.8,40.8,343.8,38.2z"/>
		<path class="st4" d="M350.9,30h4.3v2.2c1-1.4,2.2-2.5,4.2-2.5c1.9,0,3.2,0.9,4,2.3c1.2-1.4,2.6-2.3,4.6-2.3c2.8,0,4.8,1.9,4.8,5.4
			v11h-4.2v-9.7c0-1.9-0.8-2.9-2.2-2.9s-2.3,1-2.3,2.9v9.7h-4.3v-9.7c0-1.9-0.8-2.9-2.2-2.9c-1.4,0-2.3,1-2.3,2.9v9.7h-4.3V30z"/>
		<path class="st4" d="M375.1,41.5v-0.2c0-3.5,2.3-5.1,5.6-5.1c1.3,0,2.4,0.3,3.4,0.7v-0.5c0-1.9-1.1-2.8-3-2.8
			c-1.5,0-2.7,0.5-3.7,0.9l-1.2-3.3c1.6-0.8,3.2-1.3,5.5-1.3c2.2,0,3.8,0.6,4.9,1.6c1.1,1.1,1.7,2.8,1.7,4.9v9.7H384v-1.7
			c-1,1.3-2.3,2-4.2,2C377.2,46.4,375.1,44.7,375.1,41.5z M384.1,40.8v-1.4c-0.6-0.3-1.5-0.5-2.4-0.5c-1.6,0-2.5,0.8-2.5,2.2v0.1
			c0,1.3,0.8,2,2.1,2C382.9,43.3,384.1,42.3,384.1,40.8z"/>
		<path class="st4" d="M392,42.1v-8.5h-1.6V30h1.6v-4.1h4.3V30h3.2v3.6h-3.2v7.6c0,0.9,0.4,1.4,1.3,1.4c0.7,0,1.3-0.2,1.8-0.5v3.4
			c-0.8,0.5-1.9,0.8-3.2,0.8C393.8,46.4,392,45.4,392,42.1z"/>
		<path class="st4" d="M402.3,24.5h4.4v3.9h-4.4V24.5z M402.4,30h4.3v16.1h-4.3V30z"/>
		<path class="st4" d="M409.6,38.3V38c0-4.8,3.2-8.2,7.6-8.2c4.3,0,7.5,3.4,7.5,8.2v0.3c0,4.8-3.2,8.2-7.6,8.2
			S409.6,43.1,409.6,38.3z M420.5,38.2V38c0-2.6-1.3-4.6-3.4-4.6c-2.1,0-3.4,1.9-3.4,4.6v0.2c0,2.6,1.3,4.6,3.4,4.6
			C419.3,42.8,420.5,40.8,420.5,38.2z"/>
		<path class="st4" d="M427.5,30h4.3v2.2c0.9-1.3,2.1-2.5,4.1-2.5c3,0,4.7,2.1,4.7,5.4v10.9h-4.3v-9.7c0-1.9-0.8-2.9-2.3-2.9
			c-1.4,0-2.3,1-2.3,2.9v9.7h-4.3V30z"/>
	</g>
	<g class="st0">
		<defs>
			<rect id="SVGID_7_" width="595" height="633.7"/>
		</defs>
		<clipPath id="SVGID_8_">
			<use xlink:href="#SVGID_7_"  style="overflow:visible;"/>
		</clipPath>
		<rect x="1.5" y="1.5" class="st5" width="592" height="630.7"/>
		<path class="st6" d="M209.7,459.4c-4.7,0-8.5-3.8-8.5-8.5v-196c0-4.7,3.8-8.5,8.5-8.5h175.5c4.7,0,8.5,3.8,8.5,8.5v196
			c0,4.7-3.8,8.5-8.5,8.5H209.7z"/>
		<path class="st7" d="M385.3,247.9c3.9,0,7,3.1,7,7v196c0,3.9-3.1,7-7,7H209.7c-3.9,0-7-3.1-7-7v-196c0-3.9,3.1-7,7-7H385.3
			 M385.3,244.9H209.7c-5.5,0-10,4.5-10,10v196c0,5.5,4.5,10,10,10h175.5c5.5,0,10-4.5,10-10v-196
			C395.3,249.3,390.8,244.9,385.3,244.9"/>
		<path class="st7" d="M241.3,417.7c-2-0.5-2.5-0.8-2.5-1.5v0c0-0.6,0.5-1,1.5-1c1,0,2,0.4,3,1.1l1.3-1.9c-1.2-1-2.6-1.5-4.3-1.5
			c-2.4,0-4.1,1.4-4.1,3.5v0c0,2.3,1.5,3,3.9,3.6c2,0.5,2.4,0.8,2.4,1.5v0c0,0.7-0.6,1.1-1.7,1.1c-1.3,0-2.4-0.6-3.5-1.4l-1.5,1.8
			c1.4,1.3,3.2,1.9,5,1.9c2.5,0,4.3-1.3,4.3-3.6v0C245,419.1,243.7,418.3,241.3,417.7"/>
		<polygon class="st7" points="249.3,415.3 252.9,415.3 252.9,424.7 255.4,424.7 255.4,415.3 259,415.3 259,413 249.3,413 		"/>
		<path class="st7" d="M266.6,412.9l-5,11.8h2.6l1.1-2.6h4.9l1.1,2.6h2.7l-5-11.8H266.6z M266.2,419.8l1.6-3.8l1.6,3.8H266.2z"/>
		<path class="st7" d="M288.7,416.9L288.7,416.9c0-1.1-0.4-2.1-1-2.7c-0.8-0.8-1.9-1.2-3.4-1.2H279v11.7h2.6v-3.7h2l2.5,3.7h3
			l-2.9-4.2C287.7,419.9,288.7,418.7,288.7,416.9 M286.1,417c0,1-0.7,1.7-2,1.7h-2.6v-3.4h2.6C285.4,415.3,286.1,415.9,286.1,417
			L286.1,417z"/>
		<polygon class="st7" points="296.8,413 294.2,413 294.2,424.7 302.6,424.7 302.6,422.3 296.8,422.3 		"/>
		<rect x="307.9" y="413" class="st7" width="2.6" height="11.7"/>
		<polygon class="st7" points="324.4,420.2 318.9,413 316.5,413 316.5,424.7 319,424.7 319,417.2 324.7,424.7 326.9,424.7 
			326.9,413 324.4,413 		"/>
		<path class="st7" d="M338.4,420.2h2.6v1.7c-0.7,0.5-1.5,0.7-2.4,0.7c-2.1,0-3.5-1.6-3.5-3.7v0c0-2,1.5-3.6,3.4-3.6
			c1.4,0,2.2,0.4,3.1,1.2l1.6-2c-1.2-1-2.5-1.6-4.6-1.6c-3.5,0-6.1,2.7-6.1,6v0c0,3.5,2.5,6,6.1,6c2.1,0,3.8-0.8,5-1.9v-5.1h-5.1
			V420.2z"/>
		<polygon class="st7" points="359.1,413 356.2,413 353.7,416.8 351.2,413 348.2,413 352.1,418.7 348.1,424.7 351,424.7 
			353.6,420.7 356.3,424.7 359.3,424.7 355.2,418.7 		"/>
		<polygon class="st8" points="294.2,301.9 278.4,280.9 235.7,280.9 272.9,330.3 		"/>
		<path class="st8" d="M290.7,354.2l25.9,34.5h42.7l-37.3-49.8C313.7,347.5,301.8,353.4,290.7,354.2"/>
		<path class="st7" d="M265.1,379.4l22.8-30.4c0.1,0,0.2,0,0.3,0c11.8,0,25.6-7.3,33.1-17.6l23.4-31.2c6.7-8.4,14.5-12.2,14.5-12.2
			c-6.3-2.6-15.8-4-15.8-4c-3.7-3.2-12.1-3.2-12.1-3.2c-14.7,0-21.7,9.3-21.7,9.3l-32.2,43c19.2-0.1,23-3.1,34.7-18.2l2.5-3.3
			c2.5-3.3,6.3-5.3,10.5-5.3l-8.7,11.8c-12.7,16.5-18,20.3-40.2,20.3c-0.9,0-1.8,0-2.7,0l-37.7,50.3h9.2
			C252,388.6,260.6,384.9,265.1,379.4"/>
		<path class="st7" d="M269.5,208.9h-222c-5.5,0-10-4.5-10-10v-79.4c0-5.5,4.5-10,10-10h222c5.5,0,10,4.5,10,10v79.4
			C279.5,204.4,275,208.9,269.5,208.9"/>
		<g class="st9">
			<path class="st4" d="M120.8,150.7h5.3c1.6,0,2.9,0.5,3.8,1.3c0.8,0.8,1.2,1.9,1.2,3.2v0.1c0,2.1-1.1,3.5-2.6,4.1l3,5.2h-3.3
				l-2.6-4.6h-1.8v4.6h-2.9V150.7z M125.8,157.5c1.5,0,2.3-0.8,2.3-2.1v0c0-1.4-0.9-2.1-2.3-2.1h-2.1v4.2H125.8z"/>
			<path class="st4" d="M132.5,159.5v-0.2c0-3.2,2.2-5.5,5.1-5.5s5,2.3,5,5.5v0.2c0,3.2-2.1,5.5-5,5.5S132.5,162.7,132.5,159.5z
				 M139.8,159.4v-0.1c0-1.7-0.9-3.1-2.2-3.1c-1.4,0-2.2,1.3-2.2,3v0.1c0,1.7,0.9,3.1,2.3,3.1C138.9,162.5,139.8,161.2,139.8,159.4z
				"/>
			<path class="st4" d="M147.3,163.3v1.4h-2.8v-14.4h2.8v5.2c0.6-0.9,1.5-1.7,2.9-1.7c2.1,0,4.1,1.7,4.1,5.4v0.3
				c0,3.7-1.9,5.4-4.1,5.4C148.7,164.9,147.9,164.1,147.3,163.3z M151.4,159.4v-0.2c0-1.8-0.9-3-2.1-3c-1.2,0-2.1,1.2-2.1,3v0.2
				c0,1.8,0.9,3,2.1,3C150.5,162.4,151.4,161.3,151.4,159.4z"/>
			<path class="st4" d="M155.7,159.5v-0.2c0-3.2,2.2-5.5,5.1-5.5s5,2.3,5,5.5v0.2c0,3.2-2.1,5.5-5,5.5S155.7,162.7,155.7,159.5z
				 M163,159.4v-0.1c0-1.7-0.9-3.1-2.2-3.1c-1.4,0-2.2,1.3-2.2,3v0.1c0,1.7,0.9,3.1,2.3,3.1C162.2,162.5,163,161.2,163,159.4z"/>
			<path class="st4" d="M168.1,162v-5.6h-1.1V154h1.1v-2.7h2.8v2.7h2.1v2.4H171v5.1c0,0.6,0.3,0.9,0.9,0.9c0.4,0,0.9-0.1,1.2-0.3
				v2.3c-0.6,0.3-1.2,0.6-2.1,0.6C169.3,164.9,168.1,164.2,168.1,162z"/>
			<path class="st4" d="M175,150.3h3v2.6h-3V150.3z M175.1,154h2.8v10.7h-2.8V154z"/>
			<path class="st4" d="M179.9,159.5v-0.2c0-3.2,2.1-5.5,5-5.5c1.5,0,2.6,0.5,3.5,1.4l-1.5,2.1c-0.5-0.5-1.1-1-1.9-1
				c-1.3,0-2.2,1.2-2.2,3v0.1c0,1.8,0.8,3,2.2,3c0.8,0,1.4-0.4,1.9-1l1.5,1.9c-0.9,1-2,1.6-3.6,1.6
				C181.9,164.9,179.9,162.7,179.9,159.5z"/>
			<path class="st4" d="M189.2,163.4l1.2-2c1,0.7,2,1.2,2.9,1.2c0.8,0,1.1-0.4,1.1-0.8v0c0-0.6-0.8-0.9-2-1.4
				c-1.5-0.7-2.8-1.4-2.8-3.2v0c0-2.1,1.6-3.3,3.7-3.3c1.2,0,2.5,0.4,3.5,1.2l-1.1,2c-0.8-0.5-1.7-0.9-2.4-0.9c-0.7,0-1,0.3-1,0.8v0
				c0,0.6,0.8,0.9,1.9,1.4c1.6,0.7,2.8,1.5,2.8,3.2v0c0,2.2-1.6,3.3-3.8,3.3C192,164.9,190.5,164.5,189.2,163.4z"/>
		</g>
	</g>
	<g class="st0">
		<defs>
			<rect id="SVGID_9_" width="595" height="633.7"/>
		</defs>
		<clipPath id="SVGID_10_">
			<use xlink:href="#SVGID_9_"  style="overflow:visible;"/>
		</clipPath>
		<path class="st10" d="M547.5,208.9h-222c-5.5,0-10-4.5-10-10v-79.4c0-5.5,4.5-10,10-10h222c5.5,0,10,4.5,10,10v79.4
			C557.5,204.4,553,208.9,547.5,208.9"/>
		<g class="st11">
			<path class="st4" d="M385.4,150.7h4.5c4.1,0,6.7,2.8,6.7,6.9v0.2c0,4.1-2.6,6.9-6.7,6.9h-4.5V150.7z M388.3,153.3v8.8h1.6
				c2.2,0,3.7-1.5,3.7-4.3v-0.1c0-2.8-1.5-4.3-3.7-4.3H388.3z"/>
			<path class="st4" d="M398.6,150.3h3v2.6h-3V150.3z M398.7,154h2.8v10.7h-2.8V154z"/>
			<path class="st4" d="M404,166.9l0.9-2.2c0.9,0.5,1.9,0.8,3,0.8c1.8,0,2.6-0.8,2.6-2.5v-0.7c-0.7,0.9-1.6,1.7-3,1.7
				c-2.1,0-4-1.7-4-5v-0.1c0-3.4,1.9-5,4-5c1.5,0,2.3,0.7,3,1.6V154h2.8v8.8c0,1.7-0.4,2.9-1.2,3.7c-0.9,0.9-2.3,1.3-4.1,1.3
				C406.6,167.8,405.2,167.4,404,166.9z M410.6,158.8L410.6,158.8c0-1.6-0.9-2.6-2.1-2.6c-1.2,0-2.1,1-2.1,2.6v0
				c0,1.6,0.9,2.6,2.1,2.6C409.7,161.5,410.6,160.4,410.6,158.8z"/>
			<path class="st4" d="M415.7,150.3h3v2.6h-3V150.3z M415.8,154h2.8v10.7h-2.8V154z"/>
			<path class="st4" d="M421.4,162v-5.6h-1.1V154h1.1v-2.7h2.8v2.7h2.1v2.4h-2.1v5.1c0,0.6,0.3,0.9,0.9,0.9c0.4,0,0.9-0.1,1.2-0.3
				v2.3c-0.6,0.3-1.2,0.6-2.1,0.6C422.6,164.9,421.4,164.2,421.4,162z"/>
			<path class="st4" d="M427.7,161.6v-0.1c0-2.4,1.5-3.4,3.7-3.4c0.9,0,1.6,0.2,2.2,0.4v-0.3c0-1.2-0.7-1.9-2-1.9
				c-1,0-1.8,0.3-2.5,0.6l-0.8-2.2c1-0.5,2.1-0.9,3.7-0.9c1.5,0,2.6,0.4,3.3,1.1c0.7,0.7,1.1,1.9,1.1,3.2v6.5h-2.8v-1.2
				c-0.6,0.8-1.5,1.4-2.8,1.4C429.1,164.9,427.7,163.7,427.7,161.6z M433.7,161.2v-0.9c-0.4-0.2-1-0.3-1.6-0.3c-1,0-1.7,0.5-1.7,1.5
				v0c0,0.9,0.6,1.3,1.4,1.3C432.9,162.8,433.7,162.2,433.7,161.2z"/>
			<path class="st4" d="M438.7,150.3h2.8v14.4h-2.8V150.3z"/>
			<path class="st4" d="M451.4,153.4h-3.5v-2.7h9.9v2.7h-3.5v11.3h-2.9V153.4z"/>
			<path class="st4" d="M457.9,154h2.9l1.5,6.3l1.7-6.4h2.4l1.7,6.4l1.5-6.4h2.8l-2.9,10.8h-2.6l-1.7-6.4l-1.7,6.4h-2.6L457.9,154z"
				/>
			<path class="st4" d="M473.9,150.3h3v2.6h-3V150.3z M474,154h2.8v10.7H474V154z"/>
			<path class="st4" d="M479.2,154h2.8v1.4c0.6-0.9,1.4-1.6,2.8-1.6c2,0,3.2,1.4,3.2,3.6v7.3h-2.8v-6.5c0-1.3-0.6-1.9-1.5-1.9
				c-0.9,0-1.6,0.6-1.6,1.9v6.5h-2.8V154z"/>
		</g>
	</g>
	<g class="st0">
		<defs>
			<rect id="SVGID_11_" width="595" height="633.7"/>
		</defs>
		<clipPath id="SVGID_12_">
			<use xlink:href="#SVGID_11_"  style="overflow:visible;"/>
		</clipPath>
		<path class="st12" d="M269.5,596.2h-222c-5.5,0-10-4.5-10-10v-79.4c0-5.5,4.5-10,10-10h222c5.5,0,10,4.5,10,10v79.4
			C279.5,591.8,275,596.2,269.5,596.2"/>
		<g class="st13">
			<path class="st4" d="M136.7,541.3h3l2,7.1l2-7.1h2.9l-3.6,10.8h-2.6L136.7,541.3z"/>
			<path class="st4" d="M148.3,538.1h4.7c3.1,0,5.1,1.8,5.1,4.8v0c0,3.2-2.3,4.8-5.2,4.9h-1.6v4.3h-2.9V538.1z M152.8,545.2
				c1.5,0,2.3-0.9,2.3-2.2v0c0-1.5-0.8-2.3-2.4-2.3h-1.6v4.5H152.8z"/>
			<path class="st4" d="M160,538.1h2.9v11.3h5.7v2.7H160V538.1z"/>
			<path class="st4" d="M169.2,545.2V545c0-4.2,2.6-7.1,6.3-7.1c2.1,0,3.4,0.8,4.5,1.9l-1.7,2.2c-0.8-0.9-1.7-1.4-2.9-1.4
				c-1.9,0-3.3,1.7-3.3,4.5v0.1c0,2.8,1.4,4.5,3.3,4.5c1.1,0,1.9-0.5,2.9-1.5l1.7,2.1c-1.3,1.3-2.6,2.1-4.7,2.1
				C171.7,552.3,169.2,549.4,169.2,545.2z"/>
		</g>
	</g>
	<g class="st0">
		<defs>
			<rect id="SVGID_13_" width="595" height="633.7"/>
		</defs>
		<clipPath id="SVGID_14_">
			<use xlink:href="#SVGID_13_"  style="overflow:visible;"/>
		</clipPath>
		<path class="st14" d="M547.5,596.2h-222c-5.5,0-10-4.5-10-10v-79.4c0-5.5,4.5-10,10-10h222c5.5,0,10,4.5,10,10v79.4
			C557.5,591.8,553,596.2,547.5,596.2"/>
		<g class="st15">
			<path class="st4" d="M420.8,538.1h2.9v5.6h4.6v-5.6h2.9v14h-2.9v-5.7h-4.6v5.7h-2.9V538.1z"/>
			<path class="st4" d="M434,538.1h3l3.1,5.7l3.1-5.7h3.1v14h-2.8v-8.9l-3.3,5.8h-0.1l-3.3-5.7v8.9H434V538.1z"/>
			<path class="st4" d="M449.2,538.1h2.9v14h-2.9V538.1z"/>
		</g>
	</g>
	<g class="st0">
		<defs>
			<rect id="SVGID_15_" width="595" height="633.7"/>
		</defs>
		<clipPath id="SVGID_16_">
			<use xlink:href="#SVGID_15_"  style="overflow:visible;"/>
		</clipPath>
		<line class="st16" x1="391.5" y1="249.3" x2="425.6" y2="203.9"/>
		<line class="st17" x1="391.5" y1="249.3" x2="425.6" y2="203.9"/>
		<line class="st16" x1="204.3" y1="249.3" x2="170.2" y2="203.9"/>
		<line class="st17" x1="204.3" y1="249.3" x2="170.2" y2="203.9"/>
		<line class="st16" x1="204.3" y1="456.4" x2="170.2" y2="501.9"/>
		<line class="st17" x1="204.3" y1="456.4" x2="170.2" y2="501.9"/>
		<line class="st16" x1="392.5" y1="456.4" x2="426.6" y2="501.9"/>
		<line class="st17" x1="392.5" y1="456.4" x2="426.6" y2="501.9"/>
	</g>
</g>
</svg>
