<?xml version="1.0" encoding="utf-8"?>
<!-- Generator: Adobe Illustrator 22.1.0, SVG Export Plug-In . SVG Version: 6.00 Build 0)  -->
<svg version="1.1"
	 id="Layer_1" xmlns:cc="http://creativecommons.org/ns#" xmlns:dc="http://purl.org/dc/elements/1.1/" xmlns:inkscape="http://www.inkscape.org/namespaces/inkscape" xmlns:rdf="http://www.w3.org/1999/02/22-rdf-syntax-ns#" xmlns:sodipodi="http://sodipodi.sourceforge.net/DTD/sodipodi-0.dtd" xmlns:svg="http://www.w3.org/2000/svg"
	 xmlns="http://www.w3.org/2000/svg" xmlns:xlink="http://www.w3.org/1999/xlink" x="0px" y="0px" viewBox="0 0 90 90"
	 style="enable-background:new 0 0 90 90;" xml:space="preserve">
<style type="text/css">
	.st0{fill:#C0A9F7;}
</style>
<g transform="translate(0,-952.36218)">
	<path class="st0" d="M44.2,952.8c-24.5,0-44.5,20-44.5,44.5s20,44.5,44.5,44.5s44.5-20,44.5-44.5S68.8,952.8,44.2,952.8z
		 M44.2,960.3c20.5,0,37.1,16.6,37.1,37.1s-16.6,37.1-37.1,37.1s-37.1-16.6-37.1-37.1C7.1,976.8,23.7,960.3,44.2,960.3z M44.2,973.7
		c-2,0-3.7,1.7-3.7,3.7v20c0,1,0.4,2,1.1,2.6l12.6,16.6c1.4,1.4,3.8,1.4,5.3,0c1.4-1.4,1.4-3.8,0-5.3L48,995.8v-18.4
		C48,975.3,46.3,973.7,44.2,973.7z"/>
</g>
</svg>
