<?xml version="1.0" encoding="utf-8"?>
<!-- Generator: Adobe Illustrator 22.1.0, SVG Export Plug-In . SVG Version: 6.00 Build 0)  -->
<svg version="1.1"
	 id="Layer_1" xmlns:cc="http://creativecommons.org/ns#" xmlns:dc="http://purl.org/dc/elements/1.1/" xmlns:inkscape="http://www.inkscape.org/namespaces/inkscape" xmlns:rdf="http://www.w3.org/1999/02/22-rdf-syntax-ns#" xmlns:sodipodi="http://sodipodi.sourceforge.net/DTD/sodipodi-0.dtd" xmlns:svg="http://www.w3.org/2000/svg"
	 xmlns="http://www.w3.org/2000/svg" xmlns:xlink="http://www.w3.org/1999/xlink" x="0px" y="0px" viewBox="0 0 90 90"
	 style="enable-background:new 0 0 90 90;" xml:space="preserve">
<style type="text/css">
	.st0{fill:#C0A9F7;}
</style>
<g>
	<path class="st0" d="M33,19.5c7.3-1.9,2.7-18.4-4.4-16.4C21.3,5.1,25.7,21.6,33,19.5z"/>
	<path class="st0" d="M44.1,16.5C49.5,16,48.3,4,43,4.6C37.5,5.1,38.7,17.1,44.1,16.5z"/>
	<path class="st0" d="M52.6,18.3c4.4,0.5,5.8-9.2,1.4-9.9C49.7,7.9,48.3,17.6,52.6,18.3z"/>
	<path class="st0" d="M60.2,22c3.4,0.7,5.1-7,1.6-7.7C58.5,13.5,56.8,21.2,60.2,22z"/>
	<path class="st0" d="M67.1,20.5c-2.9-0.5-4,5.8-1.1,6.2C68.7,27.2,70,21,67.1,20.5z"/>
	<path class="st0" d="M29.3,29.3C29.3,41,40.7,41,40.7,54.1c0,10.4-8.2,11.8-7.8,23.6c0.5,16.7,22.2,14.3,24.1-0.8
		c2-16.5,11-21.5,10.4-37.5C66.7,19.8,29.3,12.5,29.3,29.3z M57.4,49.9c-3.9,0-7.1-3.2-7.1-7.1s3.2-7.1,7.1-7.1
		c3.9,0,7.1,3.2,7.1,7.1S61.3,49.9,57.4,49.9z"/>
</g>
</svg>
