<svg width="137" height="30" viewBox="0 0 137 30" xmlns="http://www.w3.org/2000/svg" xmlns:xlink="http://www.w3.org/1999/xlink">
    <defs>
        <path d="M1060.89 2117.656l6.996 9.34h11.56l-10.1-13.476a13.584 13.584 0 0 1-8.456 4.136" id="a-logo-white" />
        <path d="M1071.868 2097.815a7.48 7.48 0 0 0-5.87 2.521l-8.722 11.635c5.188 0 6.234-.81 9.404-4.946l.664-.891a3.517 3.517 0 0 1 2.83-1.427l-2.351 3.186c-3.454 4.468-4.864 5.505-10.887 5.505h-.722L1046 2127.004h2.505a7.595 7.595 0 0 0 5.447-2.497l6.178-8.246h.089a11.991 11.991 0 0 0 8.982-4.776l6.323-8.44a12.924 12.924 0 0 1 3.923-3.3 21.714 21.714 0 0 0-4.288-1.07c-1.005-.86-3.291-.86-3.291-.86" id="b-logo-white" />
        <path d="M1046 2098l10.159 13 5.841-7.47-4.317-5.53z" id="c-logo-white" />
        <path d="M1087.407 2111.48c-1.622-.421-2.035-.624-2.035-1.24 0-.462.413-.81 1.208-.81a4.453 4.453 0 0 1 2.432.932l1.078-1.565a5.475 5.475 0 0 0-3.478-1.257c-1.93 0-3.3 1.127-3.3 2.838 0 1.873 1.225 2.432 3.122 2.878 1.573.406 1.897.673 1.897 1.2 0 .552-.51.892-1.362.892a4.319 4.319 0 0 1-2.805-1.143l-1.224 1.46a5.952 5.952 0 0 0 3.988 1.605c2.035 0 3.462-1.046 3.462-2.918 0-1.688-1.078-2.377-2.983-2.871" id="d-logo-white" />
        <path d="M1093.88 2109.604h2.862v7.508h2.075v-7.508h2.861v-1.914h-7.798z" id="e-logo-white" />
        <path d="M1107.843 2107.63l-4.053 9.486h2.116l.86-2.116h3.98l.859 2.116h2.164l-4.053-9.486zm-.324 5.546l1.257-3.057 1.248 3.097z" id="f-logo-white" />
        <path d="M1125.654 2110.83a2.948 2.948 0 0 0-.81-2.156 3.77 3.77 0 0 0-2.748-.957h-4.296v9.397h2.066v-3.016h1.622l2.019 3.016h2.432l-2.294-3.365a2.926 2.926 0 0 0 2.01-2.918zm-2.091.104c0 .809-.584 1.327-1.621 1.327h-2.1v-2.693h2.06c1.004 0 1.62.453 1.62 1.342z" id="g-logo-white" />
        <path d="M1132.157 2107.69h-2.067v9.422h6.76v-1.889h-4.693z" id="h-logo-white" />
        <path d="M1141.07 2117.104h2.068v-9.414h-2.068z" id="i-logo-white" />
        <path d="M1154.365 2113.487l-4.41-5.797h-1.905v9.422h2.043v-5.992l4.557 5.992h1.766v-9.422h-2.051z" id="j-logo-white" />
        <path d="M1165.713 2113.484h2.051v1.354c-.577.385-1.26.58-1.954.56a2.822 2.822 0 0 1-2.813-2.993 2.822 2.822 0 0 1 2.7-2.935 3.472 3.472 0 0 1 2.432.957l1.297-1.573a5.163 5.163 0 0 0-3.696-1.297 4.864 4.864 0 0 0-4.937 4.79v.075a4.718 4.718 0 0 0 4.953 4.864c1.489.012 2.93-.52 4.053-1.5v-4.053h-4.053z" id="k-logo-white" />
        <path d="M1179.223 2112.295l3.146-4.605h-2.351l-2.003 3.057-1.961-3.057h-2.423l3.144 4.63-3.275 4.79h2.35l2.125-3.225 2.116 3.226h2.415z" id="l-logo-white" />
    </defs>
    <g transform="translate(-1046 -2097)">
        <use xlink:href="#a-logo-white" fill="#fff" />
        <use xlink:href="#b-logo-white" fill="#fff" />
        <use xlink:href="#c-logo-white" fill="#fff" />
        <use xlink:href="#d-logo-white" fill="#fff" />
        <use xlink:href="#e-logo-white" fill="#fff" />
        <use xlink:href="#f-logo-white" fill="#fff" />
        <g>
            <use xlink:href="#g-logo-white" fill="#fff" />
        </g>
        <g>
            <use xlink:href="#h-logo-white" fill="#fff" />
        </g>
        <g>
            <use xlink:href="#i-logo-white" fill="#fff" />
        </g>
        <g>
            <use xlink:href="#j-logo-white" fill="#fff" />
        </g>
        <g>
            <use xlink:href="#k-logo-white" fill="#fff" />
        </g>
        <g>
            <use xlink:href="#l-logo-white" fill="#fff" />
        </g>
    </g>
</svg>