<?xml version="1.0" encoding="utf-8"?>
<!-- Generator: Adobe Illustrator 22.1.0, SVG Export Plug-In . SVG Version: 6.00 Build 0)  -->
<svg version="1.1" id="Layer_1" xmlns="http://www.w3.org/2000/svg" xmlns:xlink="http://www.w3.org/1999/xlink" x="0px" y="0px"
	 viewBox="0 0 95 95" style="enable-background:new 0 0 95 95;" xml:space="preserve">
<style type="text/css">
	.st0{fill:#C0A9F7;}
</style>
<g>
	<g>
		<path class="st0" d="M74.8,4.5H21.2C12,4.5,4.5,12,4.5,21.2v53.5c0,9.2,7.5,16.7,16.7,16.7h53.5c9.2,0,16.7-7.5,16.7-16.7V21.2
			C91.5,12,84,4.5,74.8,4.5z M84.8,74.8c0,5.5-4.5,10-10,10H21.2c-5.5,0-10-4.5-10-10V21.2c0-5.5,4.5-10,10-10h53.5
			c5.5,0,10,4.5,10,10V74.8z"/>
		<path class="st0" d="M68.1,24.6H57.5c-1.8,0-3.3,1.5-3.3,3.3s1.5,3.3,3.3,3.3h2.4L31.3,60.1v-2.7c0-1.8-1.5-3.3-3.3-3.3
			s-3.3,1.5-3.3,3.3v10.6c0,1.8,1.5,3.3,3.3,3.3h10.6c1.8,0,3.3-1.5,3.3-3.3c0-1.8-1.5-3.3-3.3-3.3h-2.4l28.6-28.9V38
			c0,1.8,1.5,3.3,3.3,3.3c1.8,0,3.3-1.5,3.3-3.3v-10C71.4,26.1,69.9,24.6,68.1,24.6z"/>
	</g>
</g>
</svg>
