<?xml version="1.0" encoding="utf-8"?>
<!-- Generator: Adobe Illustrator 22.1.0, SVG Export Plug-In . SVG Version: 6.00 Build 0)  -->
<svg version="1.1" id="Layer_1" xmlns="http://www.w3.org/2000/svg" xmlns:xlink="http://www.w3.org/1999/xlink" x="0px" y="0px"
	 viewBox="0 0 595 633.7" style="enable-background:new 0 0 595 633.7;" xml:space="preserve">
<style type="text/css">
	.st0{clip-path:url(#SVGID_2_);}
	.st1{opacity:5.000310e-02;clip-path:url(#SVGID_4_);}
	.st2{clip-path:url(#SVGID_6_);fill:#231F20;}
	.st3{clip-path:url(#SVGID_2_);fill:#5956A5;}
	.st4{fill:#FFFFFF;}
	.st5{font-family:'GothamNarrow-Bold';}
	.st6{font-size:30px;}
	.st7{clip-path:url(#SVGID_8_);fill:none;stroke:#351D70;stroke-width:3;stroke-miterlimit:10;}
	.st8{clip-path:url(#SVGID_8_);fill:#FFFFFF;}
	.st9{clip-path:url(#SVGID_8_);fill:#351D70;}
	.st10{clip-path:url(#SVGID_8_);fill:#5956A5;}
	.st11{font-size:20px;}
	.st12{clip-path:url(#SVGID_10_);fill:#351D70;}
	.st13{clip-path:url(#SVGID_12_);fill:#351D70;}
	.st14{letter-spacing:-1;}
	.st15{clip-path:url(#SVGID_14_);fill:#FFFFFF;}
	.st16{clip-path:url(#SVGID_14_);fill:none;stroke:#351D70;stroke-width:3;stroke-miterlimit:10;}
</style>
<g>
	<defs>
		<rect id="SVGID_1_" width="595" height="633.7"/>
	</defs>
	<clipPath id="SVGID_2_">
		<use xlink:href="#SVGID_1_"  style="overflow:visible;"/>
	</clipPath>
	<g class="st0">
		<defs>
			<rect id="SVGID_3_" width="595" height="633.7"/>
		</defs>
		<clipPath id="SVGID_4_">
			<use xlink:href="#SVGID_3_"  style="overflow:visible;"/>
		</clipPath>
		<g class="st1">
			<g>
				<defs>
					<rect id="SVGID_5_" x="1.5" y="1.5" width="592" height="630.7"/>
				</defs>
				<clipPath id="SVGID_6_">
					<use xlink:href="#SVGID_5_"  style="overflow:visible;"/>
				</clipPath>
				<rect x="1.5" y="1.5" class="st2" width="592" height="630.7"/>
			</g>
		</g>
	</g>
	<rect x="1.6" y="1.5" class="st3" width="592" height="72"/>
	<g class="st0">
		<text transform="matrix(1 0 0 1 267.0996 46.1234)" class="st4 st5 st6">uCPE</text>
	</g>
	<g class="st0">
		<defs>
			<rect id="SVGID_7_" width="595" height="633.7"/>
		</defs>
		<clipPath id="SVGID_8_">
			<use xlink:href="#SVGID_7_"  style="overflow:visible;"/>
		</clipPath>
		<rect x="1.5" y="1.5" class="st7" width="592" height="630.7"/>
		<path class="st8" d="M209.7,459.4c-4.7,0-8.5-3.8-8.5-8.5v-196c0-4.7,3.8-8.5,8.5-8.5h175.5c4.7,0,8.5,3.8,8.5,8.5v196
			c0,4.7-3.8,8.5-8.5,8.5H209.7z"/>
		<path class="st9" d="M385.2,247.9c3.9,0,7,3.1,7,7v196c0,3.9-3.1,7-7,7H209.7c-3.9,0-7-3.1-7-7v-196c0-3.9,3.1-7,7-7H385.2
			 M385.2,244.9H209.7c-5.5,0-10,4.5-10,10v196c0,5.5,4.5,10,10,10h175.5c5.5,0,10-4.5,10-10v-196
			C395.2,249.3,390.8,244.9,385.2,244.9"/>
		<path class="st9" d="M241.3,417.7c-2-0.5-2.5-0.8-2.5-1.5v0c0-0.6,0.5-1,1.5-1c1,0,2,0.4,3,1.1l1.3-1.9c-1.2-1-2.6-1.5-4.3-1.5
			c-2.4,0-4.1,1.4-4.1,3.5v0c0,2.3,1.5,3,3.9,3.6c2,0.5,2.4,0.8,2.4,1.5v0c0,0.7-0.6,1.1-1.7,1.1c-1.3,0-2.4-0.6-3.5-1.4l-1.5,1.8
			c1.4,1.3,3.2,1.9,5,1.9c2.5,0,4.3-1.3,4.3-3.6v0C245,419.1,243.6,418.3,241.3,417.7"/>
		<polygon class="st9" points="249.3,415.3 252.9,415.3 252.9,424.7 255.4,424.7 255.4,415.3 259,415.3 259,413 249.3,413 		"/>
		<path class="st9" d="M266.6,412.9l-5,11.8h2.6l1.1-2.6h4.9l1.1,2.6h2.7l-5-11.8H266.6z M266.2,419.8l1.6-3.8l1.6,3.8H266.2z"/>
		<path class="st9" d="M288.7,416.9L288.7,416.9c0-1.1-0.4-2.1-1-2.7c-0.8-0.8-1.9-1.2-3.4-1.2H279v11.7h2.6v-3.7h2l2.5,3.7h3
			l-2.9-4.2C287.7,419.9,288.7,418.7,288.7,416.9 M286.1,417c0,1-0.7,1.7-2,1.7h-2.6v-3.4h2.6C285.4,415.3,286.1,415.9,286.1,417
			L286.1,417z"/>
		<polygon class="st9" points="296.8,413 294.2,413 294.2,424.7 302.6,424.7 302.6,422.3 296.8,422.3 		"/>
		<rect x="307.8" y="413" class="st9" width="2.6" height="11.7"/>
		<polygon class="st9" points="324.3,420.2 318.9,413 316.5,413 316.5,424.7 319,424.7 319,417.2 324.7,424.7 326.9,424.7 
			326.9,413 324.3,413 		"/>
		<path class="st9" d="M338.4,420.2h2.6v1.7c-0.7,0.5-1.5,0.7-2.4,0.7c-2.1,0-3.5-1.6-3.5-3.7v0c0-2,1.5-3.6,3.4-3.6
			c1.4,0,2.2,0.4,3.1,1.2l1.6-2c-1.2-1-2.5-1.6-4.6-1.6c-3.5,0-6.1,2.7-6.1,6v0c0,3.5,2.5,6,6.1,6c2.1,0,3.8-0.8,5-1.9v-5.1h-5.1
			V420.2z"/>
		<polygon class="st9" points="359.1,413 356.2,413 353.7,416.8 351.2,413 348.2,413 352.1,418.7 348.1,424.7 351,424.7 
			353.6,420.7 356.2,424.7 359.2,424.7 355.2,418.7 		"/>
		<polygon class="st10" points="294.2,301.9 278.4,280.9 235.7,280.9 272.9,330.3 		"/>
		<path class="st10" d="M290.7,354.2l25.9,34.5h42.7l-37.3-49.8C313.7,347.5,301.8,353.4,290.7,354.2"/>
		<path class="st9" d="M265.1,379.4l22.8-30.4c0.1,0,0.2,0,0.3,0c11.8,0,25.6-7.3,33.1-17.6l23.4-31.2c6.7-8.4,14.5-12.2,14.5-12.2
			c-6.3-2.6-15.8-4-15.8-4c-3.7-3.2-12.1-3.2-12.1-3.2c-14.7,0-21.7,9.3-21.7,9.3l-32.2,43c19.2-0.1,23-3.1,34.7-18.2l2.5-3.3
			c2.5-3.3,6.3-5.3,10.5-5.3l-8.7,11.8c-12.7,16.5-18,20.3-40.2,20.3c-0.9,0-1.8,0-2.7,0l-37.7,50.3h9.2
			C252,388.6,260.6,384.9,265.1,379.4"/>
		<path class="st9" d="M269.5,208.9h-222c-5.5,0-10-4.5-10-10v-79.4c0-5.5,4.5-10,10-10h222c5.5,0,10,4.5,10,10v79.4
			C279.5,204.4,275,208.9,269.5,208.9"/>
		<line class="st8" x1="297.5" y1="460.9" x2="297.5" y2="498.5"/>
		<line class="st7" x1="297.5" y1="460.9" x2="297.5" y2="498.5"/>
	</g>
	<g class="st0">
		<text transform="matrix(1 0 0 1 70.606 153.7015)"><tspan x="0" y="0" class="st4 st5 st11">Intrusion De</tspan><tspan x="107.6" y="0" class="st4 st5 st11">t</tspan><tspan x="114.6" y="0" class="st4 st5 st11">ection</tspan></text>
	</g>
	<g class="st0">
		<text transform="matrix(1 0 0 1 65.7461 177.7015)"><tspan x="0" y="0" class="st4 st5 st11">Intrusion P</tspan><tspan x="95.2" y="0" class="st4 st5 st11">r</tspan><tspan x="102.2" y="0" class="st4 st5 st11">e</tspan><tspan x="112.4" y="0" class="st4 st5 st11">v</tspan><tspan x="122.4" y="0" class="st4 st5 st11">ention</tspan></text>
	</g>
	<g class="st0">
		<defs>
			<rect id="SVGID_9_" width="595" height="633.7"/>
		</defs>
		<clipPath id="SVGID_10_">
			<use xlink:href="#SVGID_9_"  style="overflow:visible;"/>
		</clipPath>
		<path class="st12" d="M547.5,208.9h-222c-5.5,0-10-4.5-10-10v-79.4c0-5.5,4.5-10,10-10h222c5.5,0,10,4.5,10,10v79.4
			C557.5,204.4,553,208.9,547.5,208.9"/>
	</g>
	<g class="st0">
		<text transform="matrix(1 0 0 1 360.835 164.6956)"><tspan x="0" y="0" class="st4 st5 st11">C</tspan><tspan x="12.2" y="0" class="st4 st5 st11">on</tspan><tspan x="34.7" y="0" class="st4 st5 st11">t</tspan><tspan x="41.7" y="0" class="st4 st5 st11">ent Deli</tspan><tspan x="109.9" y="0" class="st4 st5 st11">v</tspan><tspan x="119.8" y="0" class="st4 st5 st11">ery</tspan></text>
	</g>
	<g class="st0">
		<defs>
			<rect id="SVGID_11_" width="595" height="633.7"/>
		</defs>
		<clipPath id="SVGID_12_">
			<use xlink:href="#SVGID_11_"  style="overflow:visible;"/>
		</clipPath>
		<path class="st13" d="M408.5,596.2h-222c-5.5,0-10-4.5-10-10v-79.4c0-5.5,4.5-10,10-10h222c5.5,0,10,4.5,10,10v79.4
			C418.5,591.8,414,596.2,408.5,596.2"/>
	</g>
	<g class="st0">
		<text transform="matrix(1 0 0 1 263.4248 552.0687)"><tspan x="0" y="0" class="st4 st5 st11">SD</tspan><tspan x="24.5" y="0" class="st4 st5 st11">-</tspan><tspan x="31.5" y="0" class="st4 st5 st11 st14">W</tspan><tspan x="49.1" y="0" class="st4 st5 st11">AN</tspan></text>
	</g>
	<g class="st0">
		<defs>
			<rect id="SVGID_13_" width="595" height="633.7"/>
		</defs>
		<clipPath id="SVGID_14_">
			<use xlink:href="#SVGID_13_"  style="overflow:visible;"/>
		</clipPath>
		<line class="st15" x1="391.5" y1="249.3" x2="425.5" y2="203.9"/>
		<line class="st16" x1="391.5" y1="249.3" x2="425.5" y2="203.9"/>
		<line class="st15" x1="204.3" y1="249.3" x2="170.2" y2="203.9"/>
		<line class="st16" x1="204.3" y1="249.3" x2="170.2" y2="203.9"/>
	</g>
</g>
</svg>
