<?xml version="1.0" encoding="utf-8"?>
<!-- Generator: Adobe Illustrator 22.1.0, SVG Export Plug-In . SVG Version: 6.00 Build 0)  -->
<svg version="1.1" id="Layer_1" xmlns="http://www.w3.org/2000/svg" xmlns:xlink="http://www.w3.org/1999/xlink" x="0px" y="0px"
	 viewBox="0 0 90 90" style="enable-background:new 0 0 90 90;" xml:space="preserve">
<style type="text/css">
	.st0{fill:#C0A9F7;}
</style>
<g transform="translate(0,-952.36218)">
	<path class="st0" d="M45,952.8c-24.5,0-44.5,20-44.5,44.5s20,44.5,44.5,44.5s44.5-20,44.5-44.5S69.5,952.8,45,952.8z M45,960.3
		c20.5,0,37.1,16.6,37.1,37.1s-16.6,37.1-37.1,37.1s-37.1-16.6-37.1-37.1C7.9,976.8,24.5,960.3,45,960.3z"/>
</g>
<g transform="translate(-247 -872)">
	<g>
		<g>
			<path id="b-check-large" class="st0" d="M312.9,902.9c-1.7-1.5-4.2-1.6-5.9,0l-8.1,8.1l-12.8,12.8l-7.8-7.8c-0.5-0.5-1-1-1.5-1.5
				c-1.5-1.5-4.4-1.6-5.9,0c-1.5,1.7-1.6,4.2,0,5.9l10.7,10.8c0.5,0.5,1,1,1.5,1.5c1.6,1.6,4.3,1.6,5.9,0l8.1-8.1l12.9-12.9l2.9-2.9
				C314.4,907.2,314.5,904.4,312.9,902.9"/>
		</g>
	</g>
</g>
</svg>
