<?xml version="1.0" encoding="utf-8"?>
<!-- Generator: Adobe Illustrator 22.1.0, SVG Export Plug-In . SVG Version: 6.00 Build 0)  -->
<svg version="1.1"
	 id="Layer_1" xmlns:cc="http://creativecommons.org/ns#" xmlns:dc="http://purl.org/dc/elements/1.1/" xmlns:inkscape="http://www.inkscape.org/namespaces/inkscape" xmlns:rdf="http://www.w3.org/1999/02/22-rdf-syntax-ns#" xmlns:sodipodi="http://sodipodi.sourceforge.net/DTD/sodipodi-0.dtd" xmlns:svg="http://www.w3.org/2000/svg"
	 xmlns="http://www.w3.org/2000/svg" xmlns:xlink="http://www.w3.org/1999/xlink" x="0px" y="0px" viewBox="0 0 90 90"
	 style="enable-background:new 0 0 90 90;" xml:space="preserve">
<style type="text/css">
	.st0{fill:#C0A9F7;}
</style>
<g>
	<path class="st0" d="M54.6,3c-1.4,0.1-2.6,1.2-2.8,2.6c-0.2,1.4,0.7,2.8,2,3.2c2.1,0.7,4.1,1.6,6.1,2.7
		c9.3,5.3,14.8,14.1,16.7,23.4l-2.9-1.7c-1.4-0.9-3.4-0.4-4.3,1s-0.2,3.4,1.2,4.2l8.7,5c1.4,0.8,3.3,0.3,4.1-1.1l5-8.6
		c0.6-0.9,0.6-2.2,0-3.1c-0.6-0.9-1.7-1.5-2.9-1.4c-1,0.1-1.9,0.7-2.4,1.5l-1.1,1.8c-2.4-10.4-8.8-20.2-19.3-26.2
		C60.6,5,55,3,54.6,3L54.6,3z"/>
	<path class="st0" d="M11.7,5.8C10.2,5.9,8.8,7.4,8.9,9c0.1,1.6,1.6,2.9,3.2,2.8h2.1C6.3,19.1,1,29.5,1,41.5c0,2.7,0.3,5.3,0.8,7.8
		c0.2,1.6,2,2.9,3.6,2.6c1.6-0.3,2.8-2.1,2.3-3.7C7.3,46,7,43.8,7,41.5c0-10.7,4.8-19.8,12.1-26v3.3c0,1.6,1.4,3,3,3s3-1.5,3-3v-10
		c0-1.6-1.4-3-3-3C22.1,5.8,11.8,5.8,11.7,5.8L11.7,5.8z"/>
	<path class="st0" d="M66.9,67.4c-0.7,0-5.3,3.5-7.3,4.6c-9.3,5.3-19.7,5.8-28.8,2.7l2.9-1.7c1.2-0.7,1.8-2.2,1.4-3.5
		c-0.4-1.3-1.8-2.2-3.1-2.1c-0.5,0-10,5.4-10,5.4c-1.4,0.8-1.9,2.7-1.1,4.1l5,8.6c0.8,1.4,2.8,1.9,4.1,1.1c1.4-0.8,1.9-2.7,1.1-4.1
		l-1.1-1.8c10.3,3.1,22,2.5,32.5-3.5c2.3-1.3,4.4-2.9,6.4-4.5c1-0.8,1.3-2.2,0.8-3.4C69.4,68.1,68.1,67.3,66.9,67.4L66.9,67.4z"/>
</g>
</svg>
